<svg width="185" height="1323" viewBox="0 0 185 1323" fill="none" xmlns="http://www.w3.org/2000/svg">
<path d="M90.3985 73L90.5473 73.4773L90.3985 73ZM90.3985 246.5L90.5739 246.032L90.3985 246.5ZM90.3985 633.5L90.8678 633.673L90.3985 633.5ZM90.3985 1317.5L89.962 1317.26C89.856 1317.45 89.8848 1317.68 90.0332 1317.84C90.1815 1318 90.4155 1318.04 90.612 1317.95L90.3985 1317.5ZM126.398 1300.5L126.611 1300.95C126.807 1300.86 126.922 1300.65 126.894 1300.44C126.866 1300.22 126.703 1300.05 126.49 1300.01L126.398 1300.5ZM86.3979 1293L86.4901 1292.51C86.2754 1292.47 86.0595 1292.57 85.9567 1292.76C85.854 1292.96 85.8882 1293.19 86.0413 1293.35L86.3979 1293ZM114.898 1322L114.541 1322.35C114.692 1322.5 114.925 1322.54 115.118 1322.45C115.312 1322.35 115.423 1322.15 115.393 1321.93L114.898 1322ZM109.893 1281.93C109.856 1281.66 109.603 1281.47 109.33 1281.5C109.056 1281.54 108.865 1281.79 108.903 1282.07L109.893 1281.93ZM87.3005 0.694522C87.025 0.714159 86.8177 0.953369 86.8373 1.22881C86.8569 1.50426 87.0962 1.71163 87.3716 1.69199L87.3005 0.694522ZM81.4171 2.21449C81.6917 2.18578 81.8911 1.93986 81.8624 1.66521C81.8337 1.39057 81.5877 1.1912 81.3131 1.21991L81.4171 2.21449ZM75.2875 1.95625C75.0141 1.9946 74.8235 2.24739 74.8618 2.52085C74.9002 2.79432 75.153 2.98491 75.4264 2.94655L75.2875 1.95625ZM69.5511 3.87986C69.823 3.83149 70.0042 3.57188 69.9558 3.3C69.9075 3.02813 69.6478 2.84695 69.376 2.89532L69.5511 3.87986ZM63.4164 4.07634C63.1467 4.13542 62.9759 4.40199 63.035 4.67174C63.094 4.94149 63.3606 5.11227 63.6303 5.05319L63.4164 4.07634ZM57.7944 6.45868C58.0614 6.38836 58.2209 6.11487 58.1505 5.84783C58.0802 5.5808 57.8067 5.42133 57.5397 5.49165L57.7944 6.45868ZM51.7781 7.14493C51.5145 7.22703 51.3673 7.50732 51.4494 7.77097C51.5315 8.03463 51.8118 8.18181 52.0755 8.0997L51.7781 7.14493ZM46.3675 10.0275C46.6269 9.93277 46.7604 9.6457 46.6657 9.38631C46.5709 9.12693 46.2839 8.99344 46.0245 9.08816L46.3675 10.0275ZM40.387 11.3123C40.1328 11.4204 40.0144 11.714 40.1225 11.9681C40.2306 12.2222 40.5242 12.3406 40.7783 12.2325L40.387 11.3123ZM35.3426 14.7242C35.5902 14.6021 35.6919 14.3023 35.5697 14.0546C35.4475 13.807 35.1478 13.7053 34.9001 13.8274L35.3426 14.7242ZM29.5805 16.6549C29.3409 16.792 29.2577 17.0975 29.3949 17.3372C29.532 17.5768 29.8375 17.66 30.0772 17.5228L29.5805 16.6549ZM24.9999 20.6574C25.2297 20.5043 25.2919 20.1939 25.1388 19.9641C24.9857 19.7343 24.6753 19.6721 24.4455 19.8252L24.9999 20.6574ZM19.522 23.3785C19.3045 23.5488 19.2662 23.863 19.4364 24.0805C19.6066 24.2979 19.9209 24.3362 20.1383 24.166L19.522 23.3785ZM15.5908 28.0471C15.7927 27.8588 15.8036 27.5424 15.6152 27.3405C15.4268 27.1386 15.1104 27.1276 14.9085 27.316L15.5908 28.0471ZM10.6833 31.6629C10.5012 31.8705 10.522 32.1864 10.7296 32.3684C10.9372 32.5505 11.2531 32.5298 11.4352 32.3222L10.6833 31.6629ZM7.77987 37.006C7.93624 36.7784 7.87849 36.4672 7.65088 36.3108C7.42328 36.1544 7.11201 36.2122 6.95564 36.4398L7.77987 37.006ZM3.85202 41.7059C3.72983 41.9536 3.83151 42.2534 4.07915 42.3756C4.32678 42.4978 4.62659 42.3961 4.74878 42.1485L3.85202 41.7059ZM2.58464 47.6734C2.66144 47.4081 2.50867 47.1308 2.24342 47.054C1.97817 46.9772 1.70089 47.13 1.62409 47.3953L2.58464 47.6734ZM0.552081 53.397C0.534313 53.6726 0.743303 53.9104 1.01887 53.9282C1.29444 53.9459 1.53224 53.7369 1.55001 53.4614L0.552081 53.397ZM1.91875 59.3261C1.86489 59.0553 1.60168 58.8794 1.33084 58.9332C1.06 58.9871 0.884094 59.2503 0.93795 59.5211L1.91875 59.3261ZM2.96909 65.3147C3.09631 65.5598 3.39813 65.6553 3.64322 65.5281C3.88831 65.4009 3.98387 65.0991 3.85665 64.854L2.96909 65.3147ZM7.22927 69.6328C7.04214 69.4297 6.72582 69.4168 6.52275 69.6039C6.31968 69.7911 6.30677 70.1074 6.4939 70.3105L7.22927 69.6328ZM11.1302 74.2999C11.3576 74.4565 11.669 74.399 11.8255 74.1715C11.9821 73.9441 11.9247 73.6328 11.6972 73.4762L11.1302 74.2999ZM16.8888 76.3855C16.6373 76.2714 16.3409 76.3826 16.2268 76.6341C16.1126 76.8855 16.2239 77.1819 16.4753 77.2961L16.8888 76.3855ZM22.186 79.4126C22.4507 79.4914 22.7291 79.3407 22.8078 79.076C22.8866 78.8113 22.7359 78.5329 22.4712 78.4542L22.186 79.4126ZM28.2764 79.833C28.0048 79.7832 27.7442 79.963 27.6944 80.2346C27.6447 80.5062 27.8245 80.7668 28.0961 80.8166L28.2764 79.833ZM34.0834 81.639C34.3583 81.6651 34.6023 81.4634 34.6284 81.1885C34.6545 80.9136 34.4528 80.6695 34.1779 80.6434L34.0834 81.639ZM40.1063 80.9881C39.8303 80.9815 39.6012 81.2 39.5946 81.4761C39.5881 81.7522 39.8066 81.9812 40.0827 81.9878L40.1063 80.9881ZM46.1041 81.9451C46.3801 81.9351 46.5957 81.7033 46.5857 81.4274C46.5757 81.1514 46.3439 80.9358 46.068 80.9458L46.1041 81.9451ZM52.0758 80.5693C51.8007 80.5935 51.5973 80.8361 51.6215 81.1112C51.6456 81.3863 51.8883 81.5897 52.1633 81.5655L52.0758 80.5693ZM58.1977 80.8958C58.4714 80.8594 58.6638 80.608 58.6273 80.3342C58.5909 80.0605 58.3395 79.8682 58.0657 79.9046L58.1977 80.8958ZM63.9276 79.0067C63.6555 79.0537 63.473 79.3123 63.5199 79.5844C63.5669 79.8566 63.8256 80.0391 64.0977 79.9921L63.9276 79.0067ZM70.0869 78.8486C70.3572 78.7921 70.5306 78.5272 70.4742 78.2569C70.4177 77.9866 70.1528 77.8132 69.8825 77.8697L70.0869 78.8486ZM75.6883 76.5627C75.4198 76.6274 75.2546 76.8975 75.3193 77.1659C75.384 77.4344 75.6541 77.5996 75.9226 77.5349L75.6883 76.5627ZM81.7825 76.0338C82.049 75.9616 82.2066 75.687 82.1344 75.4205C82.0622 75.1539 81.7876 74.9964 81.521 75.0686L81.7825 76.0338ZM87.2884 73.4261C87.0238 73.5051 86.8732 73.7836 86.9522 74.0482C87.0311 74.3128 87.3097 74.4633 87.5743 74.3844L87.2884 73.4261ZM93.4638 72.6171C93.7299 72.5432 93.8856 72.2675 93.8117 72.0015C93.7377 71.7354 93.4621 71.5797 93.196 71.6537L93.4638 72.6171ZM98.9512 70.25C98.6809 70.3065 98.5076 70.5714 98.5642 70.8417C98.6207 71.112 98.8856 71.2853 99.1559 71.2288L98.9512 70.25ZM104.933 70.2334C105.207 70.1966 105.399 69.9449 105.362 69.6712C105.325 69.3975 105.073 69.2055 104.799 69.2424L104.933 70.2334ZM110.671 68.6843C110.395 68.6993 110.184 68.935 110.199 69.2107C110.214 69.4865 110.45 69.6978 110.725 69.6828L110.671 68.6843ZM116.612 69.6177C116.888 69.627 117.12 69.4108 117.129 69.1348C117.138 68.8588 116.922 68.6275 116.646 68.6183L116.612 69.6177ZM122.506 69.0868C122.232 69.0518 121.982 69.2455 121.947 69.5194C121.912 69.7933 122.105 70.0438 122.379 70.0788L122.506 69.0868ZM128.171 71.1149C128.44 71.1773 128.709 71.0098 128.771 70.7408C128.834 70.4718 128.666 70.2031 128.397 70.1408L128.171 71.1149ZM134.103 71.7778C133.841 71.688 133.557 71.8268 133.467 72.0879C133.377 72.349 133.516 72.6336 133.777 72.7234L134.103 71.7778ZM139.175 74.9025C139.425 75.0191 139.723 74.9107 139.839 74.6604C139.956 74.4101 139.848 74.1127 139.597 73.9961L139.175 74.9025ZM144.861 76.7898C144.624 76.6479 144.317 76.725 144.175 76.9619C144.033 77.1988 144.11 77.5059 144.347 77.6477L144.861 76.7898ZM149.199 80.894C149.421 81.0587 149.734 81.0125 149.899 80.7909C150.064 80.5692 150.017 80.256 149.796 80.0913L149.199 80.894ZM154.399 83.8647C154.194 83.6799 153.878 83.6964 153.693 83.9015C153.508 84.1067 153.525 84.4229 153.73 84.6077L154.399 83.8647ZM157.892 88.7052C158.081 88.9072 158.397 88.9184 158.599 88.7302C158.801 88.5419 158.812 88.2255 158.624 88.0235L157.892 88.7052ZM162.488 92.5279C162.316 92.3113 162.002 92.2745 161.785 92.4458C161.569 92.6171 161.532 92.9315 161.703 93.1481L162.488 92.5279ZM165.175 97.8986C165.329 98.1274 165.64 98.1876 165.869 98.033C166.098 97.8784 166.158 97.5675 166.003 97.3387L165.175 97.8986ZM169.14 102.346C169.001 102.107 168.695 102.026 168.456 102.164C168.218 102.303 168.136 102.609 168.275 102.848L169.14 102.346ZM171.059 108.018C171.182 108.266 171.483 108.366 171.73 108.243C171.977 108.119 172.077 107.819 171.954 107.572L171.059 108.018ZM174.446 112.962C174.337 112.708 174.043 112.59 173.789 112.698C173.535 112.807 173.418 113.101 173.526 113.355L174.446 112.962ZM175.681 118.803C175.776 119.062 176.063 119.196 176.322 119.101C176.581 119.007 176.715 118.72 176.62 118.46L175.681 118.803ZM178.511 124.094C178.43 123.83 178.15 123.681 177.886 123.763C177.622 123.844 177.474 124.124 177.555 124.388L178.511 124.094ZM179.143 130.033C179.211 130.301 179.483 130.462 179.751 130.394C180.018 130.326 180.18 130.053 180.112 129.786L179.143 130.033ZM181.445 135.561C181.389 135.29 181.124 135.116 180.854 135.172C180.583 135.228 180.409 135.493 180.465 135.763L181.445 135.561ZM181.527 141.549C181.571 141.821 181.828 142.007 182.1 141.963C182.373 141.919 182.558 141.662 182.515 141.39L181.527 141.549ZM183.327 147.253C183.295 146.978 183.047 146.782 182.773 146.814C182.498 146.846 182.302 147.094 182.334 147.369L183.327 147.253ZM182.892 153.226C182.913 153.502 183.152 153.708 183.428 153.688C183.703 153.668 183.91 153.428 183.89 153.153L182.892 153.226ZM184.203 159.064C184.194 158.788 183.963 158.571 183.687 158.58C183.411 158.589 183.194 158.82 183.203 159.096L184.203 159.064ZM183.268 164.977C183.265 165.253 183.487 165.479 183.763 165.482C184.039 165.485 184.265 165.263 184.268 164.987L183.268 164.977ZM184.085 170.905C184.099 170.629 183.887 170.394 183.611 170.38C183.336 170.365 183.101 170.577 183.086 170.853L184.085 170.905ZM182.654 176.721C182.627 176.996 182.829 177.24 183.104 177.267C183.379 177.293 183.623 177.091 183.649 176.817L182.654 176.721ZM182.958 182.686C182.997 182.413 182.806 182.16 182.533 182.121C182.259 182.083 182.006 182.274 181.968 182.547L182.958 182.686ZM181.016 188.363C180.965 188.635 181.144 188.896 181.416 188.947C181.687 188.998 181.948 188.819 181.999 188.548L181.016 188.363ZM180.771 194.334C180.835 194.066 180.669 193.796 180.4 193.732C180.131 193.668 179.862 193.834 179.798 194.103L180.771 194.334ZM178.295 199.787C178.217 200.052 178.369 200.329 178.634 200.407C178.899 200.484 179.177 200.332 179.254 200.067L178.295 199.787ZM177.437 205.717C177.529 205.457 177.392 205.171 177.132 205.079C176.871 204.988 176.586 205.124 176.494 205.385L177.437 205.717ZM174.396 210.837C174.289 211.092 174.409 211.385 174.664 211.491C174.918 211.598 175.211 211.478 175.318 211.224L174.396 210.837ZM172.843 216.645C172.966 216.398 172.865 216.098 172.618 215.975C172.37 215.852 172.07 215.953 171.947 216.201L172.843 216.645ZM169.166 221.36C169.026 221.598 169.107 221.904 169.345 222.044C169.583 222.183 169.889 222.103 170.029 221.865L169.166 221.36ZM166.852 226.858C167.009 226.63 166.952 226.319 166.725 226.162C166.498 226.005 166.186 226.062 166.029 226.289L166.852 226.858ZM162.492 230.981C162.317 231.194 162.347 231.509 162.561 231.685C162.774 231.86 163.089 231.829 163.264 231.616L162.492 230.981ZM159.293 236.028C159.487 235.831 159.485 235.515 159.289 235.321C159.092 235.127 158.776 235.129 158.582 235.325L159.293 236.028ZM154.285 239.276C154.073 239.453 154.044 239.768 154.22 239.981C154.397 240.193 154.712 240.222 154.924 240.045L154.285 239.276ZM150.155 243.609C150.385 243.455 150.447 243.145 150.293 242.915C150.14 242.686 149.83 242.624 149.6 242.777L150.155 243.609ZM144.582 245.744C144.337 245.871 144.242 246.173 144.369 246.418C144.496 246.663 144.798 246.759 145.043 246.632L144.582 245.744ZM139.603 249.078C139.861 248.979 139.99 248.69 139.891 248.432C139.792 248.174 139.503 248.045 139.245 248.144L139.603 249.078ZM133.704 249.922C133.436 249.992 133.276 250.265 133.346 250.532C133.416 250.799 133.689 250.96 133.956 250.89L133.704 249.922ZM128.151 252.075C128.424 252.034 128.613 251.78 128.572 251.506C128.531 251.233 128.276 251.045 128.003 251.086L128.151 252.075ZM122.123 251.657C121.847 251.67 121.634 251.904 121.647 252.18C121.66 252.456 121.894 252.669 122.17 252.656L122.123 251.657ZM116.31 252.659C116.585 252.671 116.819 252.457 116.831 252.181C116.844 251.906 116.63 251.672 116.354 251.66L116.31 252.659ZM110.501 251.147C110.227 251.112 109.976 251.305 109.941 251.579C109.905 251.853 110.098 252.103 110.372 252.139L110.501 251.147ZM104.538 251.157C104.809 251.213 105.073 251.039 105.129 250.768C105.185 250.498 105.011 250.233 104.74 250.178L104.538 251.157ZM99.0541 248.801C98.788 248.727 98.5125 248.883 98.4387 249.149C98.365 249.415 98.5209 249.691 98.787 249.765L99.0541 248.801ZM93.123 248.008C93.3842 248.097 93.6685 247.958 93.758 247.697C93.8475 247.436 93.7082 247.151 93.447 247.062L93.123 248.008ZM87.486 244.929C87.2244 244.841 86.9406 244.981 86.852 245.243C86.7634 245.504 86.9037 245.788 87.1652 245.877L87.486 244.929ZM81.4999 244.177C81.7673 244.246 82.0399 244.085 82.1088 243.817C82.1778 243.55 82.0169 243.277 81.7495 243.208L81.4999 244.177ZM75.7452 241.985C75.4718 241.946 75.2185 242.136 75.1794 242.41C75.1402 242.683 75.3301 242.936 75.6034 242.975L75.7452 241.985ZM69.8569 242.593C70.133 242.587 70.3518 242.358 70.3457 242.082C70.3395 241.806 70.1107 241.587 69.8347 241.593L69.8569 242.593ZM63.8509 242.481C63.5866 242.56 63.4371 242.84 63.5171 243.104C63.5971 243.368 63.8762 243.518 64.1405 243.438L63.8509 242.481ZM59.0292 246.161C59.2399 245.983 59.266 245.667 59.0875 245.456C58.909 245.246 58.5935 245.22 58.3828 245.398L59.0292 246.161ZM54.6135 250.276C54.4897 250.523 54.5893 250.823 54.8361 250.947C55.0829 251.071 55.3834 250.971 55.5073 250.725L54.6135 250.276ZM53.6642 256.306C53.7179 256.035 53.5418 255.772 53.271 255.718C53.0001 255.664 52.737 255.84 52.6833 256.111L53.6642 256.306ZM52.0302 262.139C52.0212 262.415 52.2376 262.646 52.5136 262.655C52.7896 262.664 53.0207 262.448 53.0297 262.172L52.0302 262.139ZM53.1636 268.043C53.1439 267.768 52.9046 267.561 52.6292 267.58C52.3537 267.6 52.1464 267.839 52.1661 268.115L53.1636 268.043ZM52.8331 274.142C52.8729 274.415 53.1268 274.604 53.4 274.565C53.6733 274.525 53.8624 274.271 53.8226 273.998L52.8331 274.142ZM54.8669 279.964C54.8123 279.693 54.5486 279.518 54.2779 279.572C54.0072 279.627 53.832 279.891 53.8866 280.161L54.8669 279.964ZM55.1837 285.958C55.2492 286.226 55.5198 286.391 55.7881 286.325C56.0563 286.26 56.2207 285.989 56.1551 285.721L55.1837 285.958ZM57.6995 291.604C57.6251 291.338 57.3493 291.183 57.0833 291.257C56.8174 291.332 56.6621 291.607 56.7364 291.873L57.6995 291.604ZM58.4149 297.578C58.4962 297.841 58.7761 297.989 59.04 297.908C59.3039 297.827 59.4519 297.547 59.3706 297.283L58.4149 297.578ZM61.2209 303.052C61.1337 302.79 60.8506 302.648 60.5886 302.735C60.3266 302.822 60.1848 303.105 60.272 303.368L61.2209 303.052ZM62.2108 309.014C62.3029 309.274 62.5885 309.41 62.8489 309.318C63.1092 309.226 63.2457 308.941 63.1536 308.68L62.2108 309.014ZM65.218 314.369C65.1218 314.11 64.8339 313.978 64.5751 314.075C64.3163 314.171 64.1845 314.459 64.2808 314.718L65.218 314.369ZM66.4031 320.303C66.5029 320.561 66.7926 320.689 67.05 320.589C67.3075 320.489 67.4353 320.199 67.3355 319.942L66.4031 320.303ZM69.5574 325.567C69.4544 325.311 69.1632 325.187 68.907 325.29C68.6508 325.393 68.5266 325.684 68.6295 325.94L69.5574 325.567ZM70.8904 331.477C70.9961 331.732 71.2886 331.853 71.5437 331.748C71.7988 331.642 71.9199 331.35 71.8142 331.094L70.8904 331.477ZM74.1489 336.651C74.0407 336.397 73.7471 336.279 73.493 336.387C73.2389 336.495 73.1206 336.789 73.2288 337.043L74.1489 336.651ZM75.6043 342.557C75.7146 342.81 76.0092 342.926 76.2624 342.815C76.5155 342.705 76.6313 342.41 76.521 342.157L75.6043 342.557ZM78.9416 347.654C78.8294 347.402 78.5339 347.289 78.2816 347.401C78.0293 347.513 77.9157 347.808 78.0279 348.061L78.9416 347.654ZM80.4942 353.555C80.6081 353.806 80.9044 353.918 81.1559 353.804C81.4075 353.69 81.5191 353.394 81.4051 353.142L80.4942 353.555ZM83.8977 358.602C83.7823 358.351 83.4853 358.241 83.2345 358.356C82.9836 358.472 82.8738 358.769 82.9892 359.02L83.8977 358.602ZM85.5205 364.482C85.6373 364.732 85.9348 364.84 86.185 364.724C86.4353 364.607 86.5435 364.309 86.4267 364.059L85.5205 364.482ZM88.9811 369.5C88.8632 369.251 88.5652 369.144 88.3155 369.262C88.0658 369.38 87.959 369.678 88.0769 369.927L88.9811 369.5ZM90.651 375.35C90.77 375.599 91.0684 375.705 91.3176 375.586C91.5668 375.467 91.6725 375.168 91.5536 374.919L90.651 375.35ZM94.1603 380.358C94.0406 380.109 93.7418 380.005 93.493 380.124C93.2441 380.244 93.1395 380.543 93.2593 380.792L94.1603 380.358ZM95.8593 386.175C95.9798 386.424 96.2788 386.528 96.5273 386.407C96.7758 386.287 96.8797 385.988 96.7593 385.739L95.8593 386.175ZM99.4049 391.185C99.284 390.936 98.9847 390.833 98.7364 390.954C98.4882 391.075 98.3849 391.374 98.5058 391.622L99.4049 391.185ZM101.122 396.986C101.243 397.234 101.542 397.337 101.791 397.216C102.039 397.095 102.142 396.795 102.02 396.547L101.122 396.986ZM104.679 401.991C104.558 401.743 104.259 401.64 104.011 401.761C103.762 401.882 103.66 402.181 103.781 402.43L104.679 401.991ZM106.409 407.819C106.53 408.067 106.829 408.17 107.078 408.05C107.326 407.929 107.429 407.629 107.308 407.381L106.409 407.819ZM109.924 412.773C109.804 412.525 109.505 412.42 109.256 412.54C109.007 412.661 108.903 412.959 109.023 413.208L109.924 412.773ZM111.652 418.692C111.771 418.941 112.069 419.047 112.318 418.929C112.568 418.81 112.674 418.512 112.555 418.262L111.652 418.692ZM115.084 423.652C114.968 423.401 114.671 423.292 114.42 423.408C114.169 423.524 114.06 423.821 114.176 424.071L115.084 423.652ZM116.598 429.449C116.708 429.702 117.003 429.818 117.256 429.708C117.509 429.598 117.625 429.303 117.514 429.05L116.598 429.449ZM119.799 434.624C119.703 434.365 119.415 434.234 119.156 434.33C118.897 434.427 118.766 434.714 118.862 434.973L119.799 434.624ZM120.185 440.504C120.1 440.767 120.244 441.049 120.506 441.134C120.769 441.219 121.051 441.075 121.136 440.813L120.185 440.504ZM115.621 438.684C115.823 438.873 116.139 438.863 116.328 438.662C116.517 438.461 116.508 438.144 116.306 437.955L115.621 438.684ZM112.128 433.671C111.941 433.468 111.624 433.455 111.421 433.642C111.218 433.829 111.205 434.145 111.392 434.348L112.128 433.671ZM107.28 429.736C107.461 429.945 107.777 429.967 107.986 429.786C108.194 429.605 108.216 429.289 108.035 429.08L107.28 429.736ZM104.332 424.75C104.154 424.539 103.838 424.512 103.627 424.69C103.416 424.868 103.389 425.183 103.567 425.394L104.332 424.75ZM99.4814 420.492C99.6571 420.705 99.9723 420.735 100.185 420.559C100.398 420.383 100.429 420.068 100.253 419.855L99.4814 420.492ZM96.6926 415.508C96.5183 415.294 96.2034 415.261 95.9892 415.435C95.775 415.61 95.7426 415.925 95.9169 416.139L96.6926 415.508ZM92.0591 411.369C92.2321 411.584 92.5469 411.618 92.762 411.445C92.9772 411.272 93.0113 410.957 92.8383 410.742L92.0591 411.369ZM88.8362 405.707C88.6672 405.489 88.3532 405.449 88.1348 405.618C87.9164 405.787 87.8764 406.101 88.0454 406.319L88.8362 405.707ZM84.36 401.391C84.5216 401.615 84.8342 401.666 85.0581 401.504C85.282 401.342 85.3325 401.03 85.1709 400.806L84.36 401.391ZM81.8187 395.989C81.665 395.759 81.3544 395.698 81.125 395.851C80.8956 396.005 80.8342 396.316 80.9879 396.545L81.8187 395.989ZM77.6175 391.292C77.7619 391.528 78.0697 391.602 78.3051 391.457C78.5405 391.313 78.6143 391.005 78.47 390.77L77.6175 391.292ZM75.4556 385.616C75.3214 385.375 75.0169 385.288 74.7756 385.422C74.5343 385.557 74.4475 385.861 74.5818 386.102L75.4556 385.616ZM71.7319 380.687C71.8545 380.935 72.1545 381.036 72.4019 380.913C72.6493 380.79 72.7504 380.49 72.6277 380.243L71.7319 380.687ZM70.0913 374.782C69.9816 374.529 69.6873 374.412 69.4338 374.522C69.1804 374.631 69.0639 374.926 69.1735 375.179L70.0913 374.782ZM66.9135 369.52C67.0083 369.779 67.2954 369.912 67.5548 369.818C67.8141 369.723 67.9476 369.436 67.8528 369.176L66.9135 369.52ZM65.9714 363.476C65.8936 363.211 65.6157 363.059 65.3507 363.137C65.0858 363.215 64.9342 363.493 65.012 363.757L65.9714 363.476ZM63.4943 357.809C63.5525 358.079 63.8185 358.251 64.0884 358.193C64.3583 358.134 64.53 357.868 64.4718 357.599L63.4943 357.809ZM63.4589 351.786C63.4228 351.512 63.1716 351.32 62.8978 351.356C62.624 351.392 62.4313 351.643 62.4674 351.917L63.4589 351.786ZM61.9463 345.723C61.9559 345.999 62.1873 346.215 62.4633 346.205C62.7393 346.196 62.9553 345.964 62.9457 345.688L61.9463 345.723ZM63.0582 339.691C63.0789 339.416 62.8723 339.176 62.597 339.155C62.3216 339.135 62.0817 339.341 62.061 339.617L63.0582 339.691ZM62.8845 333.606C62.8295 333.877 63.0042 334.141 63.2748 334.196C63.5454 334.251 63.8094 334.076 63.8644 333.805L62.8845 333.606ZM65.4758 328.048C65.5702 327.788 65.4364 327.501 65.1769 327.407C64.9174 327.313 64.6305 327.446 64.5361 327.706L65.4758 328.048ZM67.1311 322.108C66.993 322.347 67.0749 322.653 67.3141 322.791C67.5532 322.929 67.859 322.847 67.9971 322.608L67.1311 322.108ZM71.4707 317.768C71.6541 317.562 71.6354 317.246 71.429 317.063C71.2225 316.879 70.9065 316.898 70.7231 317.104L71.4707 317.768ZM75.3095 312.988C75.0838 313.147 75.0298 313.459 75.1889 313.685C75.348 313.911 75.66 313.965 75.8857 313.806L75.3095 312.988ZM81.1096 311.021C81.3678 310.923 81.4976 310.634 81.3996 310.376C81.3016 310.118 81.0128 309.988 80.7547 310.086L81.1096 311.021ZM86.7627 308.653C86.4881 308.682 86.2892 308.928 86.3186 309.203C86.3479 309.477 86.5942 309.676 86.8688 309.647L86.7627 308.653ZM92.7992 309.747C93.0728 309.785 93.325 309.593 93.3625 309.32C93.4 309.046 93.2087 308.794 92.9351 308.756L92.7992 309.747ZM98.9013 310.256C98.642 310.161 98.3548 310.294 98.2599 310.553C98.1649 310.813 98.2982 311.1 98.5575 311.195L98.9013 310.256ZM103.918 313.748C104.156 313.889 104.462 313.81 104.603 313.572C104.743 313.334 104.664 313.027 104.426 312.887L103.918 313.748ZM109.425 316.388C109.211 316.214 108.896 316.245 108.722 316.459C108.547 316.673 108.579 316.988 108.793 317.163L109.425 316.388ZM113.191 321.26C113.382 321.461 113.698 321.469 113.898 321.279C114.099 321.089 114.107 320.772 113.917 320.572L113.191 321.26ZM117.928 325.296C117.76 325.076 117.446 325.034 117.227 325.202C117.007 325.369 116.965 325.683 117.133 325.903L117.928 325.296ZM120.493 330.745C120.641 330.978 120.949 331.047 121.183 330.9C121.416 330.752 121.486 330.443 121.338 330.21L120.493 330.745ZM124.424 335.547C124.295 335.303 123.992 335.21 123.748 335.339C123.504 335.468 123.411 335.77 123.54 336.014L124.424 335.547ZM126.153 341.387C126.266 341.639 126.562 341.752 126.814 341.639C127.066 341.526 127.179 341.23 127.066 340.978L126.153 341.387ZM129.397 346.633C129.299 346.375 129.01 346.245 128.752 346.343C128.494 346.441 128.364 346.73 128.462 346.988L129.397 346.633ZM130.442 352.647C130.527 352.91 130.808 353.054 131.071 352.97C131.334 352.885 131.478 352.603 131.394 352.34L130.442 352.647ZM133.144 358.243C133.071 357.976 132.796 357.819 132.53 357.891C132.263 357.964 132.106 358.239 132.179 358.505L133.144 358.243ZM133.619 364.261C133.681 364.53 133.949 364.698 134.218 364.637C134.488 364.575 134.656 364.307 134.594 364.037L133.619 364.261ZM135.88 370.185C135.828 369.914 135.567 369.736 135.295 369.787C135.024 369.839 134.846 370.1 134.897 370.372L135.88 370.185ZM135.893 376.134C135.935 376.407 136.191 376.593 136.464 376.551C136.737 376.508 136.923 376.252 136.881 375.979L135.893 376.134ZM137.73 382.029C137.696 381.755 137.446 381.561 137.172 381.595C136.898 381.629 136.704 381.879 136.738 382.153L137.73 382.029ZM137.412 388.266C137.438 388.541 137.683 388.742 137.957 388.716C138.232 388.689 138.434 388.445 138.407 388.17L137.412 388.266ZM138.897 394.063C138.878 393.787 138.639 393.58 138.363 393.599C138.088 393.618 137.881 393.858 137.9 394.133L138.897 394.063ZM138.256 400.237C138.269 400.513 138.503 400.726 138.778 400.713C139.054 400.701 139.268 400.467 139.255 400.191L138.256 400.237ZM139.469 406.365C139.463 406.088 139.234 405.87 138.958 405.876C138.682 405.883 138.463 406.112 138.47 406.388L139.469 406.365ZM138.548 412.266C138.549 412.542 138.773 412.765 139.049 412.764C139.326 412.763 139.549 412.539 139.548 412.263L138.548 412.266ZM139.508 418.355C139.512 418.079 139.292 417.852 139.016 417.847C138.74 417.843 138.512 418.063 138.508 418.339L139.508 418.355ZM138.346 424.61C138.336 424.886 138.552 425.118 138.828 425.127C139.104 425.137 139.335 424.921 139.345 424.645L138.346 424.61ZM139.089 430.512C139.103 430.236 138.891 430.001 138.615 429.986C138.34 429.972 138.104 430.184 138.09 430.46L139.089 430.512ZM137.731 436.43C137.713 436.706 137.921 436.944 138.196 436.963C138.472 436.982 138.71 436.774 138.729 436.498L137.731 436.43ZM138.262 442.648C138.285 442.373 138.08 442.131 137.805 442.108C137.53 442.085 137.288 442.289 137.265 442.564L138.262 442.648ZM136.702 448.733C136.675 449.008 136.876 449.252 137.15 449.28C137.425 449.307 137.67 449.106 137.697 448.831L136.702 448.733ZM137.081 454.669C137.111 454.395 136.914 454.147 136.64 454.116C136.365 454.086 136.118 454.283 136.087 454.557L137.081 454.669ZM135.378 460.518C135.343 460.792 135.538 461.042 135.812 461.077C136.086 461.111 136.336 460.917 136.37 460.643L135.378 460.518ZM135.563 466.754C135.601 466.48 135.41 466.228 135.137 466.19C134.863 466.152 134.611 466.343 134.573 466.617L135.563 466.754ZM133.677 472.805C133.635 473.078 133.823 473.333 134.096 473.374C134.369 473.415 134.624 473.227 134.666 472.954L133.677 472.805ZM133.76 478.735C133.804 478.462 133.619 478.205 133.346 478.161C133.074 478.117 132.817 478.302 132.773 478.574L133.76 478.735ZM131.785 484.459C131.737 484.731 131.92 484.99 132.192 485.037C132.464 485.084 132.723 484.902 132.77 484.63L131.785 484.459ZM131.695 490.641C131.745 490.369 131.565 490.108 131.294 490.058C131.022 490.008 130.761 490.188 130.711 490.459L131.695 490.641ZM129.551 496.576C129.498 496.847 129.675 497.11 129.946 497.163C130.217 497.216 130.48 497.039 130.533 496.768L129.551 496.576ZM129.344 502.711C129.399 502.441 129.225 502.177 128.954 502.121C128.684 502.066 128.42 502.24 128.364 502.511L129.344 502.711ZM127.155 508.277C127.097 508.547 127.269 508.813 127.539 508.871C127.809 508.929 128.075 508.757 128.133 508.487L127.155 508.277ZM126.846 514.359C126.906 514.09 126.737 513.823 126.467 513.762C126.198 513.702 125.93 513.872 125.87 514.141L126.846 514.359ZM124.509 520.104C124.446 520.373 124.613 520.642 124.882 520.704C125.151 520.767 125.42 520.6 125.483 520.331L124.509 520.104ZM124.042 526.401C124.107 526.133 123.942 525.862 123.673 525.798C123.405 525.733 123.135 525.898 123.07 526.166L124.042 526.401ZM121.622 532.048C121.555 532.316 121.718 532.587 121.986 532.654C122.253 532.721 122.525 532.558 122.592 532.291L121.622 532.048ZM121.139 538.004C121.208 537.737 121.047 537.464 120.78 537.395C120.512 537.326 120.239 537.486 120.17 537.754L121.139 538.004ZM118.651 543.544C118.58 543.811 118.739 544.085 119.006 544.156C119.273 544.227 119.547 544.068 119.618 543.801L118.651 543.544ZM118.028 549.682C118.101 549.416 117.945 549.141 117.678 549.068C117.412 548.995 117.137 549.152 117.064 549.418L118.028 549.682ZM115.407 555.377C115.332 555.643 115.487 555.919 115.753 555.994C116.019 556.069 116.295 555.914 116.37 555.648L115.407 555.377ZM114.645 561.686C114.722 561.421 114.569 561.144 114.304 561.067C114.039 560.99 113.761 561.143 113.684 561.408L114.645 561.686ZM112.042 567.017C111.963 567.282 112.114 567.56 112.379 567.638C112.644 567.717 112.922 567.566 113 567.301L112.042 567.017ZM111.295 572.988C111.376 572.723 111.226 572.444 110.962 572.364C110.698 572.284 110.419 572.433 110.338 572.698L111.295 572.988ZM108.575 578.45C108.493 578.714 108.64 578.994 108.904 579.076C109.168 579.158 109.448 579.01 109.53 578.747L108.575 578.45ZM107.703 584.578C107.786 584.315 107.64 584.034 107.377 583.95C107.114 583.867 106.833 584.013 106.749 584.276L107.703 584.578ZM104.862 590.175C104.777 590.437 104.921 590.719 105.184 590.804C105.446 590.889 105.728 590.745 105.813 590.482L104.862 590.175ZM103.866 596.446C103.952 596.184 103.81 595.901 103.547 595.814C103.285 595.728 103.002 595.87 102.916 596.133L103.866 596.446ZM101.069 601.682C100.981 601.944 101.122 602.228 101.384 602.316C101.645 602.404 101.929 602.263 102.017 602.001L101.069 601.682ZM100.114 607.618C100.203 607.357 100.064 607.072 99.8025 606.983C99.5412 606.894 99.257 607.033 99.1677 607.295L100.114 607.618ZM97.2119 612.969C97.1212 613.23 97.2592 613.515 97.52 613.606C97.7809 613.696 98.0658 613.558 98.1565 613.298L97.2119 612.969ZM96.1439 619.04C96.2359 618.78 96.0994 618.494 95.839 618.402C95.5787 618.31 95.293 618.447 95.201 618.707L96.1439 619.04ZM93.1345 624.507C93.0412 624.767 93.1762 625.054 93.4361 625.147C93.696 625.24 93.9823 625.105 94.0757 624.845L93.1345 624.507ZM91.9513 630.714C92.046 630.455 91.9124 630.168 91.653 630.073C91.3935 629.978 91.1065 630.112 91.0119 630.371L91.9513 630.714ZM88.8614 636.246C88.7669 636.505 88.9007 636.792 89.1601 636.887C89.4196 636.981 89.7065 636.847 89.801 636.588L88.8614 636.246ZM87.7072 642.393C87.8001 642.133 87.6646 641.846 87.4045 641.754C87.1445 641.661 86.8583 641.796 86.7654 642.056L87.7072 642.393ZM84.722 647.832C84.6307 648.093 84.7679 648.378 85.0285 648.47C85.2892 648.561 85.5744 648.424 85.6657 648.163L84.722 647.832ZM83.6763 653.899C83.766 653.638 83.627 653.353 83.3658 653.263C83.1046 653.174 82.8202 653.313 82.7305 653.574L83.6763 653.899ZM80.7906 659.281C80.7026 659.543 80.8434 659.826 81.1051 659.914C81.3668 660.002 81.6504 659.862 81.7384 659.6L80.7906 659.281ZM79.8516 665.266C79.938 665.004 79.7955 664.721 79.5332 664.635C79.2709 664.549 78.9883 664.691 78.9018 664.953L79.8516 665.266ZM77.0637 670.591C76.9789 670.854 77.1232 671.136 77.386 671.22C77.6488 671.305 77.9306 671.161 78.0154 670.898L77.0637 670.591ZM76.143 676.768C76.2261 676.505 76.0799 676.224 75.8166 676.141C75.5532 676.058 75.2724 676.204 75.1893 676.467L76.143 676.768ZM73.3575 682.345C73.2762 682.609 73.4243 682.888 73.6882 682.97C73.9521 683.051 74.2319 682.903 74.3132 682.639L73.3575 682.345ZM72.5382 688.471C72.6177 688.206 72.4678 687.928 72.2034 687.848C71.9389 687.769 71.6601 687.919 71.5805 688.183L72.5382 688.471ZM69.8579 693.982C69.7802 694.247 69.9319 694.525 70.1969 694.602C70.4619 694.68 70.7397 694.528 70.8174 694.263L69.8579 693.982ZM69.1504 700.017C69.2264 699.751 69.0728 699.474 68.8073 699.398C68.5418 699.322 68.265 699.476 68.189 699.742L69.1504 700.017ZM66.5734 705.462C66.4992 705.728 66.6547 706.003 66.9207 706.078C67.1867 706.152 67.4625 705.996 67.5366 705.73L66.5734 705.462ZM65.923 711.598C65.9953 711.331 65.8378 711.056 65.5713 710.984C65.3048 710.912 65.0301 711.069 64.9578 711.336L65.923 711.598ZM63.3641 717.296C63.2937 717.563 63.4532 717.837 63.7202 717.907C63.9872 717.978 64.2607 717.818 64.3311 717.551L63.3641 717.296ZM62.7968 723.46C62.8652 723.193 62.7038 722.92 62.4363 722.852C62.1687 722.783 61.8964 722.945 61.8279 723.212L62.7968 723.46ZM60.3487 729.084C60.2822 729.352 60.4456 729.623 60.7136 729.689C60.9816 729.756 61.2528 729.592 61.3193 729.324L60.3487 729.084ZM59.8981 735.144C59.9626 734.875 59.7973 734.605 59.5288 734.541C59.2603 734.476 58.9903 734.642 58.9258 734.91L59.8981 735.144ZM57.5585 740.692C57.4959 740.961 57.6632 741.229 57.9322 741.292C58.2011 741.355 58.4699 741.187 58.5325 740.918L57.5585 740.692ZM57.1722 746.868C57.2327 746.599 57.0634 746.332 56.7939 746.271C56.5245 746.21 56.257 746.38 56.1965 746.649L57.1722 746.868ZM54.8691 752.669C54.8107 752.939 54.9821 753.205 55.252 753.264C55.5219 753.322 55.788 753.151 55.8464 752.881L54.8691 752.669ZM54.5807 758.842C54.637 758.572 54.4634 758.307 54.1931 758.251C53.9228 758.195 53.658 758.368 53.6017 758.639L54.5807 758.842ZM52.3936 764.557C52.3394 764.828 52.515 765.091 52.7858 765.145C53.0566 765.2 53.32 765.024 53.3742 764.753L52.3936 764.557ZM52.2261 770.613C52.2781 770.342 52.1005 770.08 51.8293 770.027C51.5581 769.975 51.296 770.153 51.244 770.424L52.2261 770.613ZM50.1488 776.259C50.0989 776.531 50.2787 776.792 50.5503 776.841C50.8219 776.891 51.0825 776.712 51.1323 776.44L50.1488 776.259ZM50.0392 782.539C50.0868 782.267 49.9048 782.008 49.6328 781.96C49.3608 781.913 49.1017 782.094 49.0541 782.366L50.0392 782.539ZM48.0226 788.416C47.9773 788.688 48.1615 788.946 48.4339 788.991C48.7063 789.036 48.9638 788.852 49.0091 788.58L48.0226 788.416ZM48.0411 794.563C48.084 794.29 47.8977 794.034 47.6249 793.991C47.3521 793.948 47.0962 794.134 47.0532 794.407L48.0411 794.563ZM46.1451 800.34C46.1045 800.613 46.293 800.868 46.5662 800.908C46.8393 800.949 47.0936 800.76 47.1343 800.487L46.1451 800.34ZM46.2877 806.353C46.326 806.08 46.1353 805.827 45.8618 805.789C45.5884 805.75 45.3356 805.941 45.2974 806.215L46.2877 806.353ZM44.4736 812.301C44.4378 812.575 44.6307 812.826 44.9045 812.862C45.1784 812.898 45.4293 812.705 45.4651 812.431L44.4736 812.301ZM44.6964 818.528C44.7297 818.254 44.5345 818.004 44.2603 817.971C43.9862 817.938 43.737 818.133 43.7037 818.407L44.6964 818.528ZM42.9986 824.447C42.9679 824.721 43.1654 824.968 43.4398 824.999C43.7142 825.03 43.9616 824.832 43.9924 824.558L42.9986 824.447ZM43.352 830.521C43.3802 830.247 43.1804 830.001 42.9057 829.973C42.631 829.945 42.3854 830.144 42.3572 830.419L43.352 830.521ZM41.7784 836.325C41.7527 836.6 41.9548 836.844 42.2298 836.869C42.5047 836.895 42.7484 836.693 42.7741 836.418L41.7784 836.325ZM42.2337 842.532C42.2567 842.257 42.0522 842.016 41.777 841.993C41.5018 841.97 41.2601 842.174 41.2372 842.449L42.2337 842.532ZM40.7564 848.581C40.7362 848.856 40.9431 849.096 41.2185 849.116C41.4939 849.137 41.7336 848.93 41.7538 848.654L40.7564 848.581ZM41.3406 854.7C41.3581 854.424 41.1488 854.186 40.8732 854.169C40.5976 854.151 40.3601 854.361 40.3426 854.636L41.3406 854.7ZM39.9945 860.615C39.9798 860.891 40.1915 861.126 40.4672 861.141C40.743 861.155 40.9784 860.944 40.9931 860.668L39.9945 860.615ZM40.7082 866.593C40.7201 866.317 40.506 866.084 40.2302 866.072C39.9543 866.06 39.721 866.274 39.7092 866.55L40.7082 866.593ZM39.4763 872.756C39.4675 873.032 39.684 873.262 39.96 873.271C40.236 873.28 40.467 873.064 40.4758 872.788L39.4763 872.756ZM40.3132 878.894C40.3191 878.618 40.1 878.389 39.8239 878.384C39.5478 878.378 39.3193 878.597 39.3135 878.873L40.3132 878.894ZM39.219 884.902C39.2162 885.178 39.4378 885.404 39.7139 885.407C39.99 885.41 40.2162 885.188 40.219 884.912L39.219 884.902ZM40.1914 890.841C40.1911 890.565 39.9671 890.341 39.6909 890.341C39.4148 890.342 39.1911 890.566 39.1914 890.842L40.1914 890.841ZM39.2323 896.969C39.2358 897.245 39.4624 897.466 39.7386 897.462C40.0147 897.459 40.2357 897.232 40.2323 896.956L39.2323 896.969ZM40.3457 903.096C40.339 902.82 40.1097 902.601 39.8337 902.608C39.5576 902.615 39.3393 902.844 39.346 903.12L40.3457 903.096ZM39.5304 909.169C39.5405 909.445 39.7724 909.661 40.0484 909.651C40.3243 909.641 40.5399 909.409 40.5298 909.133L39.5304 909.169ZM40.7824 915.067C40.769 914.791 40.5345 914.578 40.2587 914.592C39.9829 914.605 39.7702 914.839 39.7836 915.115L40.7824 915.067ZM40.1184 921.2C40.1353 921.475 40.3724 921.685 40.6481 921.668C40.9237 921.651 41.1334 921.414 41.1165 921.139L40.1184 921.2ZM41.5338 927.273C41.5132 926.998 41.2733 926.791 40.9979 926.812C40.7225 926.832 40.516 927.072 40.5365 927.348L41.5338 927.273ZM41.0269 933.376C41.0511 933.651 41.2937 933.854 41.5688 933.83C41.8439 933.806 42.0473 933.563 42.023 933.288L41.0269 933.376ZM42.5819 939.182C42.5539 938.907 42.3086 938.707 42.0339 938.735C41.7591 938.763 41.5591 939.008 41.587 939.283L42.5819 939.182ZM42.2524 945.397C42.2842 945.671 42.5324 945.868 42.8067 945.836C43.081 945.804 43.2775 945.556 43.2457 945.282L42.2524 945.397ZM43.9965 951.358C43.9606 951.085 43.7095 950.892 43.4357 950.928C43.1619 950.963 42.9691 951.215 43.005 951.488L43.9965 951.358ZM43.8298 957.438C43.8698 957.711 44.1237 957.9 44.3969 957.86C44.6702 957.82 44.8593 957.566 44.8193 957.293L43.8298 957.438ZM45.7249 963.171C45.6808 962.898 45.424 962.713 45.1514 962.757C44.8788 962.801 44.6937 963.058 44.7378 963.331L45.7249 963.171ZM45.7819 969.457C45.8306 969.729 46.0904 969.91 46.3622 969.861C46.634 969.813 46.8149 969.553 46.7663 969.281L45.7819 969.457ZM47.8812 975.223C47.8279 974.952 47.5651 974.775 47.2942 974.828C47.0232 974.882 46.8467 975.144 46.8999 975.415L47.8812 975.223ZM48.0879 981.204C48.1458 981.474 48.4115 981.646 48.6816 981.588C48.9516 981.531 49.1236 981.265 49.0657 980.995L48.0879 981.204ZM50.4198 987.041C50.3569 986.772 50.0879 986.605 49.819 986.668C49.5501 986.731 49.3831 987 49.446 987.269L50.4198 987.041ZM50.8896 993.185C50.9577 993.452 51.2298 993.614 51.4975 993.546C51.7651 993.478 51.9269 993.206 51.8588 992.938L50.8896 993.185ZM53.3662 998.631C53.2929 998.365 53.0176 998.208 52.7514 998.282C52.4852 998.355 52.3288 998.63 52.4021 998.896L53.3662 998.631ZM54.1186 1004.87C54.1978 1005.14 54.4764 1005.29 54.741 1005.21C55.0055 1005.13 55.1558 1004.85 55.0766 1004.59L54.1186 1004.87ZM56.8755 1010.36C56.7903 1010.1 56.5083 1009.95 56.2456 1010.04C55.9829 1010.12 55.839 1010.4 55.9242 1010.67L56.8755 1010.36ZM57.8227 1016.29C57.9141 1016.55 58.1995 1016.69 58.46 1016.6C58.7206 1016.51 58.8577 1016.22 58.7662 1015.96L57.8227 1016.29ZM60.9003 1021.79C60.8018 1021.53 60.5128 1021.4 60.2549 1021.5C59.9969 1021.6 59.8676 1021.89 59.9661 1022.15L60.9003 1021.79ZM62.1716 1027.69C62.2773 1027.95 62.5699 1028.07 62.8249 1027.96C63.08 1027.86 63.2011 1027.56 63.0953 1027.31L62.1716 1027.69ZM65.5291 1032.92C65.4152 1032.67 65.1189 1032.56 64.8674 1032.68C64.6158 1032.79 64.5043 1033.09 64.6182 1033.34L65.5291 1032.92ZM67.2122 1038.81C67.335 1039.06 67.6351 1039.16 67.8824 1039.03C68.1297 1038.91 68.2307 1038.61 68.1079 1038.36L67.2122 1038.81ZM70.9004 1043.72C70.7676 1043.48 70.4637 1043.39 70.2216 1043.52C69.9794 1043.65 69.8908 1043.96 70.0235 1044.2L70.9004 1043.72ZM73.0702 1049.46C73.2143 1049.7 73.522 1049.77 73.7576 1049.63C73.9932 1049.49 74.0673 1049.18 73.9232 1048.94L73.0702 1049.46ZM77.2289 1054.02C77.0715 1053.8 76.76 1053.74 76.5331 1053.9C76.3062 1054.05 76.25 1054.37 76.4074 1054.59L77.2289 1054.02ZM79.9753 1059.38C80.1483 1059.59 80.4631 1059.63 80.6783 1059.46C80.8934 1059.28 80.9276 1058.97 80.7545 1058.75L79.9753 1059.38ZM84.8231 1063.35C84.6296 1063.16 84.313 1063.15 84.116 1063.35C83.919 1063.54 83.9161 1063.86 84.1096 1064.05L84.8231 1063.35ZM88.6865 1068.13C88.9062 1068.3 89.2199 1068.26 89.3872 1068.04C89.5546 1067.82 89.5121 1067.5 89.2925 1067.34L88.6865 1068.13ZM94.3458 1070.39C94.0926 1070.28 93.798 1070.39 93.6879 1070.65C93.5777 1070.9 93.6936 1071.19 93.9469 1071.3L94.3458 1070.39ZM100.01 1072.57C100.286 1072.56 100.499 1072.32 100.487 1072.05C100.474 1071.77 100.24 1071.56 99.9644 1071.57L100.01 1072.57ZM105.199 1069.55C104.985 1069.73 104.952 1070.04 105.127 1070.25C105.301 1070.47 105.616 1070.5 105.83 1070.33L105.199 1069.55ZM109.634 1065.36C109.758 1065.12 109.659 1064.82 109.412 1064.69C109.166 1064.57 108.865 1064.67 108.741 1064.92L109.634 1065.36ZM110.752 1059.35C110.684 1059.62 110.846 1059.89 111.114 1059.96C111.381 1060.03 111.653 1059.87 111.721 1059.6L110.752 1059.35ZM112.798 1053.74C112.831 1053.47 112.637 1053.22 112.363 1053.19C112.089 1053.15 111.839 1053.35 111.805 1053.62L112.798 1053.74ZM112.267 1047.59C112.258 1047.87 112.474 1048.1 112.75 1048.11C113.026 1048.12 113.257 1047.91 113.267 1047.63L112.267 1047.59ZM113.276 1041.5C113.268 1041.22 113.038 1041 112.762 1041.01C112.486 1041.02 112.269 1041.25 112.277 1041.53L113.276 1041.5ZM111.953 1035.58C111.974 1035.85 112.215 1036.06 112.49 1036.04C112.765 1036.02 112.971 1035.78 112.95 1035.5L111.953 1035.58ZM112.347 1029.42C112.314 1029.14 112.065 1028.95 111.791 1028.98C111.517 1029.01 111.321 1029.26 111.354 1029.53L112.347 1029.42ZM110.533 1023.52C110.575 1023.79 110.83 1023.98 111.103 1023.94C111.376 1023.9 111.564 1023.64 111.522 1023.37L110.533 1023.52ZM110.537 1017.49C110.487 1017.22 110.227 1017.04 109.955 1017.09C109.684 1017.14 109.503 1017.4 109.553 1017.67L110.537 1017.49ZM108.342 1011.48C108.399 1011.75 108.664 1011.93 108.934 1011.87C109.204 1011.81 109.378 1011.55 109.321 1011.28L108.342 1011.48ZM108.067 1005.57C108.004 1005.3 107.736 1005.14 107.467 1005.2C107.198 1005.26 107.03 1005.53 107.092 1005.8L108.067 1005.57ZM105.681 999.949C105.748 1000.22 106.02 1000.38 106.288 1000.31C106.556 1000.24 106.718 999.973 106.651 999.705L105.681 999.949ZM105.05 993.582C104.977 993.315 104.703 993.158 104.436 993.23C104.17 993.302 104.012 993.577 104.084 993.843L105.05 993.582ZM102.512 988.222C102.589 988.487 102.866 988.64 103.131 988.564C103.396 988.487 103.55 988.21 103.473 987.945L102.512 988.222ZM101.774 982.205C101.694 981.941 101.415 981.792 101.15 981.872C100.886 981.952 100.737 982.232 100.817 982.496L101.774 982.205ZM98.9719 976.573C99.0559 976.837 99.3372 976.982 99.6003 976.898C99.8634 976.814 100.009 976.532 99.9246 976.269L98.9719 976.573ZM98.026 970.452C97.9387 970.19 97.6555 970.049 97.3935 970.136C97.1316 970.223 96.99 970.506 97.0773 970.768L98.026 970.452ZM95.1921 965.221C95.2825 965.482 95.5672 965.62 95.8282 965.53C96.0891 965.439 96.2275 965.155 96.1371 964.894L95.1921 965.221ZM94.124 959.181C94.0308 958.921 93.7445 958.786 93.4846 958.879C93.2246 958.973 93.0895 959.259 93.1827 959.519L94.124 959.181ZM91.0467 953.662C91.1427 953.921 91.4304 954.053 91.6893 953.957C91.9483 953.861 92.0803 953.574 91.9843 953.315L91.0467 953.662ZM89.713 947.293C89.6139 947.036 89.3246 946.907 89.0668 947.006C88.8091 947.105 88.6805 947.395 88.7797 947.652L89.713 947.293ZM86.4975 941.843C86.6004 942.099 86.8915 942.224 87.1478 942.121C87.404 942.018 87.5284 941.727 87.4255 941.471L86.4975 941.843ZM85.1639 935.961C85.057 935.706 84.7639 935.586 84.5093 935.693C84.2547 935.8 84.1349 936.093 84.2419 936.348L85.1639 935.961ZM82.0131 931.162C82.1244 931.415 82.4195 931.529 82.6722 931.418C82.9249 931.307 83.0397 931.012 82.9284 930.759L82.0131 931.162ZM80.3959 925.164C80.2792 924.914 79.9818 924.805 79.7315 924.922C79.4812 925.039 79.3728 925.336 79.4895 925.586L80.3959 925.164ZM76.831 920.06C76.9539 920.308 77.254 920.408 77.5013 920.285C77.7486 920.162 77.8493 919.862 77.7264 919.615L76.831 920.06ZM75.0972 914.506C74.9673 914.262 74.6644 914.17 74.4208 914.3C74.1771 914.43 74.0849 914.733 74.2149 914.977L75.0972 914.506ZM71.3007 909.737C71.4394 909.976 71.7455 910.057 71.9842 909.918C72.223 909.779 72.304 909.473 72.1652 909.234L71.3007 909.737ZM68.9638 904.004C68.8139 903.772 68.5044 903.705 68.2725 903.855C68.0406 904.005 67.9741 904.315 68.1241 904.546L68.9638 904.004ZM64.997 899.984C65.1598 900.207 65.4726 900.256 65.6957 900.093C65.9187 899.931 65.9676 899.618 65.8048 899.395L64.997 899.984ZM61.8191 894.391C61.6369 894.183 61.321 894.162 61.1134 894.345C60.9059 894.527 60.8854 894.843 61.0675 895.05L61.8191 894.391ZM57.1299 891.04C57.3357 891.225 57.6518 891.207 57.836 891.001C58.0202 890.796 58.0027 890.48 57.7969 890.295L57.1299 891.04ZM52.8075 886.619C52.5681 886.482 52.2624 886.564 52.1248 886.804C51.9872 887.043 52.0697 887.349 52.3091 887.486L52.8075 886.619ZM46.9352 885.438C47.207 885.487 47.4669 885.306 47.5158 885.034C47.5647 884.763 47.3839 884.503 47.1122 884.454L46.9352 885.438ZM41.0925 884.741C40.827 884.817 40.6733 885.094 40.7491 885.359C40.825 885.625 41.1017 885.779 41.3672 885.703L41.0925 884.741ZM36.3362 888.326C36.5551 888.158 36.5962 887.844 36.428 887.625C36.2597 887.406 35.9458 887.365 35.7269 887.533L36.3362 888.326ZM31.3844 891.847C31.2104 892.061 31.243 892.376 31.4574 892.55C31.6718 892.724 31.9867 892.692 32.1608 892.477L31.3844 891.847ZM28.7702 897.377C28.912 897.14 28.835 896.833 28.5981 896.692C28.3611 896.55 28.0541 896.627 27.9122 896.864L28.7702 897.377ZM25.1363 902.057C25.0168 902.306 25.1217 902.605 25.3706 902.725C25.6196 902.844 25.9183 902.739 26.0378 902.49L25.1363 902.057ZM23.5864 908.115C23.6884 907.858 23.5629 907.567 23.3063 907.466C23.0496 907.364 22.759 907.489 22.6571 907.746L23.5864 908.115ZM20.6501 913.206C20.5611 913.468 20.7008 913.752 20.9622 913.841C21.2236 913.93 21.5077 913.79 21.5967 913.529L20.6501 913.206ZM19.7388 919.4C19.8168 919.135 19.6652 918.857 19.4003 918.779C19.1354 918.701 18.8575 918.852 18.7795 919.117L19.7388 919.4ZM17.2332 924.717C17.1639 924.985 17.3245 925.257 17.5918 925.327C17.8591 925.396 18.132 925.235 18.2012 924.968L17.2332 924.717ZM16.7682 930.856C16.8298 930.587 16.6614 930.319 16.3922 930.257C16.123 930.196 15.8549 930.364 15.7934 930.633L16.7682 930.856ZM14.5425 936.441C14.4876 936.712 14.6625 936.976 14.9331 937.031C15.2037 937.085 15.4676 936.911 15.5225 936.64L14.5425 936.441ZM14.4044 942.483C14.4534 942.211 14.2728 941.951 14.001 941.902C13.7293 941.853 13.4693 942.033 13.4202 942.305L14.4044 942.483ZM12.3982 948.32C12.3546 948.592 12.5403 948.849 12.8129 948.892C13.0856 948.936 13.342 948.75 13.3856 948.478L12.3982 948.32ZM12.5116 954.272C12.5504 953.999 12.3603 953.746 12.0869 953.707C11.8135 953.668 11.5603 953.858 11.5215 954.131L12.5116 954.272ZM10.7243 960.099C10.6899 960.373 10.8842 960.623 11.1582 960.657C11.4322 960.692 11.6822 960.498 11.7165 960.224L10.7243 960.099ZM11.0154 966.19C11.0456 965.916 10.8475 965.669 10.573 965.638C10.2985 965.608 10.0515 965.806 10.0214 966.081L11.0154 966.19ZM9.41637 971.975C9.39009 972.25 9.59163 972.494 9.86652 972.52C10.1414 972.547 10.3856 972.345 10.4118 972.07L9.41637 971.975ZM9.88092 978.057C9.90346 977.782 9.69862 977.54 9.4234 977.518C9.14818 977.495 8.9068 977.7 8.88426 977.975L9.88092 978.057ZM8.43352 983.958C8.41454 984.233 8.62248 984.472 8.89797 984.491C9.17346 984.51 9.41217 984.302 9.43116 984.026L8.43352 983.958ZM9.06002 989.948C9.0756 989.672 8.86474 989.436 8.58904 989.421C8.31333 989.405 8.0772 989.616 8.06161 989.892L9.06002 989.948ZM7.75872 995.894C7.74646 996.17 7.96015 996.404 8.23602 996.416C8.51189 996.428 8.74547 996.215 8.75773 995.939L7.75872 995.894ZM8.52709 1001.92C8.53611 1001.65 8.31969 1001.41 8.0437 1001.41C7.7677 1001.4 7.53665 1001.61 7.52762 1001.89L8.52709 1001.92ZM7.36702 1007.84C7.36114 1008.12 7.58019 1008.35 7.85627 1008.35C8.13235 1008.36 8.36092 1008.14 8.36679 1007.87L7.36702 1007.84ZM8.27352 1013.85C8.27626 1013.57 8.05464 1013.35 7.77851 1013.34C7.50238 1013.34 7.27631 1013.56 7.27357 1013.84L8.27352 1013.85ZM7.24779 1019.84C7.24816 1020.12 7.47232 1020.34 7.74846 1020.34C8.0246 1020.34 8.24816 1020.11 8.24779 1019.84L7.24779 1019.84ZM8.289 1025.8C8.28555 1025.52 8.05891 1025.3 7.78279 1025.3C7.50667 1025.31 7.28563 1025.53 7.28908 1025.81L8.289 1025.8ZM7.39745 1031.79C7.404 1032.07 7.6331 1032.29 7.90917 1032.28C8.18523 1032.27 8.40372 1032.05 8.39716 1031.77L7.39745 1031.79ZM8.57282 1037.75C8.56314 1037.47 8.33157 1037.25 8.0556 1037.26C7.77963 1037.27 7.56375 1037.5 7.57343 1037.78L8.57282 1037.75ZM7.81768 1043.77C7.83052 1044.04 8.06455 1044.25 8.3404 1044.24C8.61624 1044.23 8.82944 1043.99 8.81659 1043.72L7.81768 1043.77ZM9.12895 1049.68C9.11288 1049.4 8.87638 1049.19 8.6007 1049.21C8.32503 1049.23 8.11457 1049.46 8.13064 1049.74L9.12895 1049.68ZM8.51295 1055.69C8.5323 1055.97 8.77129 1056.17 9.04676 1056.15C9.32222 1056.13 9.52984 1055.9 9.5105 1055.62L8.51295 1055.69ZM9.96807 1061.61C9.94532 1061.33 9.70378 1061.13 9.42857 1061.15C9.15337 1061.17 8.94872 1061.41 8.97147 1061.69L9.96807 1061.61ZM9.50219 1067.65C9.52844 1067.93 9.77257 1068.13 10.0475 1068.1C10.3224 1068.07 10.5239 1067.83 10.4977 1067.56L9.50219 1067.65ZM11.0998 1073.45C11.0699 1073.18 10.8232 1072.98 10.5487 1073.01C10.2741 1073.04 10.0758 1073.29 10.1057 1073.56L11.0998 1073.45ZM10.7998 1079.56C10.8335 1079.83 11.083 1080.03 11.357 1079.99C11.6311 1079.96 11.826 1079.71 11.7923 1079.44L10.7998 1079.56ZM12.564 1085.36C12.5263 1085.09 12.274 1084.9 12.0004 1084.93C11.7269 1084.97 11.5356 1085.22 11.5733 1085.5L12.564 1085.36ZM12.4253 1091.36C12.4671 1091.63 12.7223 1091.82 12.9952 1091.78C13.2682 1091.73 13.4556 1091.48 13.4137 1091.21L12.4253 1091.36ZM14.3771 1097.17C14.3308 1096.89 14.0725 1096.71 13.8003 1096.76C13.5281 1096.8 13.345 1097.06 13.3913 1097.33L14.3771 1097.17ZM14.4479 1103.23C14.499 1103.5 14.7604 1103.68 15.0318 1103.63C15.3032 1103.58 15.4817 1103.32 15.4306 1103.05L14.4479 1103.23ZM16.5707 1108.81C16.5145 1108.54 16.2498 1108.37 15.9794 1108.42C15.7091 1108.48 15.5354 1108.74 15.5916 1109.01L16.5707 1108.81ZM16.8925 1114.97C16.9542 1115.24 17.2225 1115.41 17.4917 1115.34C17.7608 1115.28 17.9289 1115.01 17.8671 1114.74L16.8925 1114.97ZM19.2632 1120.53C19.1953 1120.26 18.9234 1120.1 18.6557 1120.17C18.388 1120.24 18.226 1120.51 18.2938 1120.78L19.2632 1120.53ZM19.8191 1126.5C19.8935 1126.77 20.1694 1126.92 20.4354 1126.85C20.7013 1126.77 20.8565 1126.5 20.7821 1126.23L19.8191 1126.5ZM22.497 1132.05C22.4151 1131.79 22.1349 1131.64 21.8712 1131.72C21.6075 1131.8 21.4601 1132.08 21.542 1132.35L22.497 1132.05ZM23.3815 1137.96C23.4715 1138.23 23.7561 1138.36 24.0172 1138.27C24.2782 1138.18 24.4168 1137.9 24.3268 1137.64L23.3815 1137.96ZM26.3894 1143.29C26.2899 1143.03 26.0005 1142.9 25.7429 1143C25.4853 1143.1 25.3571 1143.39 25.4565 1143.65L26.3894 1143.29ZM27.7332 1149.21C27.8434 1149.46 28.138 1149.58 28.3912 1149.47C28.6444 1149.36 28.7604 1149.06 28.6502 1148.81L27.7332 1149.21ZM31.1275 1154.15C31.0052 1153.91 30.7053 1153.8 30.4578 1153.93C30.2102 1154.05 30.1087 1154.35 30.231 1154.6L31.1275 1154.15ZM33.0851 1159.98C33.222 1160.22 33.5274 1160.3 33.7672 1160.16C34.0071 1160.03 34.0905 1159.72 33.9537 1159.48L33.0851 1159.98ZM37.0125 1164.44C36.8591 1164.21 36.5486 1164.15 36.319 1164.3C36.0893 1164.46 36.0275 1164.77 36.1809 1165L37.0125 1164.44ZM39.8023 1169.94C39.9758 1170.15 40.2906 1170.19 40.5054 1170.01C40.7202 1169.84 40.7538 1169.53 40.5803 1169.31L39.8023 1169.94ZM44.4844 1173.65C44.2883 1173.46 43.9717 1173.46 43.7773 1173.65C43.5829 1173.85 43.5843 1174.17 43.7804 1174.36L44.4844 1173.65ZM48.378 1178.34C48.5996 1178.5 48.9128 1178.46 49.0776 1178.23C49.2423 1178.01 49.1962 1177.7 48.9746 1177.53L48.378 1178.34ZM53.9483 1180.62C53.7016 1180.5 53.401 1180.6 53.2769 1180.84C53.1528 1181.09 53.2521 1181.39 53.4988 1181.51L53.9483 1180.62ZM59.1358 1183.68C59.4022 1183.76 59.677 1183.6 59.7495 1183.33C59.822 1183.07 59.6648 1182.79 59.3983 1182.72L59.1358 1183.68ZM65.1355 1183.65C64.8598 1183.64 64.6235 1183.85 64.6077 1184.12C64.5918 1184.4 64.8025 1184.64 65.0782 1184.65L65.1355 1183.65ZM71.1014 1184.4C71.375 1184.36 71.5664 1184.11 71.529 1183.84C71.4915 1183.56 71.2394 1183.37 70.9658 1183.41L71.1014 1184.4ZM76.714 1182.12C76.4502 1182.2 76.3024 1182.48 76.384 1182.75C76.4655 1183.01 76.7455 1183.16 77.0093 1183.08L76.714 1182.12ZM82.5576 1180.94C82.8087 1180.83 82.9192 1180.53 82.8043 1180.28C82.6895 1180.03 82.3928 1179.92 82.1417 1180.03L82.5576 1180.94ZM87.4113 1177.27C87.1735 1177.41 87.0945 1177.72 87.2348 1177.96C87.3751 1178.19 87.6817 1178.27 87.9195 1178.13L87.4113 1177.27ZM93.3047 1174.72C93.5375 1174.57 93.6058 1174.26 93.4573 1174.03C93.3087 1173.79 92.9996 1173.73 92.7668 1173.87L93.3047 1174.72ZM97.8255 1170.73C97.589 1170.88 97.5127 1171.18 97.6552 1171.42C97.7977 1171.66 98.105 1171.73 98.3415 1171.59L97.8255 1170.73ZM103.356 1168.67C103.597 1168.54 103.683 1168.23 103.548 1167.99C103.412 1167.75 103.108 1167.66 102.867 1167.8L103.356 1168.67ZM108.136 1164.98C107.89 1165.1 107.792 1165.4 107.917 1165.65C108.043 1165.89 108.344 1165.99 108.59 1165.87L108.136 1164.98ZM113.891 1163.33C114.143 1163.22 114.257 1162.93 114.145 1162.67C114.033 1162.42 113.737 1162.31 113.485 1162.42L113.891 1163.33ZM118.826 1160.26C118.567 1160.35 118.432 1160.64 118.526 1160.9C118.62 1161.16 118.906 1161.29 119.166 1161.2L118.826 1160.26ZM124.869 1159.47C125.137 1159.41 125.303 1159.14 125.24 1158.87C125.176 1158.6 124.906 1158.44 124.638 1158.5L124.869 1159.47ZM130.556 1157.61C130.28 1157.62 130.067 1157.86 130.08 1158.13C130.093 1158.41 130.328 1158.62 130.603 1158.61L130.556 1157.61ZM136.208 1159.19C136.473 1159.27 136.751 1159.11 136.829 1158.85C136.907 1158.58 136.756 1158.31 136.491 1158.23L136.208 1159.19ZM141.711 1161.34C141.519 1161.15 141.203 1161.14 141.004 1161.33C140.805 1161.52 140.8 1161.84 140.991 1162.04L141.711 1161.34ZM143.861 1166.89C143.953 1167.15 144.239 1167.28 144.499 1167.19C144.76 1167.1 144.896 1166.82 144.805 1166.56L143.861 1166.89ZM146.047 1172.48C146.02 1172.21 145.775 1172.01 145.501 1172.03C145.226 1172.06 145.025 1172.31 145.052 1172.58L146.047 1172.48ZM145.193 1178.42C145.182 1178.7 145.397 1178.93 145.673 1178.94C145.949 1178.95 146.182 1178.74 146.192 1178.46L145.193 1178.42ZM145.692 1184.36C145.727 1184.08 145.533 1183.83 145.259 1183.8C144.985 1183.76 144.735 1183.96 144.7 1184.23L145.692 1184.36ZM143.788 1190C143.737 1190.27 143.916 1190.53 144.187 1190.58C144.458 1190.63 144.72 1190.45 144.771 1190.18L143.788 1190ZM143.543 1195.97C143.606 1195.7 143.439 1195.43 143.171 1195.37C142.902 1195.31 142.633 1195.47 142.57 1195.74L143.543 1195.97ZM141.114 1201.47C141.041 1201.74 141.198 1202.01 141.465 1202.09C141.731 1202.16 142.006 1202 142.079 1201.73L141.114 1201.47ZM140.433 1207.45C140.513 1207.19 140.363 1206.91 140.099 1206.83C139.835 1206.75 139.555 1206.9 139.475 1207.16L140.433 1207.45ZM137.711 1212.75C137.625 1213.01 137.768 1213.29 138.03 1213.38C138.293 1213.46 138.575 1213.32 138.661 1213.06L137.711 1212.75ZM136.755 1218.67C136.846 1218.41 136.709 1218.13 136.448 1218.04C136.188 1217.94 135.903 1218.08 135.811 1218.34L136.755 1218.67ZM133.808 1223.9C133.712 1224.16 133.845 1224.45 134.104 1224.55C134.363 1224.64 134.65 1224.51 134.746 1224.25L133.808 1223.9ZM132.66 1229.77C132.76 1229.51 132.631 1229.22 132.374 1229.12C132.116 1229.02 131.827 1229.15 131.727 1229.41L132.66 1229.77ZM129.559 1234.91C129.456 1235.16 129.581 1235.46 129.837 1235.56C130.093 1235.66 130.384 1235.54 130.487 1235.28L129.559 1234.91ZM128.252 1240.75C128.358 1240.5 128.238 1240.2 127.982 1240.1C127.727 1239.99 127.435 1240.11 127.329 1240.37L128.252 1240.75ZM125.034 1245.81C124.926 1246.06 125.043 1246.36 125.297 1246.47C125.551 1246.57 125.845 1246.46 125.954 1246.2L125.034 1245.81ZM123.605 1251.62C123.716 1251.37 123.601 1251.07 123.348 1250.96C123.095 1250.85 122.8 1250.96 122.689 1251.22L123.605 1251.62ZM120.286 1256.62C120.173 1256.87 120.285 1257.17 120.537 1257.28C120.789 1257.4 121.085 1257.28 121.198 1257.03L120.286 1256.62ZM118.749 1262.41C118.864 1262.16 118.754 1261.87 118.503 1261.75C118.253 1261.64 117.956 1261.75 117.84 1262L118.749 1262.41ZM115.361 1267.33C115.244 1267.58 115.351 1267.88 115.601 1268C115.851 1268.11 116.149 1268.01 116.266 1267.76L115.361 1267.33ZM113.722 1273.13C113.842 1272.88 113.736 1272.58 113.487 1272.46C113.238 1272.34 112.939 1272.45 112.82 1272.7L113.722 1273.13ZM110.258 1278.01C110.137 1278.25 110.241 1278.55 110.489 1278.67C110.737 1278.8 111.036 1278.69 111.157 1278.44L110.258 1278.01ZM108.569 1283.72C108.692 1283.47 108.591 1283.17 108.343 1283.05C108.095 1282.92 107.796 1283.03 107.673 1283.27L108.569 1283.72ZM105.016 1288.6C104.892 1288.85 104.992 1289.15 105.239 1289.27C105.485 1289.4 105.786 1289.3 105.91 1289.05L105.016 1288.6ZM103.23 1294.34C103.356 1294.09 103.258 1293.79 103.012 1293.67C102.766 1293.54 102.465 1293.64 102.34 1293.88L103.23 1294.34ZM99.6405 1299.13C99.5134 1299.37 99.6091 1299.68 99.8542 1299.8C100.099 1299.93 100.401 1299.83 100.528 1299.59L99.6405 1299.13ZM97.7921 1304.83C97.9208 1304.58 97.827 1304.28 97.5827 1304.15C97.3383 1304.02 97.0359 1304.12 96.9073 1304.36L97.7921 1304.83ZM94.1243 1309.6C93.994 1309.85 94.0856 1310.15 94.3291 1310.28C94.5725 1310.41 94.8755 1310.32 95.0059 1310.07L94.1243 1309.6ZM92.2506 1315.17C92.383 1314.93 92.2938 1314.63 92.0514 1314.49C91.8091 1314.36 91.5053 1314.45 91.373 1314.69L92.2506 1315.17ZM93.612 1316.54C93.8617 1316.42 93.9685 1316.12 93.8506 1315.87C93.7327 1315.62 93.4347 1315.51 93.185 1315.63L93.612 1316.54ZM99.1849 1312.8C98.9352 1312.92 98.8283 1313.21 98.9463 1313.46C99.0642 1313.71 99.3622 1313.82 99.6119 1313.7L99.1849 1312.8ZM105.612 1310.87C105.861 1310.75 105.968 1310.45 105.85 1310.2C105.732 1309.95 105.434 1309.85 105.185 1309.96L105.612 1310.87ZM111.185 1307.13C110.935 1307.25 110.828 1307.55 110.946 1307.8C111.064 1308.05 111.362 1308.15 111.612 1308.04L111.185 1307.13ZM117.612 1305.2C117.861 1305.08 117.968 1304.79 117.85 1304.54C117.732 1304.29 117.434 1304.18 117.185 1304.3L117.612 1305.2ZM123.184 1301.46C122.935 1301.58 122.828 1301.88 122.946 1302.13C123.064 1302.38 123.362 1302.49 123.612 1302.37L123.184 1301.46ZM123.157 1299.38C122.885 1299.33 122.624 1299.51 122.573 1299.78C122.522 1300.05 122.701 1300.32 122.972 1300.37L123.157 1299.38ZM116.306 1299.12C116.577 1299.17 116.838 1298.99 116.889 1298.72C116.94 1298.45 116.762 1298.18 116.49 1298.13L116.306 1299.12ZM109.823 1296.88C109.552 1296.83 109.291 1297.01 109.24 1297.28C109.189 1297.55 109.368 1297.82 109.639 1297.87L109.823 1296.88ZM102.972 1296.62C103.244 1296.67 103.505 1296.49 103.556 1296.22C103.607 1295.95 103.428 1295.68 103.157 1295.63L102.972 1296.62ZM96.4901 1294.38C96.2187 1294.33 95.9574 1294.51 95.9065 1294.78C95.8556 1295.05 96.0344 1295.32 96.3058 1295.37L96.4901 1294.38ZM89.6391 1294.12C89.9105 1294.17 90.1718 1293.99 90.2227 1293.72C90.2736 1293.45 90.0948 1293.18 89.8234 1293.13L89.6391 1294.12ZM88.4163 1295.77C88.6099 1295.96 88.9265 1295.97 89.1234 1295.77C89.3204 1295.58 89.3231 1295.26 89.1296 1295.07L88.4163 1295.77ZM93.8796 1299.9C93.686 1299.7 93.3694 1299.7 93.1725 1299.89C92.9755 1300.09 92.9728 1300.4 93.1663 1300.6L93.8796 1299.9ZM97.9163 1305.43C98.1099 1305.63 98.4265 1305.63 98.6234 1305.44C98.8204 1305.25 98.8231 1304.93 98.6296 1304.73L97.9163 1305.43ZM103.38 1309.57C103.186 1309.37 102.869 1309.37 102.672 1309.56C102.476 1309.75 102.473 1310.07 102.666 1310.27L103.38 1309.57ZM107.416 1315.1C107.61 1315.3 107.926 1315.3 108.123 1315.11C108.32 1314.91 108.323 1314.6 108.13 1314.4L107.416 1315.1ZM112.88 1319.23C112.686 1319.04 112.369 1319.03 112.172 1319.23C111.976 1319.42 111.973 1319.74 112.166 1319.93L112.88 1319.23ZM114.935 1318.6C114.897 1318.32 114.645 1318.13 114.372 1318.17C114.098 1318.21 113.907 1318.46 113.944 1318.73L114.935 1318.6ZM113.028 1312.07C113.065 1312.34 113.317 1312.53 113.591 1312.5C113.865 1312.46 114.056 1312.21 114.018 1311.93L113.028 1312.07ZM113.102 1305.27C113.064 1304.99 112.812 1304.8 112.538 1304.84C112.265 1304.88 112.073 1305.13 112.111 1305.4L113.102 1305.27ZM111.194 1298.73C111.232 1299.01 111.484 1299.2 111.758 1299.16C112.031 1299.12 112.223 1298.87 112.185 1298.6L111.194 1298.73ZM111.268 1291.93C111.231 1291.66 110.978 1291.47 110.705 1291.5C110.431 1291.54 110.24 1291.79 110.278 1292.07L111.268 1291.93ZM109.361 1285.4C109.399 1285.68 109.651 1285.87 109.924 1285.83C110.198 1285.79 110.389 1285.54 110.352 1285.27L109.361 1285.4ZM90.3711 0.500754C89.339 0.557512 88.3155 0.622159 87.3005 0.694522L87.3716 1.69199C88.3812 1.62001 89.3993 1.55571 90.426 1.49925L90.3711 0.500754ZM81.3131 1.21991C79.2672 1.43381 77.2586 1.67977 75.2875 1.95625L75.4264 2.94655C77.3858 2.67173 79.3827 2.42718 81.4171 2.21449L81.3131 1.21991ZM69.376 2.89532C67.3462 3.25644 65.3596 3.65076 63.4164 4.07634L63.6303 5.05319C65.5605 4.63046 67.5341 4.2387 69.5511 3.87986L69.376 2.89532ZM57.5397 5.49165C55.5698 6.01043 53.6492 6.5623 51.7781 7.14493L52.0755 8.0997C53.9321 7.52154 55.8385 6.97375 57.7944 6.45868L57.5397 5.49165ZM46.0245 9.08816C44.0851 9.79639 42.2058 10.5388 40.387 11.3123L40.7783 12.2325C42.5809 11.4659 44.4441 10.7299 46.3675 10.0275L46.0245 9.08816ZM34.9001 13.8274C33.0545 14.738 31.2811 15.6818 29.5805 16.6549L30.0772 17.5228C31.7596 16.5602 33.5148 15.626 35.3426 14.7242L34.9001 13.8274ZM24.4455 19.8252C22.7121 20.9799 21.0707 22.1662 19.522 23.3785L20.1383 24.166C21.6664 22.9699 23.2871 21.7985 24.9999 20.6574L24.4455 19.8252ZM14.9085 27.316C13.3806 28.7418 11.9718 30.1934 10.6833 31.6629L11.4352 32.3222C12.7007 30.8789 14.0862 29.4512 15.5908 28.0471L14.9085 27.316ZM6.95564 36.4398C5.75564 38.1865 4.7204 39.9462 3.85202 41.7059L4.74878 42.1485C5.5947 40.4342 6.6053 38.7157 7.77987 37.006L6.95564 36.4398ZM1.62409 47.3953C1.03766 49.4208 0.67902 51.4282 0.552081 53.397L1.55001 53.4614C1.67197 51.5698 2.017 49.634 2.58464 47.6734L1.62409 47.3953ZM0.93795 59.5211C1.33856 61.5359 2.0147 63.476 2.96909 65.3147L3.85665 64.854C2.94621 63.1 2.30118 61.2494 1.91875 59.3261L0.93795 59.5211ZM6.4939 70.3105C7.81959 71.749 9.36494 73.0846 11.1302 74.2999L11.6972 73.4762C9.98946 72.3005 8.50136 71.0132 7.22927 69.6328L6.4939 70.3105ZM16.4753 77.2961C18.2332 78.0942 20.1366 78.8028 22.186 79.4126L22.4712 78.4542C20.4625 77.8564 18.6022 77.1635 16.8888 76.3855L16.4753 77.2961ZM28.0961 80.8166C29.9928 81.1642 31.9885 81.4401 34.0834 81.639L34.1779 80.6434C32.11 80.4471 30.1431 80.1751 28.2764 79.833L28.0961 80.8166ZM40.0827 81.9878C42.0175 82.0335 44.0246 82.0204 46.1041 81.9451L46.068 80.9458C44.0074 81.0203 42.0203 81.0333 40.1063 80.9881L40.0827 81.9878ZM52.1633 81.5655C54.118 81.3936 56.1293 81.1711 58.1977 80.8958L58.0657 79.9046C56.0116 80.178 54.015 80.3988 52.0758 80.5693L52.1633 81.5655ZM64.0977 79.9921C66.048 79.6556 68.0443 79.275 70.0869 78.8486L69.8825 77.8697C67.851 78.2938 65.8661 78.6722 63.9276 79.0067L64.0977 79.9921ZM75.9226 77.5349C77.8382 77.0731 79.7915 76.5732 81.7825 76.0338L81.521 75.0686C79.5388 75.6056 77.5946 76.1032 75.6883 76.5627L75.9226 77.5349ZM87.5743 74.3844C88.5567 74.0913 89.5477 73.789 90.5473 73.4773L90.2497 72.5227C89.2539 72.8331 88.2668 73.1342 87.2884 73.4261L87.5743 74.3844ZM90.5473 73.4773C91.5273 73.1718 92.4995 72.8852 93.4638 72.6171L93.196 71.6537C92.2215 71.9246 91.2394 72.2141 90.2497 72.5227L90.5473 73.4773ZM99.1559 71.2288C101.116 70.8188 103.042 70.488 104.933 70.2334L104.799 69.2424C102.884 69.5003 100.934 69.8352 98.9512 70.25L99.1559 71.2288ZM110.725 69.6828C112.73 69.5736 114.692 69.5532 116.612 69.6177L116.646 68.6183C114.696 68.5527 112.704 68.5735 110.671 68.6843L110.725 69.6828ZM122.379 70.0788C124.358 70.3315 126.289 70.6785 128.171 71.1149L128.397 70.1408C126.482 69.6967 124.518 69.3438 122.506 69.0868L122.379 70.0788ZM133.777 72.7234C135.628 73.3604 137.428 74.0885 139.175 74.9025L139.597 73.9961C137.818 73.1674 135.987 72.4262 134.103 71.7778L133.777 72.7234ZM144.347 77.6477C146.018 78.6481 147.635 79.732 149.199 80.894L149.796 80.0913C148.206 78.91 146.561 77.8076 144.861 76.7898L144.347 77.6477ZM153.73 84.6077C155.17 85.9043 156.557 87.2719 157.892 88.7052L158.624 88.0235C157.27 86.5696 155.861 85.1815 154.399 83.8647L153.73 84.6077ZM161.703 93.1481C162.911 94.6752 164.068 96.2604 165.175 97.8986L166.003 97.3387C164.883 95.6806 163.711 94.0753 162.488 92.5279L161.703 93.1481ZM168.275 102.848C169.25 104.528 170.178 106.253 171.059 108.018L171.954 107.572C171.064 105.788 170.126 104.045 169.14 102.346L168.275 102.848ZM173.526 113.355C174.289 115.139 175.007 116.956 175.681 118.803L176.62 118.46C175.941 116.597 175.216 114.762 174.446 112.962L173.526 113.355ZM177.555 124.388C178.127 126.247 178.656 128.13 179.143 130.033L180.112 129.786C179.621 127.867 179.088 125.968 178.511 124.094L177.555 124.388ZM180.465 135.763C180.861 137.677 181.215 139.607 181.527 141.549L182.515 141.39C182.2 139.433 181.843 137.489 181.445 135.561L180.465 135.763ZM182.334 147.369C182.561 149.314 182.747 151.268 182.892 153.226L183.89 153.153C183.744 151.18 183.556 149.212 183.327 147.253L182.334 147.369ZM183.203 159.096C183.266 161.057 183.288 163.018 183.268 164.977L184.268 164.987C184.288 163.014 184.266 161.039 184.203 159.064L183.203 159.096ZM183.086 170.853C182.984 172.817 182.839 174.774 182.654 176.721L183.649 176.817C183.836 174.855 183.982 172.883 184.085 170.905L183.086 170.853ZM181.968 182.547C181.694 184.502 181.377 186.442 181.016 188.363L181.999 188.548C182.362 186.611 182.682 184.655 182.958 182.686L181.968 182.547ZM179.798 194.103C179.342 196.022 178.841 197.918 178.295 199.787L179.254 200.067C179.805 198.182 180.311 196.269 180.771 194.334L179.798 194.103ZM176.494 205.385C175.842 207.237 175.142 209.056 174.396 210.837L175.318 211.224C176.072 209.424 176.779 207.587 177.437 205.717L176.494 205.385ZM171.947 216.201C171.071 217.967 170.144 219.689 169.166 221.36L170.029 221.865C171.019 220.173 171.957 218.432 172.843 216.645L171.947 216.201ZM166.029 226.289C164.905 227.915 163.726 229.481 162.492 230.981L163.264 231.616C164.517 230.093 165.712 228.505 166.852 226.858L166.029 226.289ZM158.582 235.325C157.207 236.718 155.774 238.037 154.285 239.276L154.924 240.045C156.44 238.785 157.896 237.443 159.293 236.028L158.582 235.325ZM149.6 242.777C147.986 243.855 146.313 244.846 144.582 245.744L145.043 246.632C146.807 245.716 148.511 244.706 150.155 243.609L149.6 242.777ZM139.245 248.144C137.453 248.831 135.606 249.426 133.704 249.922L133.956 250.89C135.895 250.384 137.777 249.778 139.603 249.078L139.245 248.144ZM128.003 251.086C126.094 251.371 124.134 251.564 122.123 251.657L122.17 252.656C124.214 252.561 126.207 252.366 128.151 252.075L128.003 251.086ZM116.354 251.66C114.445 251.575 112.494 251.405 110.501 251.147L110.372 252.139C112.392 252.4 114.372 252.572 116.31 252.659L116.354 251.66ZM104.74 250.178C102.879 249.793 100.983 249.335 99.0541 248.801L98.787 249.765C100.737 250.305 102.654 250.768 104.538 251.157L104.74 250.178ZM93.447 247.062C92.497 246.737 91.5393 246.393 90.5739 246.032L90.2232 246.968C91.1973 247.333 92.1639 247.68 93.123 248.008L93.447 247.062ZM90.5739 246.032C89.5197 245.637 88.4906 245.27 87.486 244.929L87.1652 245.877C88.1593 246.213 89.1784 246.577 90.2232 246.968L90.5739 246.032ZM81.7495 243.208C79.6203 242.66 77.6205 242.254 75.7452 241.985L75.6034 242.975C77.4379 243.238 79.4015 243.636 81.4999 244.177L81.7495 243.208ZM69.8347 241.593C67.6206 241.643 65.6295 241.942 63.8509 242.481L64.1405 243.438C65.8196 242.93 67.7192 242.641 69.8569 242.593L69.8347 241.593ZM58.3828 245.398C56.8217 246.721 55.575 248.36 54.6135 250.276L55.5073 250.725C56.415 248.916 57.5816 247.387 59.0292 246.161L58.3828 245.398ZM52.6833 256.111C52.3135 257.977 52.1007 259.992 52.0302 262.139L53.0297 262.172C53.0987 260.069 53.3067 258.109 53.6642 256.306L52.6833 256.111ZM52.1661 268.115C52.3043 270.046 52.529 272.058 52.8331 274.142L53.8226 273.998C53.5216 271.934 53.2998 269.947 53.1636 268.043L52.1661 268.115ZM53.8866 280.161C54.2672 282.048 54.701 283.982 55.1837 285.958L56.1551 285.721C55.6753 283.756 55.2446 281.835 54.8669 279.964L53.8866 280.161ZM56.7364 291.873C57.2597 293.745 57.8202 295.647 58.4149 297.578L59.3706 297.283C58.7783 295.361 58.2202 293.466 57.6995 291.604L56.7364 291.873ZM60.272 303.368C60.8917 305.23 61.5388 307.113 62.2108 309.014L63.1536 308.68C62.4836 306.785 61.8385 304.908 61.2209 303.052L60.272 303.368ZM64.2808 314.718C64.9685 316.567 65.6767 318.43 66.4031 320.303L67.3355 319.942C66.6107 318.072 65.9041 316.214 65.218 314.369L64.2808 314.718ZM68.6295 325.94C69.3688 327.779 70.1231 329.626 70.8904 331.477L71.8142 331.094C71.0482 329.246 70.2953 327.403 69.5574 325.567L68.6295 325.94ZM73.2288 337.043C74.0107 338.879 74.8032 340.718 75.6043 342.557L76.521 342.157C75.721 340.321 74.9296 338.485 74.1489 336.651L73.2288 337.043ZM78.0279 348.061C78.8441 349.896 79.6669 351.728 80.4942 353.555L81.4051 353.142C80.5787 351.317 79.7569 349.487 78.9416 347.654L78.0279 348.061ZM82.9892 359.02C83.8311 360.849 84.6755 362.671 85.5205 364.482L86.4267 364.059C85.5825 362.25 84.7388 360.43 83.8977 358.602L82.9892 359.02ZM88.0769 369.927C88.9373 371.749 89.7961 373.558 90.651 375.35L91.5536 374.919C90.6992 373.128 89.841 371.321 88.9811 369.5L88.0769 369.927ZM93.2593 380.792C94.1333 382.608 95.0008 384.403 95.8593 386.175L96.7593 385.739C95.901 383.968 95.0339 382.173 94.1603 380.358L93.2593 380.792ZM98.5058 391.622C99.3916 393.441 100.265 395.231 101.122 396.986L102.02 396.547C101.163 394.792 100.29 393.003 99.4049 391.185L98.5058 391.622ZM103.781 402.43C104.681 404.272 105.558 406.07 106.409 407.819L107.308 407.381C106.457 405.632 105.579 403.834 104.679 401.991L103.781 402.43ZM109.023 413.208C109.943 415.112 110.821 416.943 111.652 418.692L112.555 418.262C111.723 416.511 110.844 414.679 109.924 412.773L109.023 413.208ZM114.176 424.071C115.069 426.006 115.88 427.803 116.598 429.449L117.514 429.05C116.793 427.395 115.979 425.591 115.084 423.652L114.176 424.071ZM118.862 434.973C119.415 436.457 119.809 437.685 120.03 438.639C120.141 439.116 120.206 439.514 120.228 439.835C120.25 440.163 120.226 440.377 120.185 440.504L121.136 440.813C121.234 440.511 121.252 440.151 121.225 439.766C121.198 439.374 121.122 438.921 121.004 438.413C120.769 437.398 120.359 436.125 119.799 434.624L118.862 434.973ZM116.306 437.955C115.153 436.871 113.767 435.451 112.128 433.671L111.392 434.348C113.04 436.139 114.444 437.577 115.621 438.684L116.306 437.955ZM108.035 429.08C106.887 427.759 105.653 426.317 104.332 424.75L103.567 425.394C104.892 426.965 106.128 428.411 107.28 429.736L108.035 429.08ZM100.253 419.855C99.1191 418.481 97.9328 417.032 96.6926 415.508L95.9169 416.139C97.1584 417.665 98.3461 419.115 99.4814 420.492L100.253 419.855ZM92.8383 410.742C92.1688 409.91 91.4858 409.058 90.7889 408.188L90.0082 408.812C90.7055 409.684 91.3891 410.536 92.0591 411.369L92.8383 410.742ZM90.7889 408.188C90.1245 407.357 89.4737 406.531 88.8362 405.707L88.0454 406.319C88.6862 407.147 89.3404 407.978 90.0082 408.812L90.7889 408.188ZM85.1709 400.806C84.0018 399.186 82.8849 397.58 81.8187 395.989L80.9879 396.545C82.0607 398.146 83.1842 399.762 84.36 401.391L85.1709 400.806ZM78.47 390.77C77.4046 389.032 76.4005 387.314 75.4556 385.616L74.5818 386.102C75.5337 387.813 76.5449 389.543 77.6175 391.292L78.47 390.77ZM72.6277 380.243C71.7119 378.396 70.8673 376.575 70.0913 374.782L69.1735 375.179C69.9566 376.989 70.8085 378.825 71.7319 380.687L72.6277 380.243ZM67.8528 369.176C67.1449 367.24 66.519 365.339 65.9714 363.476L65.012 363.757C65.5658 365.642 66.1985 367.563 66.9135 369.52L67.8528 369.176ZM64.4718 357.599C64.0434 355.611 63.7075 353.673 63.4589 351.786L62.4674 351.917C62.7197 353.831 63.0603 355.796 63.4943 357.809L64.4718 357.599ZM62.9457 345.688C62.874 343.613 62.9143 341.612 63.0582 339.691L62.061 339.617C61.9143 341.575 61.8733 343.612 61.9463 345.723L62.9457 345.688ZM63.8644 333.805C64.2782 331.771 64.8199 329.85 65.4758 328.048L64.5361 327.706C63.8626 329.557 63.3078 331.525 62.8845 333.606L63.8644 333.805ZM67.9971 322.608C69.0277 320.824 70.1926 319.207 71.4707 317.768L70.7231 317.104C69.3983 318.596 68.1942 320.267 67.1311 322.108L67.9971 322.608ZM75.8857 313.806C77.525 312.65 79.2751 311.718 81.1096 311.021L80.7547 310.086C78.8404 310.813 77.016 311.785 75.3095 312.988L75.8857 313.806ZM86.8688 309.647C88.7964 309.441 90.7813 309.47 92.7992 309.747L92.9351 308.756C90.8388 308.469 88.7726 308.438 86.7627 308.653L86.8688 309.647ZM98.5575 311.195C100.341 311.848 102.134 312.696 103.918 313.748L104.426 312.887C102.592 311.805 100.745 310.931 98.9013 310.256L98.5575 311.195ZM108.793 317.163C110.279 318.375 111.748 319.74 113.191 321.26L113.917 320.572C112.446 319.022 110.946 317.629 109.425 316.388L108.793 317.163ZM117.133 325.903C118.279 327.405 119.401 329.018 120.493 330.745L121.338 330.21C120.231 328.46 119.093 326.823 117.928 325.296L117.133 325.903ZM123.54 336.014C124.439 337.716 125.312 339.506 126.153 341.387L127.066 340.978C126.216 339.078 125.334 337.269 124.424 335.547L123.54 336.014ZM128.462 346.988C129.15 348.802 129.811 350.688 130.442 352.647L131.394 352.34C130.758 350.366 130.091 348.464 129.397 346.633L128.462 346.988ZM132.179 358.505C132.685 360.365 133.165 362.284 133.619 364.261L134.594 364.037C134.137 362.047 133.653 360.116 133.144 358.243L132.179 358.505ZM134.897 370.372C135.253 372.244 135.585 374.165 135.893 376.134L136.881 375.979C136.571 374 136.237 372.069 135.88 370.185L134.897 370.372ZM136.738 382.153C136.987 384.145 137.212 386.182 137.412 388.266L138.407 388.17C138.206 386.077 137.98 384.03 137.73 382.029L136.738 382.153ZM137.9 394.133C138.041 396.128 138.16 398.163 138.256 400.237L139.255 400.191C139.158 398.108 139.039 396.066 138.897 394.063L137.9 394.133ZM138.47 406.388C138.515 408.315 138.541 410.274 138.548 412.266L139.548 412.263C139.541 410.264 139.515 408.298 139.469 406.365L138.47 406.388ZM138.508 418.339C138.474 420.396 138.42 422.487 138.346 424.61L139.345 424.645C139.42 422.516 139.474 420.419 139.508 418.355L138.508 418.339ZM138.09 430.46C137.988 432.423 137.869 434.413 137.731 436.43L138.729 436.498C138.867 434.476 138.986 432.48 139.089 430.512L138.09 430.46ZM137.265 442.564C137.095 444.594 136.908 446.65 136.702 448.733L137.697 448.831C137.903 446.744 138.091 444.683 138.262 442.648L137.265 442.564ZM136.087 454.557C135.866 456.522 135.63 458.509 135.378 460.518L136.37 460.643C136.623 458.629 136.86 456.638 137.081 454.669L136.087 454.557ZM134.573 466.617C134.29 468.657 133.992 470.719 133.677 472.805L134.666 472.954C134.981 470.865 135.28 468.798 135.563 466.754L134.573 466.617ZM132.773 478.574C132.457 480.517 132.128 482.478 131.785 484.459L132.77 484.63C133.114 482.646 133.444 480.681 133.76 478.735L132.773 478.574ZM130.711 490.459C130.339 492.479 129.953 494.518 129.551 496.576L130.533 496.768C130.935 494.706 131.322 492.664 131.695 490.641L130.711 490.459ZM128.364 502.511C127.974 504.416 127.571 506.339 127.155 508.277L128.133 508.487C128.549 506.545 128.953 504.62 129.344 502.711L128.364 502.511ZM125.87 514.141C125.429 516.112 124.975 518.1 124.509 520.104L125.483 520.331C125.95 518.324 126.404 516.334 126.846 514.359L125.87 514.141ZM123.07 526.166C122.599 528.111 122.117 530.072 121.622 532.048L122.592 532.291C123.087 530.312 123.571 528.349 124.042 526.401L123.07 526.166ZM120.17 537.754C119.675 539.67 119.169 541.6 118.651 543.544L119.618 543.801C120.136 541.855 120.643 539.922 121.139 538.004L120.17 537.754ZM117.064 549.418C116.523 551.39 115.971 553.376 115.407 555.377L116.37 555.648C116.934 553.645 117.487 551.657 118.028 549.682L117.064 549.418ZM113.684 561.408C113.147 563.266 112.599 565.135 112.042 567.017L113 567.301C113.559 565.417 114.107 563.546 114.645 561.686L113.684 561.408ZM110.338 572.698C109.761 574.603 109.173 576.521 108.575 578.45L109.53 578.747C110.128 576.815 110.717 574.895 111.295 572.988L110.338 572.698ZM106.749 584.276C106.13 586.23 105.501 588.196 104.862 590.175L105.813 590.482C106.453 588.502 107.083 586.534 107.703 584.578L106.749 584.276ZM102.916 596.133C102.309 597.972 101.694 599.822 101.069 601.682L102.017 602.001C102.642 600.139 103.258 598.287 103.866 596.446L102.916 596.133ZM99.1677 607.295C98.5249 609.176 97.873 611.067 97.2119 612.969L98.1565 613.298C98.8181 611.394 99.4706 609.501 100.114 607.618L99.1677 607.295ZM95.201 618.707C94.5215 620.63 93.8327 622.563 93.1345 624.507L94.0757 624.845C94.7744 622.9 95.4638 620.965 96.1439 619.04L95.201 618.707ZM91.0119 630.371C90.6534 631.354 90.2925 632.339 89.9292 633.327L90.8678 633.673C91.2313 632.684 91.5925 631.698 91.9513 630.714L91.0119 630.371ZM89.9292 633.327C89.5711 634.302 89.2151 635.274 88.8614 636.246L89.801 636.588C90.1544 635.617 90.51 634.646 90.8678 633.673L89.9292 633.327ZM86.7654 642.056C86.0756 643.987 85.3944 645.913 84.722 647.832L85.6657 648.163C86.3375 646.245 87.018 644.322 87.7072 642.393L86.7654 642.056ZM82.7305 653.574C82.0753 655.482 81.4287 657.384 80.7906 659.281L81.7384 659.6C82.3758 657.705 83.0218 655.805 83.6763 653.899L82.7305 653.574ZM78.9018 664.953C78.2807 666.838 77.668 668.718 77.0637 670.591L78.0154 670.898C78.6191 669.027 79.2311 667.149 79.8516 665.266L78.9018 664.953ZM75.1893 676.467C74.5695 678.433 73.9589 680.392 73.3575 682.345L74.3132 682.639C74.914 680.689 75.5239 678.732 76.143 676.768L75.1893 676.467ZM71.5805 688.183C70.9973 690.123 70.4231 692.056 69.8579 693.982L70.8174 694.263C71.382 692.339 71.9556 690.408 72.5382 688.471L71.5805 688.183ZM68.189 699.742C67.6416 701.655 67.1031 703.562 66.5734 705.462L67.5366 705.73C68.0658 703.832 68.6037 701.928 69.1504 700.017L68.189 699.742ZM64.9578 711.336C64.4169 713.33 63.8857 715.317 63.3641 717.296L64.3311 717.551C64.8521 715.574 65.3827 713.59 65.923 711.598L64.9578 711.336ZM61.8279 723.212C61.3254 725.177 60.8324 727.134 60.3487 729.084L61.3193 729.324C61.8024 727.377 62.2948 725.422 62.7968 723.46L61.8279 723.212ZM58.9258 734.91C58.4608 736.845 58.005 738.772 57.5585 740.692L58.5325 740.918C58.9785 739.001 59.4337 737.076 59.8981 735.144L58.9258 734.91ZM56.1965 746.649C55.7439 748.664 55.3015 750.671 54.8691 752.669L55.8464 752.881C56.2783 750.885 56.7202 748.881 57.1722 746.868L56.1965 746.649ZM53.6017 758.639C53.1891 760.62 52.7865 762.593 52.3936 764.557L53.3742 764.753C53.7665 762.791 54.1687 760.821 54.5807 758.842L53.6017 758.639ZM51.244 770.424C50.8693 772.378 50.5042 774.323 50.1488 776.259L51.1323 776.44C51.4873 774.506 51.8519 772.564 52.2261 770.613L51.244 770.424ZM49.0541 782.366C48.6998 784.393 48.356 786.409 48.0226 788.416L49.0091 788.58C49.342 786.576 49.6854 784.562 50.0392 782.539L49.0541 782.366ZM47.0532 794.407C46.7404 796.394 46.4377 798.372 46.1451 800.34L47.1343 800.487C47.4264 798.522 47.7287 796.547 48.0411 794.563L47.0532 794.407ZM45.2974 806.215C45.012 808.254 44.7374 810.283 44.4736 812.301L45.4651 812.431C45.7286 810.416 46.0027 808.39 46.2877 806.353L45.2974 806.215ZM43.7037 818.407C43.4579 820.431 43.223 822.444 42.9986 824.447L43.9924 824.558C44.2164 822.559 44.451 820.549 44.6964 818.528L43.7037 818.407ZM42.3572 830.419C42.1539 832.399 41.961 834.368 41.7784 836.325L42.7741 836.418C42.9564 834.464 43.149 832.498 43.352 830.521L42.3572 830.419ZM41.2372 842.449C41.0656 844.506 40.9055 846.55 40.7564 848.581L41.7538 848.654C41.9025 846.626 42.0625 844.586 42.2337 842.532L41.2372 842.449ZM40.3426 854.636C40.2157 856.642 40.0997 858.635 39.9945 860.615L40.9931 860.668C41.0981 858.691 41.2139 856.702 41.3406 854.7L40.3426 854.636ZM39.7092 866.55C39.6197 868.633 39.5422 870.702 39.4763 872.756L40.4758 872.788C40.5415 870.737 40.6189 868.673 40.7082 866.593L39.7092 866.55ZM39.3135 878.873C39.2707 880.897 39.2393 882.907 39.219 884.902L40.219 884.912C40.2392 882.921 40.2705 880.915 40.3132 878.894L39.3135 878.873ZM39.1914 890.842C39.1932 892.9 39.207 894.943 39.2323 896.969L40.2323 896.956C40.2069 894.934 40.1932 892.896 40.1914 890.841L39.1914 890.842ZM39.346 903.12C39.3958 905.154 39.4574 907.17 39.5304 909.169L40.5298 909.133C40.4569 907.138 40.3954 905.125 40.3457 903.096L39.346 903.12ZM39.7836 915.115C39.8832 917.162 39.9949 919.19 40.1184 921.2L41.1165 921.139C40.9933 919.133 40.8818 917.109 40.7824 915.067L39.7836 915.115ZM40.5365 927.348C40.6881 929.377 40.8517 931.386 41.0269 933.376L42.023 933.288C41.8482 931.303 41.685 929.298 41.5338 927.273L40.5365 927.348ZM41.587 939.283C41.7964 941.344 42.0183 943.382 42.2524 945.397L43.2457 945.282C43.0122 943.271 42.7908 941.238 42.5819 939.182L41.587 939.283ZM43.005 951.488C43.268 953.495 43.5432 955.478 43.8298 957.438L44.8193 957.293C44.5333 955.338 44.2589 953.36 43.9965 951.358L43.005 951.488ZM44.7378 963.331C45.0731 965.401 45.4214 967.443 45.7819 969.457L46.7663 969.281C46.4067 967.272 46.0594 965.236 45.7249 963.171L44.7378 963.331ZM46.8999 975.415C47.2844 977.373 47.6807 979.303 48.0879 981.204L49.0657 980.995C48.6597 979.099 48.2646 977.175 47.8812 975.223L46.8999 975.415ZM49.446 987.269C49.9152 989.274 50.3967 991.246 50.8896 993.185L51.8588 992.938C51.3674 991.006 50.8875 989.04 50.4198 987.041L49.446 987.269ZM52.4021 998.896C52.9621 1000.93 53.5346 1002.92 54.1186 1004.87L55.0766 1004.59C54.4947 1002.64 53.9242 1000.66 53.3662 998.631L52.4021 998.896ZM55.9242 1010.67C56.5464 1012.59 57.1796 1014.46 57.8227 1016.29L58.7662 1015.96C58.1258 1014.14 57.4952 1012.27 56.8755 1010.36L55.9242 1010.67ZM59.9661 1022.15C60.6914 1024.05 61.4271 1025.9 62.1716 1027.69L63.0953 1027.31C62.3545 1025.52 61.6223 1023.68 60.9003 1021.79L59.9661 1022.15ZM64.6182 1033.34C65.4744 1035.23 66.3398 1037.05 67.2122 1038.81L68.1079 1038.36C67.2409 1036.62 66.3806 1034.8 65.5291 1032.92L64.6182 1033.34ZM70.0235 1044.2C71.0338 1046.04 72.0503 1047.8 73.0702 1049.46L73.9232 1048.94C72.912 1047.29 71.9034 1045.55 70.9004 1043.72L70.0235 1044.2ZM76.4074 1054.59C77.5983 1056.31 78.7892 1057.9 79.9753 1059.38L80.7545 1058.75C79.5843 1057.3 78.4074 1055.72 77.2289 1054.02L76.4074 1054.59ZM84.1096 1064.05C85.6558 1065.63 87.1851 1066.99 88.6865 1068.13L89.2925 1067.34C87.8343 1066.23 86.3406 1064.9 84.8231 1063.35L84.1096 1064.05ZM93.9469 1071.3C96.0609 1072.22 98.0967 1072.66 100.01 1072.57L99.9644 1071.57C98.235 1071.65 96.3518 1071.26 94.3458 1070.39L93.9469 1071.3ZM105.83 1070.33C107.296 1069.13 108.572 1067.48 109.634 1065.36L108.741 1064.92C107.728 1066.93 106.533 1068.47 105.199 1069.55L105.83 1070.33ZM111.721 1059.6C112.172 1057.83 112.533 1055.88 112.798 1053.74L111.805 1053.62C111.545 1055.72 111.192 1057.63 110.752 1059.35L111.721 1059.6ZM113.267 1047.63C113.335 1045.7 113.339 1043.66 113.276 1041.5L112.277 1041.53C112.339 1043.66 112.335 1045.69 112.267 1047.59L113.267 1047.63ZM112.95 1035.5C112.797 1033.55 112.597 1031.52 112.347 1029.42L111.354 1029.53C111.602 1031.63 111.801 1033.64 111.953 1035.58L112.95 1035.5ZM111.522 1023.37C111.231 1021.47 110.903 1019.51 110.537 1017.49L109.553 1017.67C109.918 1019.68 110.244 1021.63 110.533 1023.52L111.522 1023.37ZM109.321 1011.28C108.934 1009.42 108.516 1007.52 108.067 1005.57L107.092 1005.8C107.54 1007.74 107.956 1009.63 108.342 1011.48L109.321 1011.28ZM106.651 999.705C106.148 997.707 105.615 995.666 105.05 993.582L104.084 993.843C104.648 995.921 105.18 997.957 105.681 999.949L106.651 999.705ZM103.473 987.945C102.932 986.064 102.366 984.151 101.774 982.205L100.817 982.496C101.407 984.437 101.972 986.346 102.512 988.222L103.473 987.945ZM99.9246 976.269C99.315 974.36 98.6823 972.421 98.026 970.452L97.0773 970.768C97.7323 972.733 98.3637 974.668 98.9719 976.573L99.9246 976.269ZM96.1371 964.894C95.4869 963.015 94.816 961.111 94.124 959.181L93.1827 959.519C93.8735 961.445 94.5432 963.346 95.1921 965.221L96.1371 964.894ZM91.9843 953.315C91.6171 952.324 91.2445 951.327 90.8664 950.324L89.9306 950.676C90.308 951.678 90.6801 952.674 91.0467 953.662L91.9843 953.315ZM90.8664 950.324C90.4809 949.3 90.0964 948.29 89.713 947.293L88.7797 947.652C89.1622 948.647 89.5459 949.655 89.9306 950.676L90.8664 950.324ZM87.4255 941.471C86.6673 939.582 85.9134 937.746 85.1639 935.961L84.2419 936.348C84.9893 938.128 85.7412 939.959 86.4975 941.843L87.4255 941.471ZM82.9284 930.759C82.0784 928.828 81.2342 926.963 80.3959 925.164L79.4895 925.586C80.3246 927.379 81.1659 929.237 82.0131 931.162L82.9284 930.759ZM77.7264 919.615C76.8432 917.839 75.9668 916.137 75.0972 914.506L74.2149 914.977C75.0798 916.598 75.9518 918.292 76.831 920.06L77.7264 919.615ZM72.1652 909.234C71.0872 907.38 70.0201 905.637 68.9638 904.004L68.1241 904.546C69.171 906.166 70.23 907.895 71.3007 909.737L72.1652 909.234ZM65.8048 899.395C64.458 897.549 63.1293 895.883 61.8191 894.391L61.0675 895.05C62.3557 896.518 63.6657 898.16 64.997 899.984L65.8048 899.395ZM57.7969 890.295C56.1039 888.78 54.4406 887.558 52.8075 886.619L52.3091 887.486C53.8723 888.385 55.4797 889.563 57.1299 891.04L57.7969 890.295ZM47.1122 884.454C45.0384 884.081 43.0292 884.188 41.0925 884.741L41.3672 885.703C43.1557 885.192 45.0104 885.092 46.9352 885.438L47.1122 884.454ZM35.7269 887.533C34.2184 888.692 32.771 890.139 31.3844 891.847L32.1608 892.477C33.5078 890.818 34.9006 889.429 36.3362 888.326L35.7269 887.533ZM27.9122 896.864C26.955 898.462 26.0296 900.197 25.1363 902.057L26.0378 902.49C26.9195 900.654 27.8306 898.947 28.7702 897.377L27.9122 896.864ZM22.6571 907.746C21.966 909.486 21.2969 911.308 20.6501 913.206L21.5967 913.529C22.2386 911.645 22.902 909.838 23.5864 908.115L22.6571 907.746ZM18.7795 919.117C18.2465 920.929 17.731 922.797 17.2332 924.717L18.2012 924.968C18.6964 923.058 19.209 921.2 19.7388 919.4L18.7795 919.117ZM15.7934 930.633C15.3606 932.527 14.9436 934.464 14.5425 936.441L15.5225 936.64C15.9221 934.67 16.3374 932.741 16.7682 930.856L15.7934 930.633ZM13.4202 942.305C13.0647 944.276 12.724 946.282 12.3982 948.32L13.3856 948.478C13.7104 946.446 14.0501 944.447 14.4044 942.483L13.4202 942.305ZM11.5215 954.131C11.2425 956.095 10.9767 958.085 10.7243 960.099L11.7165 960.224C11.9683 958.215 12.2333 956.23 12.5116 954.272L11.5215 954.131ZM10.0214 966.081C9.80764 968.027 9.60593 969.992 9.41637 971.975L10.4118 972.07C10.601 970.092 10.8022 968.131 11.0154 966.19L10.0214 966.081ZM8.88426 977.975C8.72217 979.955 8.57189 981.949 8.43352 983.958L9.43116 984.026C9.56923 982.022 9.71919 980.032 9.88092 978.057L8.88426 977.975ZM8.06161 989.892C7.94911 991.881 7.84811 993.883 7.75872 995.894L8.75773 995.939C8.84695 993.931 8.94775 991.934 9.06002 989.948L8.06161 989.892ZM7.52762 1001.89C7.46295 1003.87 7.40939 1005.85 7.36702 1007.84L8.36679 1007.87C8.40908 1005.88 8.46254 1003.9 8.52709 1001.92L7.52762 1001.89ZM7.27357 1013.84C7.25376 1015.83 7.24513 1017.83 7.24779 1019.84L8.24779 1019.84C8.24514 1017.84 8.25374 1015.84 8.27352 1013.85L7.27357 1013.84ZM7.28908 1025.81C7.31399 1027.8 7.35008 1029.8 7.39745 1031.79L8.39716 1031.77C8.34989 1029.78 8.31387 1027.79 8.289 1025.8L7.28908 1025.81ZM7.57343 1037.78C7.64345 1039.78 7.72484 1041.77 7.81768 1043.77L8.81659 1043.72C8.72394 1041.73 8.64271 1039.74 8.57282 1037.75L7.57343 1037.78ZM8.13064 1049.74C8.2465 1051.73 8.37391 1053.71 8.51295 1055.69L9.5105 1055.62C9.37173 1053.64 9.24458 1051.66 9.12895 1049.68L8.13064 1049.74ZM8.97147 1061.69C9.13632 1063.68 9.31319 1065.67 9.50219 1067.65L10.4977 1067.56C10.3091 1065.58 10.1326 1063.6 9.96807 1061.61L8.97147 1061.69ZM10.1057 1073.56C10.3242 1075.57 10.5555 1077.57 10.7998 1079.56L11.7923 1079.44C11.5486 1077.45 11.3178 1075.46 11.0998 1073.45L10.1057 1073.56ZM11.5733 1085.5C11.8442 1087.46 12.1281 1089.42 12.4253 1091.36L13.4137 1091.21C13.1174 1089.27 12.8342 1087.32 12.564 1085.36L11.5733 1085.5ZM13.3913 1097.33C13.7291 1099.32 14.0812 1101.29 14.4479 1103.23L15.4306 1103.05C15.0651 1101.11 14.7139 1099.15 14.3771 1097.17L13.3913 1097.33ZM15.5916 1109.01C16.0089 1111.02 16.4425 1113.01 16.8925 1114.97L17.8671 1114.74C17.4187 1112.79 16.9866 1110.81 16.5707 1108.81L15.5916 1109.01ZM18.2938 1120.78C18.7851 1122.71 19.2935 1124.62 19.8191 1126.5L20.7821 1126.23C20.2588 1124.36 19.7525 1122.46 19.2632 1120.53L18.2938 1120.78ZM21.542 1132.35C22.1357 1134.26 22.7487 1136.13 23.3815 1137.96L24.3268 1137.64C23.6976 1135.81 23.0877 1133.95 22.497 1132.05L21.542 1132.35ZM25.4565 1143.65C26.1918 1145.55 26.9506 1147.41 27.7332 1149.21L28.6502 1148.81C27.8734 1147.02 27.1199 1145.18 26.3894 1143.29L25.4565 1143.65ZM30.231 1154.6C31.1526 1156.46 32.1039 1158.26 33.0851 1159.98L33.9537 1159.48C32.9829 1157.78 32.0409 1156 31.1275 1154.15L30.231 1154.6ZM36.1809 1165C37.3494 1166.75 38.5563 1168.4 39.8023 1169.94L40.5803 1169.31C39.3548 1167.79 38.1656 1166.17 37.0125 1164.44L36.1809 1165ZM43.7804 1174.36C45.2627 1175.83 46.795 1177.16 48.378 1178.34L48.9746 1177.53C47.4327 1176.39 45.9361 1175.09 44.4844 1173.65L43.7804 1174.36ZM53.4988 1181.51C55.3187 1182.43 57.1975 1183.16 59.1358 1183.68L59.3983 1182.72C57.5273 1182.21 55.711 1181.51 53.9483 1180.62L53.4988 1181.51ZM65.0782 1184.65C67.0345 1184.76 69.0422 1184.68 71.1014 1184.4L70.9658 1183.41C68.9682 1183.68 67.0252 1183.76 65.1355 1183.65L65.0782 1184.65ZM77.0093 1183.08C78.8226 1182.52 80.6719 1181.81 82.5576 1180.94L82.1417 1180.03C80.2924 1180.88 78.4833 1181.57 76.714 1182.12L77.0093 1183.08ZM87.9195 1178.13C88.8291 1177.6 89.7467 1177.02 90.6724 1176.42L90.1247 1175.58C89.2115 1176.18 88.3071 1176.74 87.4113 1177.27L87.9195 1178.13ZM90.6724 1176.42C91.5626 1175.84 92.44 1175.27 93.3047 1174.72L92.7668 1173.87C91.8987 1174.43 91.0181 1175 90.1247 1175.58L90.6724 1176.42ZM98.3415 1171.59C100.069 1170.55 101.74 1169.58 103.356 1168.67L102.867 1167.8C101.241 1168.71 99.5607 1169.69 97.8255 1170.73L98.3415 1171.59ZM108.59 1165.87C110.437 1164.93 112.204 1164.08 113.891 1163.33L113.485 1162.42C111.78 1163.18 109.998 1164.03 108.136 1164.98L108.59 1165.87ZM119.166 1161.2C121.204 1160.46 123.103 1159.89 124.869 1159.47L124.638 1158.5C122.83 1158.93 120.895 1159.51 118.826 1160.26L119.166 1161.2ZM130.603 1158.61C132.742 1158.51 134.602 1158.71 136.208 1159.19L136.491 1158.23C134.758 1157.72 132.784 1157.51 130.556 1157.61L130.603 1158.61ZM140.991 1162.04C142.227 1163.32 143.177 1164.95 143.861 1166.89L144.805 1166.56C144.081 1164.5 143.064 1162.75 141.711 1161.34L140.991 1162.04ZM145.052 1172.58C145.23 1174.39 145.273 1176.34 145.193 1178.42L146.192 1178.46C146.274 1176.34 146.23 1174.34 146.047 1172.48L145.052 1172.58ZM144.7 1184.23C144.467 1186.08 144.161 1188.01 143.788 1190L144.771 1190.18C145.147 1188.17 145.457 1186.23 145.692 1184.36L144.7 1184.23ZM142.57 1195.74C142.131 1197.61 141.644 1199.52 141.114 1201.47L142.079 1201.73C142.612 1199.77 143.102 1197.85 143.543 1195.97L142.57 1195.74ZM139.475 1207.16C138.919 1209 138.33 1210.86 137.711 1212.75L138.661 1213.06C139.282 1211.17 139.874 1209.3 140.433 1207.45L139.475 1207.16ZM135.811 1218.34C135.166 1220.18 134.498 1222.04 133.808 1223.9L134.746 1224.25C135.438 1222.38 136.108 1220.52 136.755 1218.67L135.811 1218.34ZM131.727 1229.41C131.021 1231.24 130.297 1233.07 129.559 1234.91L130.487 1235.28C131.226 1233.44 131.952 1231.6 132.66 1229.77L131.727 1229.41ZM127.329 1240.37C126.574 1242.18 125.808 1244 125.034 1245.81L125.954 1246.2C126.729 1244.39 127.496 1242.57 128.252 1240.75L127.329 1240.37ZM122.689 1251.22C121.893 1253.03 121.091 1254.83 120.286 1256.62L121.198 1257.03C122.004 1255.24 122.807 1253.43 123.605 1251.62L122.689 1251.22ZM117.84 1262C117.013 1263.79 116.186 1265.57 115.361 1267.33L116.266 1267.76C117.092 1266 117.921 1264.22 118.749 1262.41L117.84 1262ZM112.82 1272.7C111.959 1274.5 111.103 1276.27 110.258 1278.01L111.157 1278.44C112.004 1276.7 112.86 1274.93 113.722 1273.13L112.82 1272.7ZM107.673 1283.27C106.77 1285.1 105.883 1286.88 105.016 1288.6L105.91 1289.05C106.777 1287.32 107.665 1285.55 108.569 1283.72L107.673 1283.27ZM102.34 1293.88C101.404 1295.72 100.502 1297.47 99.6405 1299.13L100.528 1299.59C101.39 1297.93 102.293 1296.17 103.23 1294.34L102.34 1293.88ZM96.9073 1304.36C95.8857 1306.3 94.9524 1308.06 94.1243 1309.6L95.0059 1310.07C95.835 1308.53 96.7694 1306.77 97.7921 1304.83L96.9073 1304.36ZM91.373 1314.69C90.9183 1315.53 90.5653 1316.17 90.3262 1316.6C90.2066 1316.82 90.1154 1316.98 90.0542 1317.09C90.0236 1317.15 90.0005 1317.19 89.9851 1317.21C89.9774 1317.23 89.9716 1317.24 89.9677 1317.25C89.9658 1317.25 89.9643 1317.25 89.9634 1317.25C89.9629 1317.25 89.9625 1317.26 89.9623 1317.26C89.9622 1317.26 89.9621 1317.26 89.962 1317.26C89.962 1317.26 89.962 1317.26 89.962 1317.26C89.962 1317.26 89.962 1317.26 89.962 1317.26C89.962 1317.26 89.962 1317.26 90.3985 1317.5C90.8351 1317.74 90.8351 1317.74 90.8351 1317.74C90.8351 1317.74 90.8351 1317.74 90.8351 1317.74C90.8351 1317.74 90.8352 1317.74 90.8352 1317.74C90.8353 1317.74 90.8354 1317.74 90.8355 1317.74C90.8357 1317.74 90.8361 1317.74 90.8366 1317.74C90.8376 1317.74 90.8391 1317.74 90.8411 1317.73C90.845 1317.73 90.8509 1317.72 90.8587 1317.7C90.8744 1317.67 90.8977 1317.63 90.9284 1317.58C90.99 1317.47 91.0815 1317.3 91.2015 1317.08C91.4414 1316.65 91.7951 1316.01 92.2506 1315.17L91.373 1314.69ZM90.612 1317.95L93.612 1316.54L93.185 1315.63L90.185 1317.05L90.612 1317.95ZM99.6119 1313.7L105.612 1310.87L105.185 1309.96L99.1849 1312.8L99.6119 1313.7ZM111.612 1308.04L117.612 1305.2L117.185 1304.3L111.185 1307.13L111.612 1308.04ZM123.612 1302.37L126.611 1300.95L126.184 1300.05L123.184 1301.46L123.612 1302.37ZM126.49 1300.01L123.157 1299.38L122.972 1300.37L126.306 1300.99L126.49 1300.01ZM116.49 1298.13L109.823 1296.88L109.639 1297.87L116.306 1299.12L116.49 1298.13ZM103.157 1295.63L96.4901 1294.38L96.3058 1295.37L102.972 1296.62L103.157 1295.63ZM89.8234 1293.13L86.4901 1292.51L86.3058 1293.49L89.6391 1294.12L89.8234 1293.13ZM86.0413 1293.35L88.4163 1295.77L89.1296 1295.07L86.7546 1292.65L86.0413 1293.35ZM93.1663 1300.6L97.9163 1305.43L98.6296 1304.73L93.8796 1299.9L93.1663 1300.6ZM102.666 1310.27L107.416 1315.1L108.13 1314.4L103.38 1309.57L102.666 1310.27ZM112.166 1319.93L114.541 1322.35L115.255 1321.65L112.88 1319.23L112.166 1319.93ZM115.393 1321.93L114.935 1318.6L113.944 1318.73L114.403 1322.07L115.393 1321.93ZM114.018 1311.93L113.102 1305.27L112.111 1305.4L113.028 1312.07L114.018 1311.93ZM112.185 1298.6L111.268 1291.93L110.278 1292.07L111.194 1298.73L112.185 1298.6ZM110.352 1285.27L109.893 1281.93L108.903 1282.07L109.361 1285.4L110.352 1285.27Z" fill="black"/>
</svg>
