<svg width="184" height="1323" viewBox="0 0 184 1323" fill="none" xmlns="http://www.w3.org/2000/svg">
<path d="M90.0006 246.5L90.1759 246.032L90.0006 246.5ZM90.0006 408.5L89.6102 408.812L90.0006 408.5ZM90.0006 633.5L90.4699 633.673L90.0006 633.5ZM90.0006 950.5L90.4685 950.324L90.0006 950.5ZM90.0006 1317.5L89.564 1317.26C89.4581 1317.45 89.4868 1317.68 89.6352 1317.84C89.7836 1318 90.0175 1318.04 90.2141 1317.95L90.0006 1317.5ZM126 1300.5L126.214 1300.95C126.41 1300.86 126.524 1300.65 126.496 1300.44C126.468 1300.22 126.305 1300.05 126.092 1300.01L126 1300.5ZM86 1293L86.0921 1292.51C85.8775 1292.47 85.6615 1292.57 85.5588 1292.76C85.456 1292.96 85.4903 1293.19 85.6434 1293.35L86 1293ZM114.5 1322L114.143 1322.35C114.294 1322.5 114.527 1322.54 114.72 1322.45C114.914 1322.35 115.025 1322.15 114.995 1321.93L114.5 1322ZM109.495 1281.93C109.458 1281.66 109.205 1281.47 108.932 1281.5C108.658 1281.54 108.467 1281.79 108.505 1282.07L109.495 1281.93ZM86.3957 0.731346C86.1204 0.751733 85.9136 0.991507 85.934 1.2669C85.9544 1.54228 86.1942 1.749 86.4696 1.72862L86.3957 0.731346ZM81.5075 2.16413C81.7822 2.13617 81.9822 1.89081 81.9543 1.61608C81.9263 1.34136 81.681 1.14131 81.4062 1.16926L81.5075 2.16413ZM74.3911 2.02693C74.1178 2.06611 73.9279 2.31947 73.9671 2.59281C74.0063 2.86616 74.2596 3.05599 74.533 3.01681L74.3911 2.02693ZM69.6583 3.79083C69.9304 3.74334 70.1124 3.48433 70.0649 3.2123C70.0174 2.94027 69.7584 2.75824 69.4864 2.80573L69.6583 3.79083ZM62.5336 4.18339C62.264 4.24337 62.0941 4.51051 62.1541 4.78006C62.2141 5.04961 62.4812 5.2195 62.7508 5.15952L62.5336 4.18339ZM57.8842 6.33116C58.1515 6.2618 58.312 5.9889 58.2426 5.72161C58.1733 5.45432 57.9004 5.29386 57.6331 5.36321L57.8842 6.33116ZM50.8881 7.29924C50.6247 7.38239 50.4787 7.66326 50.5618 7.92659C50.645 8.18992 50.9258 8.33598 51.1892 8.25284L50.8881 7.29924ZM46.4325 9.8595C46.6923 9.76584 46.8269 9.47932 46.7333 9.21955C46.6396 8.95978 46.3531 8.82512 46.0933 8.91878L46.4325 9.8595ZM39.5273 11.5099C39.2736 11.6191 39.1566 11.9133 39.2658 12.1669C39.375 12.4205 39.6691 12.5376 39.9227 12.4284L39.5273 11.5099ZM35.3991 14.5014C35.6474 14.3804 35.7506 14.0811 35.6296 13.8329C35.5087 13.5847 35.2094 13.4815 34.9611 13.6024L35.3991 14.5014ZM28.7361 16.912C28.4972 17.0505 28.4157 17.3564 28.5542 17.5953C28.6927 17.8342 28.9986 17.9157 29.2375 17.7772L28.7361 16.912ZM25.0064 20.3896C25.2371 20.2379 25.3011 19.9278 25.1494 19.6971C24.9976 19.4664 24.6875 19.4024 24.4568 19.5542L25.0064 20.3896ZM18.7381 23.6827C18.5218 23.8543 18.4856 24.1688 18.6572 24.3851C18.8289 24.6014 19.1434 24.6377 19.3597 24.466L18.7381 23.6827ZM15.5505 27.7159C15.7538 27.5291 15.7671 27.2128 15.5802 27.0094C15.3933 26.8061 15.077 26.7928 14.8737 26.9797L15.5505 27.7159ZM9.96283 32.0339C9.78261 32.2432 9.80612 32.5589 10.0153 32.7391C10.2246 32.9193 10.5403 32.8958 10.7205 32.6866L9.96283 32.0339ZM7.65726 36.6097C7.81599 36.3837 7.76147 36.0719 7.53551 35.9131C7.30954 35.7544 6.99769 35.8089 6.83896 36.0349L7.65726 36.6097ZM3.2288 42.1703C3.10995 42.4196 3.21568 42.718 3.46494 42.8368C3.7142 42.9557 4.0126 42.85 4.13145 42.6007L3.2288 42.1703ZM2.3282 47.1991C2.40929 46.9352 2.26104 46.6554 1.99707 46.5743C1.73311 46.4932 1.45338 46.6415 1.37229 46.9055L2.3282 47.1991ZM0.126598 53.9024C0.114339 54.1783 0.328038 54.4119 0.603908 54.4241C0.879778 54.4364 1.11335 54.2227 1.12561 53.9468L0.126598 53.9024ZM1.43056 58.8432C1.38296 58.5712 1.12387 58.3893 0.851862 58.4369C0.579853 58.4845 0.397931 58.7436 0.445528 59.0156L1.43056 58.8432ZM2.81345 65.7684C2.94637 66.0105 3.25034 66.0989 3.49239 65.966C3.73444 65.8331 3.8229 65.5291 3.68998 65.2871L2.81345 65.7684ZM6.50588 69.2723C6.32296 69.0654 6.00697 69.046 5.8001 69.2289C5.59323 69.4119 5.57382 69.7278 5.75674 69.9347L6.50588 69.2723ZM11.1638 74.5916C11.3938 74.7444 11.7041 74.6817 11.8569 74.4517C12.0096 74.2216 11.947 73.9113 11.7169 73.7586L11.1638 74.5916ZM16.0253 76.1704C15.7754 76.0528 15.4776 76.1601 15.36 76.41C15.2425 76.6599 15.3497 76.9577 15.5996 77.0753L16.0253 76.1704ZM22.2542 79.5489C22.5197 79.6252 22.7966 79.4718 22.8728 79.2064C22.9491 78.941 22.7957 78.664 22.5303 78.5878L22.2542 79.5489ZM27.3792 79.7393C27.108 79.6873 26.846 79.865 26.794 80.1362C26.742 80.4074 26.9196 80.6694 27.1908 80.7214L27.3792 79.7393ZM34.2112 81.6871C34.4863 81.7113 34.7289 81.508 34.7532 81.2329C34.7774 80.9578 34.5741 80.7152 34.299 80.691L34.2112 81.6871ZM39.1997 80.9746C38.9237 80.9665 38.6934 81.1838 38.6853 81.4598C38.6772 81.7358 38.8944 81.9661 39.1705 81.9742L39.1997 80.9746ZM46.2112 81.9257C46.4871 81.9144 46.7017 81.6816 46.6904 81.4057C46.6792 81.1298 46.4464 80.9153 46.1705 80.9265L46.2112 81.9257ZM51.1942 80.6109C50.919 80.634 50.7147 80.8758 50.7378 81.151C50.7609 81.4262 51.0028 81.6305 51.2779 81.6074L51.1942 80.6109ZM58.318 80.8259C58.5916 80.7885 58.7831 80.5364 58.7457 80.2628C58.7083 79.9892 58.4561 79.7977 58.1825 79.8351L58.318 80.8259ZM63.0373 79.0909C62.7651 79.137 62.5818 79.3951 62.6279 79.6674C62.674 79.9396 62.9321 80.123 63.2044 80.0768L63.0373 79.0909ZM70.166 78.7483C70.4362 78.6912 70.6089 78.4258 70.5517 78.1557C70.4946 77.8855 70.2293 77.7128 69.9591 77.7699L70.166 78.7483ZM74.7972 76.6809C74.5286 76.7449 74.3627 77.0146 74.4268 77.2832C74.4908 77.5518 74.7605 77.7177 75.0291 77.6536L74.7972 76.6809ZM81.8594 75.9046C82.1257 75.8319 82.2827 75.5569 82.2099 75.2905C82.1371 75.0242 81.8622 74.8672 81.5958 74.94L81.8594 75.9046ZM86.4019 73.5713C86.1371 73.6497 85.986 73.9279 86.0644 74.1927C86.1428 74.4575 86.421 74.6086 86.6858 74.5302L86.4019 73.5713ZM93.5474 72.4846C93.8138 72.4121 93.971 72.1373 93.8985 71.8708C93.8259 71.6044 93.5511 71.4472 93.2847 71.5198L93.5474 72.4846ZM98.0807 70.3502C97.8107 70.4082 97.6389 70.6741 97.6969 70.9441C97.7549 71.214 98.0208 71.3859 98.2908 71.3278L98.0807 70.3502ZM105.026 70.1689C105.3 70.1338 105.494 69.8833 105.459 69.6094C105.424 69.3355 105.173 69.1419 104.899 69.177L105.026 70.1689ZM109.792 68.7121C109.517 68.729 109.307 68.9661 109.324 69.2418C109.341 69.5174 109.578 69.7271 109.853 69.7102L109.792 68.7121ZM116.703 69.636C116.978 69.6473 117.211 69.4329 117.223 69.157C117.234 68.8811 117.02 68.6482 116.744 68.6368L116.703 69.636ZM121.604 69.0246C121.33 68.9919 121.081 69.1876 121.048 69.4618C121.016 69.736 121.211 69.9848 121.486 70.0175L121.604 69.0246ZM128.243 71.2259C128.511 71.2905 128.781 71.1253 128.846 70.8568C128.911 70.5884 128.745 70.3183 128.477 70.2537L128.243 71.2259ZM133.232 71.6177C132.971 71.5301 132.687 71.6714 132.6 71.9333C132.512 72.1952 132.653 72.4785 132.915 72.5661L133.232 71.6177ZM139.22 75.1114C139.47 75.2302 139.768 75.1244 139.887 74.8751C140.006 74.6258 139.9 74.3274 139.651 74.2086L139.22 75.1114ZM144.037 76.5371C143.799 76.3972 143.492 76.4769 143.353 76.715C143.213 76.9531 143.292 77.2595 143.53 77.3994L144.037 76.5371ZM149.191 81.1862C149.412 81.3526 149.725 81.309 149.892 81.0886C150.058 80.8683 150.014 80.5548 149.794 80.3883L149.191 81.1862ZM153.632 83.5343C153.425 83.351 153.109 83.3699 152.926 83.5765C152.743 83.7831 152.762 84.0991 152.968 84.2824L153.632 83.5343ZM157.827 89.0648C158.014 89.2682 158.33 89.2816 158.534 89.0948C158.737 88.908 158.75 88.5917 158.564 88.3883L157.827 89.0648ZM161.783 92.1422C161.61 91.9267 161.295 91.892 161.08 92.0647C160.864 92.2374 160.83 92.552 161.002 92.7675L161.783 92.1422ZM165.047 98.3013C165.201 98.531 165.511 98.593 165.741 98.4397C165.97 98.2865 166.032 97.976 165.879 97.7463L165.047 98.3013ZM168.492 101.918C168.352 101.68 168.045 101.6 167.807 101.74C167.569 101.88 167.49 102.186 167.63 102.424L168.492 101.918ZM170.877 108.455C170.999 108.702 171.299 108.804 171.547 108.682C171.794 108.56 171.896 108.26 171.774 108.013L170.877 108.455ZM173.851 112.504C173.741 112.251 173.447 112.134 173.193 112.244C172.94 112.354 172.823 112.648 172.933 112.902L173.851 112.504ZM175.45 119.263C175.543 119.523 175.83 119.658 176.089 119.565C176.349 119.471 176.484 119.185 176.391 118.925L175.45 119.263ZM177.968 123.625C177.886 123.362 177.605 123.215 177.342 123.297C177.078 123.379 176.931 123.66 177.014 123.923L177.968 123.625ZM178.865 130.51C178.933 130.777 179.204 130.94 179.472 130.873C179.74 130.805 179.902 130.534 179.835 130.266L178.865 130.51ZM180.946 135.079C180.889 134.809 180.624 134.636 180.354 134.693C180.083 134.75 179.911 135.015 179.967 135.285L180.946 135.079ZM181.206 142.034C181.249 142.307 181.505 142.493 181.778 142.451C182.051 142.408 182.237 142.152 182.194 141.879L181.206 142.034ZM182.871 146.763C182.838 146.488 182.589 146.293 182.315 146.326C182.041 146.359 181.845 146.608 181.878 146.882L182.871 146.763ZM182.53 153.715C182.549 153.99 182.788 154.198 183.064 154.178C183.339 154.159 183.547 153.92 183.527 153.644L182.53 153.715ZM183.788 158.571C183.778 158.295 183.547 158.079 183.271 158.089C182.995 158.099 182.779 158.33 182.789 158.606L183.788 158.571ZM182.864 165.468C182.861 165.744 183.082 165.971 183.358 165.974C183.634 165.978 183.861 165.757 183.864 165.481L182.864 165.468ZM183.712 170.413C183.725 170.137 183.512 169.903 183.236 169.889C182.961 169.876 182.726 170.088 182.713 170.364L183.712 170.413ZM182.208 177.21C182.181 177.484 182.382 177.729 182.656 177.757C182.931 177.784 183.176 177.583 183.203 177.308L182.208 177.21ZM182.628 182.2C182.665 181.926 182.473 181.674 182.2 181.637C181.926 181.599 181.674 181.791 181.637 182.065L182.628 182.2ZM180.527 188.844C180.475 189.115 180.653 189.377 180.924 189.429C181.196 189.481 181.458 189.303 181.509 189.032L180.527 188.844ZM180.487 193.85C180.55 193.581 180.383 193.312 180.114 193.25C179.845 193.187 179.576 193.354 179.513 193.623L180.487 193.85ZM177.759 200.253C177.681 200.518 177.831 200.796 178.096 200.875C178.361 200.953 178.639 200.803 178.718 200.538L177.759 200.253ZM177.203 205.249C177.293 204.988 177.155 204.703 176.894 204.613C176.634 204.522 176.349 204.66 176.258 204.921L177.203 205.249ZM173.805 211.293C173.697 211.548 173.816 211.841 174.07 211.949C174.324 212.057 174.617 211.939 174.725 211.685L173.805 211.293ZM172.663 216.203C172.784 215.955 172.682 215.656 172.434 215.534C172.186 215.413 171.886 215.516 171.765 215.764L172.663 216.203ZM168.519 221.783C168.378 222.02 168.456 222.327 168.693 222.468C168.931 222.609 169.238 222.531 169.379 222.293L168.519 221.783ZM166.731 226.454C166.887 226.226 166.828 225.915 166.6 225.759C166.371 225.604 166.06 225.663 165.905 225.891L166.731 226.454ZM161.784 231.356C161.607 231.568 161.635 231.883 161.847 232.06C162.059 232.237 162.375 232.208 162.552 231.996L161.784 231.356ZM159.243 235.672C159.436 235.474 159.431 235.158 159.233 234.965C159.035 234.773 158.719 234.778 158.526 234.976L159.243 235.672ZM153.511 239.587C153.297 239.762 153.265 240.077 153.44 240.29C153.615 240.504 153.93 240.536 154.143 240.361L153.511 239.587ZM150.169 243.332C150.397 243.176 150.456 242.865 150.301 242.637C150.145 242.409 149.834 242.35 149.606 242.505L150.169 243.332ZM143.752 245.966C143.505 246.091 143.407 246.392 143.532 246.638C143.657 246.885 143.958 246.983 144.204 246.858L143.752 245.966ZM139.661 248.901C139.918 248.799 140.044 248.509 139.943 248.252C139.841 247.995 139.551 247.869 139.294 247.97L139.661 248.901ZM132.829 250.044C132.561 250.112 132.398 250.383 132.466 250.651C132.533 250.919 132.805 251.081 133.072 251.014L132.829 250.044ZM128.239 252C128.512 251.957 128.698 251.701 128.655 251.428C128.611 251.155 128.355 250.969 128.083 251.012L128.239 252ZM121.255 251.678C120.979 251.688 120.764 251.921 120.774 252.197C120.785 252.473 121.018 252.688 121.293 252.677L121.255 251.678ZM116.41 252.679C116.686 252.689 116.918 252.474 116.928 252.198C116.938 251.922 116.723 251.69 116.447 251.68L116.41 252.679ZM109.631 251.085C109.357 251.047 109.106 251.239 109.068 251.513C109.031 251.786 109.223 252.038 109.497 252.076L109.631 251.085ZM104.635 251.257C104.906 251.312 105.169 251.136 105.223 250.865C105.277 250.594 105.102 250.331 104.831 250.277L104.635 251.257ZM98.1958 248.672C97.9301 248.597 97.6538 248.751 97.5787 249.017C97.5036 249.283 97.6581 249.559 97.9239 249.634L98.1958 248.672ZM93.2038 248.171C93.4654 248.259 93.7491 248.118 93.8373 247.857C93.9255 247.595 93.7849 247.311 93.5232 247.223L93.2038 248.171ZM86.5878 244.762C86.3257 244.675 86.0427 244.816 85.9556 245.078C85.8685 245.34 86.0103 245.623 86.2723 245.711L86.5878 244.762ZM81.5514 244.294C81.8183 244.365 82.0921 244.206 82.1628 243.939C82.2335 243.672 82.0745 243.398 81.8076 243.328L81.5514 244.294ZM74.8412 241.916C74.5674 241.88 74.3162 242.073 74.2802 242.346C74.2442 242.62 74.437 242.871 74.7108 242.907L74.8412 241.916ZM69.9974 242.586C70.2735 242.585 70.4966 242.361 70.4957 242.085C70.4948 241.808 70.2702 241.585 69.9941 241.586L69.9974 242.586ZM62.9292 242.648C62.6676 242.736 62.5269 243.02 62.6151 243.281C62.7033 243.543 62.987 243.684 63.2486 243.596L62.9292 242.648ZM58.9969 245.862C59.2138 245.692 59.2513 245.377 59.0805 245.16C58.9097 244.943 58.5953 244.906 58.3783 245.077L58.9969 245.862ZM54.0011 250.718C53.8838 250.968 53.9914 251.266 54.2414 251.383C54.4914 251.5 54.7891 251.393 54.9064 251.143L54.0011 250.718ZM53.3609 255.848C53.4191 255.578 53.2474 255.312 52.9775 255.254C52.7076 255.196 52.4415 255.367 52.3833 255.637L53.3609 255.848ZM51.6176 262.679C51.6117 262.955 51.8307 263.184 52.1068 263.19C52.3828 263.196 52.6115 262.977 52.6174 262.701L51.6176 262.679ZM52.7315 267.541C52.7139 267.266 52.4762 267.056 52.2006 267.074C51.925 267.092 51.7159 267.33 51.7336 267.605L52.7315 267.541ZM52.5075 274.63C52.5487 274.903 52.8035 275.091 53.0765 275.049C53.3496 275.008 53.5375 274.753 53.4963 274.48L52.5075 274.63ZM54.3669 279.452C54.3134 279.181 54.0504 279.005 53.7795 279.059C53.5086 279.112 53.3323 279.375 53.3858 279.646L54.3669 279.452ZM54.9059 286.447C54.9723 286.715 55.2433 286.878 55.5114 286.812C55.7795 286.746 55.943 286.475 55.8767 286.207L54.9059 286.447ZM57.1721 291.139C57.0984 290.873 56.8229 290.717 56.5568 290.791C56.2907 290.865 56.1347 291.14 56.2084 291.406L57.1721 291.139ZM58.1663 298.061C58.2482 298.324 58.5283 298.472 58.792 298.39C59.0558 298.308 59.2032 298.028 59.1214 297.764L58.1663 298.061ZM60.6691 302.588C60.5824 302.326 60.2995 302.184 60.0373 302.271C59.7752 302.357 59.633 302.64 59.7197 302.902L60.6691 302.588ZM61.9814 309.489C62.0738 309.749 62.3597 309.885 62.6199 309.793C62.8801 309.701 63.0161 309.415 62.9237 309.155L61.9814 309.489ZM64.649 313.908C64.5531 313.649 64.2654 313.517 64.0064 313.613C63.7475 313.709 63.6153 313.996 63.7113 314.255L64.649 313.908ZM66.1871 320.772C66.2872 321.029 66.577 321.157 66.8343 321.057C67.0917 320.956 67.2192 320.667 67.1191 320.409L66.1871 320.772ZM68.9748 325.107C68.8721 324.851 68.581 324.726 68.3247 324.829C68.0684 324.932 67.9439 325.223 68.0466 325.479L68.9748 325.107ZM70.6845 331.94C70.7904 332.195 71.083 332.316 71.338 332.21C71.5931 332.104 71.7139 331.812 71.608 331.557L70.6845 331.94ZM73.5537 336.187C73.4457 335.933 73.1522 335.814 72.898 335.922C72.6438 336.03 72.5253 336.324 72.6333 336.578L73.5537 336.187ZM75.4065 343.016C75.5169 343.269 75.8117 343.384 76.0647 343.274C76.3178 343.163 76.4334 342.869 76.3229 342.615L75.4065 343.016ZM78.3403 347.197C78.2282 346.944 77.9328 346.831 77.6804 346.943C77.428 347.055 77.3143 347.35 77.4263 347.603L78.3403 347.197ZM80.3033 354.012C80.4173 354.263 80.7136 354.375 80.9651 354.26C81.2166 354.146 81.328 353.85 81.214 353.599L80.3033 354.012ZM83.2912 358.148C83.1759 357.897 82.879 357.787 82.6281 357.903C82.3772 358.018 82.2673 358.315 82.3826 358.566L83.2912 358.148ZM85.3356 364.938C85.4525 365.189 85.75 365.297 86.0002 365.18C86.2504 365.063 86.3585 364.765 86.2417 364.515L85.3356 364.938ZM88.3705 369.05C88.2526 368.8 87.9547 368.693 87.7049 368.811C87.4552 368.929 87.3482 369.227 87.4661 369.476L88.3705 369.05ZM90.4715 375.807C90.5905 376.056 90.889 376.162 91.1382 376.043C91.3874 375.924 91.4929 375.626 91.3739 375.376L90.4715 375.807ZM93.5464 379.909C93.4267 379.66 93.1279 379.556 92.8791 379.675C92.6302 379.795 92.5255 380.094 92.6452 380.343L93.5464 379.909ZM95.6843 386.635C95.8048 386.884 96.1039 386.987 96.3524 386.867C96.6008 386.747 96.7046 386.447 96.5842 386.199L95.6843 386.635ZM98.789 390.737C98.6682 390.489 98.3689 390.385 98.1206 390.506C97.8723 390.627 97.769 390.926 97.8899 391.175L98.789 390.737ZM100.95 397.449C101.071 397.697 101.37 397.8 101.618 397.678C101.867 397.557 101.969 397.258 101.848 397.01L100.95 397.449ZM104.064 401.546C103.943 401.298 103.644 401.195 103.395 401.316C103.147 401.437 103.044 401.737 103.166 401.985L104.064 401.546ZM106.236 408.281C106.357 408.529 106.656 408.633 106.904 408.512C107.153 408.391 107.256 408.092 107.135 407.844L106.236 408.281ZM109.315 412.337C109.195 412.089 108.896 411.985 108.647 412.105C108.399 412.225 108.295 412.524 108.415 412.772L109.315 412.337ZM111.469 419.144C111.587 419.393 111.885 419.499 112.135 419.381C112.384 419.263 112.49 418.965 112.372 418.715L111.469 419.144ZM114.46 423.164C114.344 422.914 114.047 422.805 113.796 422.921C113.546 423.037 113.437 423.334 113.553 423.585L114.46 423.164ZM116.412 429.939C116.522 430.192 116.816 430.309 117.07 430.199C117.323 430.09 117.44 429.795 117.33 429.542L116.412 429.939ZM119.243 434.205C119.145 433.947 118.856 433.818 118.598 433.916C118.34 434.014 118.211 434.303 118.309 434.561L119.243 434.205ZM119.73 440.613C119.502 440.769 119.444 441.08 119.6 441.308C119.756 441.535 120.067 441.593 120.295 441.437L119.73 440.613ZM115.547 438.985C115.751 439.172 116.067 439.159 116.254 438.956C116.441 438.753 116.428 438.436 116.225 438.249L115.547 438.985ZM111.421 433.335C111.235 433.131 110.919 433.117 110.715 433.304C110.511 433.49 110.497 433.807 110.684 434.01L111.421 433.335ZM107.258 430.168C107.439 430.376 107.755 430.397 107.963 430.216C108.171 430.034 108.193 429.718 108.011 429.51L107.258 430.168ZM103.613 424.369C103.435 424.158 103.12 424.131 102.909 424.308C102.697 424.486 102.67 424.802 102.848 425.013L103.613 424.369ZM99.4433 420.927C99.6192 421.14 99.9343 421.17 100.147 420.994C100.36 420.819 100.39 420.503 100.214 420.29L99.4433 420.927ZM95.9859 415.128C95.8117 414.914 95.4968 414.881 95.2825 415.055C95.0682 415.23 95.0357 415.544 95.2098 415.759L95.9859 415.128ZM91.9951 411.784C92.1682 411.999 92.483 412.033 92.6981 411.86C92.9132 411.686 92.9472 411.372 92.774 411.157L91.9951 411.784ZM88.1207 405.295C87.9523 405.077 87.6383 405.036 87.4195 405.204C87.2006 405.373 87.1598 405.686 87.3282 405.905L88.1207 405.295ZM84.2571 401.799C84.4194 402.022 84.732 402.072 84.9555 401.91C85.1789 401.747 85.2286 401.435 85.0663 401.211L84.2571 401.799ZM81.1553 395.591C81.0023 395.361 80.6919 395.299 80.462 395.452C80.2321 395.605 80.1698 395.915 80.3228 396.145L81.1553 395.591ZM77.489 391.73C77.6341 391.965 77.9422 392.038 78.1771 391.893C78.412 391.747 78.4848 391.439 78.3396 391.204L77.489 391.73ZM74.8227 385.192C74.6893 384.95 74.3852 384.862 74.1434 384.996C73.9016 385.129 73.8137 385.433 73.9471 385.675L74.8227 385.192ZM71.5662 381.153C71.69 381.4 71.9904 381.5 72.2373 381.376C72.4841 381.252 72.584 380.952 72.4603 380.705L71.5662 381.153ZM69.5008 374.334C69.3922 374.08 69.0984 373.962 68.8445 374.071C68.5906 374.179 68.4727 374.473 68.5812 374.727L69.5008 374.334ZM66.6961 370.009C66.7922 370.268 67.08 370.4 67.3389 370.304C67.5977 370.208 67.7296 369.92 67.6335 369.661L66.6961 370.009ZM65.4382 363.011C65.3618 362.745 65.0848 362.592 64.8194 362.668C64.554 362.745 64.4009 363.022 64.4773 363.287L65.4382 363.011ZM63.2068 358.314C63.2667 358.583 63.5338 358.753 63.8034 358.693C64.0729 358.633 64.2429 358.366 64.1829 358.096L63.2068 358.314ZM62.9957 351.277C62.9617 351.003 62.712 350.808 62.4379 350.842C62.1639 350.876 61.9693 351.126 62.0033 351.4L62.9957 351.277ZM61.5679 346.225C61.5797 346.501 61.8129 346.715 62.0888 346.704C62.3647 346.692 62.5788 346.458 62.5669 346.183L61.5679 346.225ZM62.7006 339.187C62.724 338.911 62.5199 338.669 62.2447 338.646C61.9696 338.623 61.7276 338.827 61.7042 339.102L62.7006 339.187ZM62.3835 334.128C62.3316 334.4 62.5095 334.662 62.7807 334.713C63.052 334.765 63.3139 334.587 63.3657 334.316L62.3835 334.128ZM65.2442 327.6C65.342 327.342 65.2119 327.053 64.9536 326.955C64.6954 326.857 64.4067 326.987 64.309 327.246L65.2442 327.6ZM66.4855 322.545C66.351 322.786 66.4376 323.091 66.6788 323.225C66.92 323.359 67.2245 323.273 67.359 323.032L66.4855 322.545ZM71.3995 317.407C71.5865 317.204 71.5735 316.888 71.3703 316.701C71.1672 316.514 70.8509 316.527 70.6638 316.73L71.3995 317.407ZM74.4967 313.287C74.2743 313.451 74.2265 313.763 74.3901 313.986C74.5537 314.208 74.8667 314.256 75.0892 314.093L74.4967 313.287ZM81.175 310.851C81.4352 310.758 81.5711 310.473 81.4786 310.212C81.3862 309.952 81.1003 309.816 80.8401 309.909L81.175 310.851ZM85.8479 308.713C85.574 308.748 85.3805 308.999 85.4156 309.273C85.4508 309.547 85.7013 309.74 85.9752 309.705L85.8479 308.713ZM92.9041 309.821C93.1769 309.864 93.4328 309.678 93.4757 309.405C93.5185 309.132 93.3321 308.876 93.0594 308.833L92.9041 309.821ZM98.0073 310.079C97.7464 309.989 97.4616 310.127 97.3711 310.388C97.2806 310.648 97.4187 310.933 97.6796 311.024L98.0073 310.079ZM103.959 314.011C104.194 314.155 104.502 314.08 104.646 313.844C104.789 313.608 104.715 313.301 104.479 313.157L103.959 314.011ZM108.63 316.068C108.414 315.896 108.099 315.931 107.927 316.147C107.755 316.363 107.791 316.678 108.007 316.85L108.63 316.068ZM113.128 321.616C113.316 321.818 113.632 321.829 113.834 321.641C114.037 321.453 114.048 321.137 113.86 320.934L113.128 321.616ZM117.202 324.871C117.033 324.653 116.719 324.613 116.501 324.783C116.283 324.952 116.243 325.266 116.413 325.484L117.202 324.871ZM120.365 331.175C120.511 331.409 120.819 331.481 121.054 331.335C121.288 331.189 121.36 330.88 121.214 330.646L120.365 331.175ZM123.798 335.118C123.667 334.875 123.364 334.783 123.121 334.914C122.877 335.044 122.786 335.347 122.916 335.591L123.798 335.118ZM125.965 341.859C126.076 342.111 126.372 342.226 126.624 342.114C126.877 342.003 126.991 341.708 126.88 341.455L125.965 341.859ZM128.825 346.177C128.726 345.92 128.437 345.791 128.179 345.89C127.921 345.989 127.792 346.278 127.891 346.536L128.825 346.177ZM130.201 353.138C130.285 353.402 130.566 353.547 130.829 353.464C131.092 353.38 131.238 353.099 131.154 352.836L130.201 353.138ZM132.618 357.775C132.544 357.509 132.269 357.353 132.003 357.426C131.737 357.5 131.58 357.775 131.654 358.041L132.618 357.775ZM133.334 364.757C133.395 365.026 133.663 365.195 133.932 365.134C134.201 365.073 134.37 364.806 134.31 364.536L133.334 364.757ZM135.381 369.659C135.329 369.388 135.067 369.211 134.796 369.263C134.524 369.315 134.347 369.578 134.399 369.849L135.381 369.659ZM135.571 376.625C135.613 376.898 135.868 377.085 136.141 377.043C136.414 377.001 136.601 376.746 136.559 376.473L135.571 376.625ZM137.267 381.514C137.232 381.24 136.982 381.046 136.708 381.081C136.434 381.116 136.24 381.367 136.275 381.64L137.267 381.514ZM137.06 388.746C137.085 389.021 137.329 389.223 137.604 389.197C137.879 389.171 138.081 388.927 138.055 388.652L137.06 388.746ZM138.464 393.563C138.444 393.287 138.204 393.08 137.929 393.1C137.653 393.12 137.446 393.36 137.466 393.635L138.464 393.563ZM137.881 400.756C137.894 401.032 138.127 401.246 138.403 401.234C138.679 401.222 138.893 400.988 138.88 400.712L137.881 400.756ZM139.06 405.882C139.053 405.606 138.823 405.388 138.547 405.395C138.271 405.402 138.053 405.631 138.06 405.907L139.06 405.882ZM138.151 412.765C138.152 413.041 138.376 413.264 138.652 413.264C138.928 413.263 139.152 413.039 139.151 412.763L138.151 412.765ZM139.118 417.84C139.122 417.564 138.901 417.337 138.625 417.333C138.349 417.329 138.122 417.55 138.118 417.826L139.118 417.84ZM137.929 425.13C137.919 425.406 138.134 425.638 138.41 425.648C138.686 425.658 138.918 425.442 138.928 425.166L137.929 425.13ZM138.716 430.02C138.73 429.745 138.518 429.51 138.242 429.496C137.966 429.482 137.731 429.694 137.717 429.97L138.716 430.02ZM137.299 436.935C137.28 437.211 137.487 437.45 137.763 437.469C138.038 437.488 138.277 437.28 138.296 437.005L137.299 436.935ZM137.907 442.129C137.93 441.854 137.725 441.613 137.45 441.59C137.175 441.567 136.933 441.772 136.91 442.047L137.907 442.129ZM136.256 449.213C136.229 449.488 136.429 449.733 136.704 449.76C136.979 449.788 137.224 449.587 137.251 449.313L136.256 449.213ZM136.738 454.178C136.768 453.903 136.57 453.656 136.296 453.625C136.021 453.595 135.774 453.793 135.744 454.067L136.738 454.178ZM134.917 461.022C134.882 461.296 135.076 461.546 135.35 461.58C135.624 461.615 135.874 461.421 135.909 461.147L134.917 461.022ZM135.236 466.24C135.274 465.966 135.083 465.714 134.809 465.676C134.535 465.639 134.283 465.83 134.246 466.104L135.236 466.24ZM133.207 473.281C133.165 473.554 133.353 473.809 133.626 473.851C133.899 473.892 134.154 473.705 134.195 473.432L133.207 473.281ZM133.44 478.249C133.484 477.976 133.299 477.719 133.026 477.675C132.754 477.631 132.497 477.817 132.453 478.089L133.44 478.249ZM131.3 484.955C131.253 485.227 131.435 485.486 131.707 485.533C131.979 485.581 132.238 485.399 132.286 485.127L131.3 484.955ZM131.39 490.136C131.439 489.864 131.26 489.604 130.988 489.554C130.716 489.504 130.456 489.684 130.406 489.955L131.39 490.136ZM129.053 497.092C128.999 497.363 129.176 497.625 129.447 497.679C129.718 497.732 129.981 497.555 130.034 497.284L129.053 497.092ZM129.043 502.235C129.099 501.964 128.924 501.7 128.654 501.645C128.383 501.59 128.119 501.764 128.064 502.035L129.043 502.235ZM126.653 508.762C126.595 509.032 126.766 509.298 127.036 509.356C127.306 509.414 127.572 509.243 127.63 508.973L126.653 508.762ZM126.558 513.867C126.618 513.597 126.448 513.33 126.179 513.27C125.909 513.21 125.642 513.38 125.582 513.649L126.558 513.867ZM123.994 520.606C123.931 520.875 124.098 521.144 124.367 521.206C124.636 521.269 124.905 521.102 124.968 520.833L123.994 520.606ZM123.767 525.892C123.832 525.623 123.666 525.353 123.398 525.289C123.129 525.224 122.859 525.389 122.795 525.657L123.767 525.892ZM121.106 532.52C121.038 532.788 121.201 533.06 121.469 533.127C121.737 533.194 122.008 533.032 122.075 532.764L121.106 532.52ZM120.864 537.525C120.933 537.258 120.772 536.985 120.505 536.916C120.237 536.847 119.965 537.008 119.896 537.276L120.864 537.525ZM118.124 544.031C118.052 544.297 118.211 544.571 118.478 544.643C118.745 544.714 119.019 544.555 119.09 544.288L118.124 544.031ZM117.765 549.19C117.838 548.923 117.681 548.648 117.415 548.575C117.149 548.503 116.874 548.659 116.801 548.926L117.765 549.19ZM114.868 555.878C114.793 556.144 114.948 556.42 115.213 556.495C115.479 556.57 115.755 556.415 115.83 556.15L114.868 555.878ZM114.39 561.192C114.467 560.927 114.314 560.65 114.048 560.573C113.783 560.496 113.506 560.649 113.429 560.915L114.39 561.192ZM111.504 567.488C111.425 567.753 111.576 568.031 111.841 568.11C112.106 568.188 112.384 568.037 112.462 567.773L111.504 567.488ZM111.042 572.511C111.122 572.247 110.972 571.968 110.708 571.888C110.444 571.808 110.165 571.958 110.085 572.222L111.042 572.511ZM108.027 578.934C107.945 579.197 108.092 579.478 108.356 579.56C108.62 579.641 108.9 579.494 108.982 579.23L108.027 578.934ZM107.459 584.09C107.542 583.827 107.396 583.546 107.133 583.462C106.87 583.379 106.589 583.525 106.506 583.788L107.459 584.09ZM104.303 590.67C104.218 590.933 104.362 591.215 104.625 591.3C104.888 591.385 105.17 591.241 105.255 590.978L104.303 590.67ZM103.628 595.959C103.714 595.697 103.572 595.415 103.309 595.328C103.047 595.242 102.765 595.384 102.678 595.647L103.628 595.959ZM100.514 602.148C100.426 602.41 100.567 602.694 100.829 602.782C101.091 602.87 101.374 602.729 101.462 602.467L100.514 602.148ZM99.8765 607.148C99.9656 606.887 99.8261 606.603 99.5647 606.513C99.3034 606.424 99.0192 606.564 98.93 606.825L99.8765 607.148ZM96.6483 613.446C96.5575 613.706 96.6953 613.991 96.9561 614.082C97.2169 614.173 97.5019 614.035 97.5927 613.774L96.6483 613.446ZM95.9156 618.56C96.0075 618.299 95.8708 618.014 95.6104 617.922C95.35 617.83 95.0644 617.967 94.9726 618.227L95.9156 618.56ZM92.5616 624.994C92.4682 625.254 92.6031 625.541 92.8629 625.634C93.1228 625.727 93.4092 625.593 93.5026 625.333L92.5616 624.994ZM91.7323 630.223C91.8268 629.964 91.6931 629.677 91.4337 629.582C91.1742 629.488 90.8873 629.622 90.7927 629.881L91.7323 630.223ZM88.2868 636.731C88.1924 636.991 88.3263 637.278 88.5858 637.372C88.8453 637.466 89.1322 637.332 89.2266 637.073L88.2868 636.731ZM87.4817 641.91C87.5747 641.65 87.4394 641.364 87.1794 641.271C86.9194 641.178 86.6332 641.313 86.5401 641.573L87.4817 641.91ZM84.1561 648.312C84.0649 648.573 84.2023 648.858 84.463 648.949C84.7236 649.04 85.0089 648.903 85.1 648.642L84.1561 648.312ZM83.4422 653.422C83.532 653.161 83.3931 652.876 83.132 652.787C82.8708 652.697 82.5864 652.836 82.4965 653.097L83.4422 653.422ZM80.2333 659.755C80.1454 660.017 80.2863 660.3 80.5481 660.388C80.8099 660.476 81.0934 660.335 81.1813 660.073L80.2333 659.755ZM79.6089 664.796C79.6955 664.533 79.5531 664.251 79.2909 664.164C79.0286 664.077 78.7459 664.22 78.6593 664.482L79.6089 664.796ZM76.5148 671.059C76.4302 671.322 76.5746 671.604 76.8375 671.688C77.1003 671.773 77.382 671.629 77.4667 671.366L76.5148 671.059ZM75.9001 676.277C75.9833 676.014 75.8372 675.733 75.5739 675.65C75.3106 675.567 75.0297 675.713 74.9465 675.976L75.9001 676.277ZM72.8094 682.833C72.7283 683.097 72.8764 683.376 73.1404 683.458C73.4044 683.539 73.6841 683.391 73.7652 683.127L72.8094 682.833ZM72.2861 687.986C72.3657 687.722 72.216 687.443 71.9516 687.363C71.6872 687.284 71.4083 687.434 71.3286 687.698L72.2861 687.986ZM69.3188 694.463C69.2412 694.728 69.3932 695.006 69.6582 695.084C69.9232 695.161 70.2009 695.009 70.2785 694.744L69.3188 694.463ZM68.8894 699.539C68.9655 699.273 68.812 698.996 68.5465 698.92C68.2811 698.844 68.0042 698.998 67.9281 699.263L68.8894 699.539ZM66.0432 705.937C65.9691 706.203 66.1248 706.478 66.3909 706.552C66.6569 706.626 66.9326 706.471 67.0066 706.205L66.0432 705.937ZM65.6603 711.1C65.7327 710.833 65.5755 710.558 65.309 710.486C65.0425 710.413 64.7678 710.571 64.6953 710.837L65.6603 711.1ZM62.836 717.791C62.7657 718.058 62.9253 718.331 63.1924 718.402C63.4595 718.472 63.7329 718.312 63.8031 718.045L62.836 717.791ZM62.5245 722.969C62.5931 722.702 62.4318 722.429 62.1644 722.361C61.8969 722.292 61.6244 722.453 61.5558 722.721L62.5245 722.969ZM59.8301 729.571C59.7637 729.839 59.9273 730.11 60.1953 730.176C60.4634 730.243 60.7345 730.079 60.8008 729.811L59.8301 729.571ZM59.6164 734.661C59.6811 734.392 59.516 734.122 59.2475 734.057C58.979 733.993 58.709 734.158 58.6443 734.426L59.6164 734.661ZM57.0491 741.172C56.9867 741.441 57.1541 741.709 57.4231 741.772C57.6921 741.834 57.9608 741.667 58.0232 741.398L57.0491 741.172ZM56.8875 746.365C56.9482 746.096 56.779 745.828 56.5096 745.767C56.2402 745.707 55.9726 745.876 55.9119 746.145L56.8875 746.365ZM54.3632 753.169C54.305 753.439 54.4766 753.705 54.7465 753.763C55.0165 753.821 55.2825 753.65 55.3407 753.38L54.3632 753.169ZM54.2859 758.348C54.3424 758.077 54.169 757.812 53.8987 757.756C53.6284 757.699 53.3635 757.873 53.3071 758.143L54.2859 758.348ZM51.8976 765.048C51.8436 765.319 52.0194 765.582 52.2902 765.636C52.561 765.69 52.8243 765.514 52.8783 765.243L51.8976 765.048ZM51.9216 770.126C51.9738 769.855 51.7963 769.593 51.5252 769.541C51.254 769.489 50.9918 769.666 50.9397 769.937L51.9216 770.126ZM49.6572 776.77C49.6075 777.042 49.7874 777.303 50.0591 777.352C50.3307 777.402 50.5912 777.222 50.6408 776.95L49.6572 776.77ZM49.7299 782.033C49.7777 781.761 49.5959 781.502 49.3239 781.454C49.0519 781.406 48.7927 781.588 48.745 781.86L49.7299 782.033ZM47.5415 788.917C47.4964 789.19 47.6808 789.447 47.9532 789.492C48.2256 789.537 48.483 789.353 48.5281 789.08L47.5415 788.917ZM47.7214 794.066C47.7646 793.793 47.5784 793.537 47.3057 793.494C47.0329 793.451 46.7769 793.637 46.7337 793.91L47.7214 794.066ZM45.6742 800.832C45.6338 801.105 45.8225 801.359 46.0957 801.4C46.3688 801.44 46.6231 801.251 46.6635 800.978L45.6742 800.832ZM45.958 805.867C45.9965 805.593 45.806 805.34 45.5325 805.302C45.2591 805.263 45.0062 805.454 44.9678 805.727L45.958 805.867ZM44.009 812.813C43.9734 813.086 44.1665 813.337 44.4404 813.373C44.7142 813.409 44.965 813.215 45.0006 812.942L44.009 812.813ZM44.36 818.022C44.3935 817.748 44.1985 817.499 43.9244 817.465C43.6503 817.432 43.4009 817.627 43.3674 817.901L44.36 818.022ZM42.5448 824.947C42.5143 825.221 42.712 825.468 42.9864 825.499C43.2609 825.53 43.5081 825.332 43.5387 825.057L42.5448 824.947ZM43.005 830.027C43.0334 829.752 42.8338 829.507 42.5591 829.478C42.2844 829.45 42.0387 829.649 42.0103 829.924L43.005 830.027ZM41.335 836.814C41.3096 837.089 41.5118 837.333 41.7868 837.358C42.0618 837.383 42.3053 837.181 42.3308 836.906L41.335 836.814ZM41.8788 842.019C41.902 841.744 41.6977 841.502 41.4226 841.479C41.1474 841.455 40.9055 841.66 40.8824 841.935L41.8788 842.019ZM40.3215 849.089C40.3015 849.364 40.5086 849.603 40.784 849.623C41.0594 849.643 41.2989 849.436 41.3188 849.161L40.3215 849.089ZM40.9746 854.199C40.9923 853.923 40.7832 853.685 40.5076 853.668C40.232 853.65 39.9943 853.859 39.9766 854.135L40.9746 854.199ZM39.5704 861.11C39.556 861.385 39.7678 861.621 40.0436 861.635C40.3194 861.65 40.5546 861.438 40.5691 861.162L39.5704 861.11ZM40.3329 866.073C40.345 865.797 40.1311 865.563 39.8553 865.551C39.5794 865.539 39.3459 865.753 39.3338 866.029L40.3329 866.073ZM39.0621 873.269C39.0535 873.545 39.2703 873.775 39.5463 873.784C39.8223 873.793 40.0531 873.576 40.0617 873.3L39.0621 873.269ZM39.9262 878.389C39.9323 878.112 39.7134 877.884 39.4373 877.878C39.1613 877.872 38.9325 878.09 38.9264 878.366L39.9262 878.389ZM38.8162 885.4C38.8137 885.676 39.0355 885.902 39.3116 885.905C39.5877 885.907 39.8136 885.685 39.8162 885.409L38.8162 885.4ZM39.7932 890.35C39.7932 890.074 39.5694 889.85 39.2932 889.85C39.0171 889.85 38.7932 890.074 38.7932 890.35L39.7932 890.35ZM38.8411 897.485C38.8449 897.761 39.0717 897.982 39.3478 897.979C39.624 897.975 39.8448 897.748 39.841 897.472L38.8411 897.485ZM39.9356 902.588C39.9291 902.312 39.7001 902.094 39.424 902.1C39.148 902.107 38.9294 902.336 38.9359 902.612L39.9356 902.588ZM39.151 909.669C39.1614 909.945 39.3935 910.16 39.6694 910.15C39.9453 910.139 40.1607 909.907 40.1503 909.631L39.151 909.669ZM40.3608 914.576C40.3477 914.3 40.1134 914.087 39.8376 914.1C39.5618 914.114 39.3488 914.348 39.362 914.624L40.3608 914.576ZM39.7524 921.717C39.7697 921.992 40.0071 922.202 40.2827 922.185C40.5583 922.167 40.7677 921.93 40.7505 921.654L39.7524 921.717ZM41.0983 926.767C41.078 926.491 40.8383 926.284 40.5629 926.305C40.2875 926.325 40.0807 926.565 40.101 926.84L41.0983 926.767ZM40.673 933.873C40.6975 934.148 40.9404 934.351 41.2154 934.326C41.4905 934.302 41.6936 934.059 41.669 933.784L40.673 933.873ZM42.1348 938.696C42.1071 938.421 41.862 938.22 41.5873 938.248C41.3125 938.276 41.1122 938.521 41.1398 938.796L42.1348 938.696ZM41.9143 945.91C41.9465 946.185 42.1949 946.381 42.4692 946.349C42.7434 946.316 42.9397 946.068 42.9075 945.794L41.9143 945.91ZM43.5332 950.858C43.4976 950.584 43.2468 950.39 42.973 950.426C42.6991 950.462 42.506 950.712 42.5415 950.986L43.5332 950.858ZM43.5038 957.927C43.5441 958.2 43.7982 958.389 44.0714 958.349C44.3446 958.309 44.5334 958.055 44.4931 957.781L43.5038 957.927ZM45.2437 962.654C45.1999 962.382 44.9434 962.196 44.6707 962.24C44.3981 962.284 44.2126 962.54 44.2563 962.813L45.2437 962.654ZM45.4744 969.96C45.5235 970.232 45.7835 970.413 46.0553 970.364C46.327 970.315 46.5076 970.055 46.4585 969.783L45.4744 969.96ZM47.3876 974.734C47.3348 974.463 47.0722 974.286 46.8012 974.339C46.5302 974.392 46.3533 974.654 46.4061 974.925L47.3876 974.734ZM47.7921 981.679C47.8503 981.949 48.1163 982.121 48.3862 982.062C48.6562 982.004 48.8278 981.738 48.7696 981.468L47.7921 981.679ZM49.9052 986.54C49.8427 986.271 49.574 986.104 49.3051 986.167C49.0361 986.229 48.8686 986.498 48.9311 986.767L49.9052 986.54ZM50.6152 993.669C50.6837 993.936 50.9561 994.097 51.2237 994.029C51.4912 993.96 51.6525 993.688 51.584 993.42L50.6152 993.669ZM52.8402 998.165C52.7673 997.898 52.4923 997.741 52.226 997.814C51.9596 997.887 51.8028 998.162 51.8757 998.429L52.8402 998.165ZM53.8686 1005.37C53.9483 1005.63 54.2272 1005.78 54.4916 1005.7C54.756 1005.62 54.9058 1005.34 54.8261 1005.08L53.8686 1005.37ZM56.3252 1009.89C56.2405 1009.62 55.9588 1009.48 55.6959 1009.57C55.4331 1009.65 55.2887 1009.93 55.3734 1010.19L56.3252 1009.89ZM57.6009 1016.79C57.6929 1017.05 57.9786 1017.19 58.2389 1017.1C58.4993 1017.01 58.6357 1016.72 58.5437 1016.46L57.6009 1016.79ZM60.3222 1021.32C60.2243 1021.06 59.9356 1020.93 59.6774 1021.03C59.4192 1021.13 59.2893 1021.41 59.3872 1021.67L60.3222 1021.32ZM61.9601 1028.14C62.0664 1028.39 62.3593 1028.51 62.6141 1028.41C62.8689 1028.3 62.9893 1028.01 62.8829 1027.75L61.9601 1028.14ZM64.9187 1032.45C64.8054 1032.2 64.5095 1032.09 64.2576 1032.2C64.0057 1032.32 63.8933 1032.61 64.0066 1032.86L64.9187 1032.45ZM67.0327 1039.25C67.1562 1039.49 67.4566 1039.59 67.7036 1039.47C67.9505 1039.35 68.0506 1039.05 67.927 1038.8L67.0327 1039.25ZM70.252 1043.26C70.1202 1043.02 69.8166 1042.93 69.574 1043.06C69.3313 1043.19 69.2415 1043.49 69.3733 1043.74L70.252 1043.26ZM72.9274 1049.88C73.0725 1050.11 73.3806 1050.19 73.6156 1050.04C73.8505 1049.9 73.9234 1049.59 73.7783 1049.35L72.9274 1049.88ZM76.5366 1053.6C76.3804 1053.37 76.0692 1053.31 75.8415 1053.47C75.6137 1053.62 75.5558 1053.93 75.712 1054.16L76.5366 1053.6ZM79.874 1059.75C80.0484 1059.96 80.3634 1059.99 80.5775 1059.82C80.7915 1059.64 80.8236 1059.33 80.6492 1059.11L79.874 1059.75ZM84.0834 1063C83.8917 1062.8 83.5752 1062.8 83.3764 1062.99C83.1776 1063.18 83.1718 1063.5 83.3635 1063.7L84.0834 1063ZM88.7018 1068.44C88.9241 1068.61 89.2371 1068.56 89.401 1068.34C89.565 1068.12 89.5177 1067.8 89.2955 1067.64L88.7018 1068.44ZM93.4846 1070.18C93.2345 1070.06 92.9369 1070.17 92.8199 1070.42C92.7029 1070.67 92.8108 1070.97 93.0609 1071.08L93.4846 1070.18ZM100.135 1072.53C100.41 1072.5 100.611 1072.26 100.584 1071.99C100.558 1071.71 100.314 1071.51 100.039 1071.54L100.135 1072.53ZM104.405 1069.86C104.182 1070.02 104.134 1070.33 104.297 1070.56C104.46 1070.78 104.773 1070.83 104.996 1070.66L104.405 1069.86ZM109.441 1064.95C109.56 1064.7 109.454 1064.4 109.205 1064.28C108.955 1064.16 108.657 1064.27 108.538 1064.52L109.441 1064.95ZM110.215 1059.88C110.143 1060.15 110.301 1060.42 110.567 1060.5C110.834 1060.57 111.108 1060.41 111.181 1060.14L110.215 1059.88ZM112.462 1053.22C112.494 1052.94 112.297 1052.7 112.022 1052.67C111.748 1052.63 111.5 1052.83 111.469 1053.11L112.462 1053.22ZM111.851 1048.07C111.84 1048.34 112.055 1048.58 112.331 1048.59C112.606 1048.6 112.839 1048.38 112.851 1048.11L111.851 1048.07ZM112.861 1040.95C112.852 1040.68 112.621 1040.46 112.345 1040.47C112.069 1040.48 111.852 1040.71 111.862 1040.99L112.861 1040.95ZM111.591 1036.06C111.612 1036.34 111.852 1036.54 112.127 1036.52C112.403 1036.5 112.609 1036.26 112.589 1035.99L111.591 1036.06ZM111.885 1028.89C111.851 1028.61 111.602 1028.42 111.328 1028.45C111.054 1028.48 110.859 1028.73 110.892 1029.01L111.885 1028.89ZM110.207 1023.99C110.248 1024.26 110.503 1024.45 110.776 1024.41C111.049 1024.37 111.237 1024.11 111.196 1023.84L110.207 1023.99ZM110.046 1016.99C109.996 1016.72 109.736 1016.54 109.464 1016.59C109.192 1016.64 109.013 1016.9 109.063 1017.17L110.046 1016.99ZM108.054 1012.01C108.11 1012.28 108.375 1012.46 108.645 1012.4C108.915 1012.34 109.089 1012.08 109.034 1011.81L108.054 1012.01ZM107.557 1005.09C107.495 1004.82 107.226 1004.66 106.957 1004.72C106.688 1004.78 106.521 1005.05 106.583 1005.32L107.557 1005.09ZM105.407 1000.45C105.474 1000.71 105.746 1000.88 106.014 1000.81C106.282 1000.74 106.445 1000.47 106.378 1000.2L105.407 1000.45ZM104.51 993.059C104.437 992.793 104.162 992.636 103.896 992.709C103.629 992.781 103.472 993.056 103.545 993.323L104.51 993.059ZM102.249 988.689C102.325 988.955 102.602 989.108 102.867 989.032C103.133 988.956 103.286 988.679 103.21 988.414L102.249 988.689ZM101.228 981.718C101.147 981.453 100.868 981.305 100.604 981.385C100.34 981.466 100.191 981.745 100.271 982.009L101.228 981.718ZM98.7335 977.074C98.8172 977.337 99.0983 977.483 99.3615 977.399C99.6247 977.315 99.7702 977.034 99.6865 976.771L98.7335 977.074ZM97.4752 969.994C97.3877 969.733 97.1044 969.591 96.8425 969.679C96.5806 969.766 96.4393 970.05 96.5269 970.312L97.4752 969.994ZM94.9559 965.689C95.046 965.95 95.3307 966.088 95.5917 965.998C95.8527 965.908 95.9913 965.623 95.9012 965.362L94.9559 965.689ZM93.5525 958.698C93.4591 958.438 93.1727 958.303 92.9128 958.397C92.653 958.49 92.5181 958.777 92.6115 959.037L93.5525 958.698ZM90.8316 954.156C90.9273 954.415 91.2149 954.548 91.474 954.452C91.733 954.356 91.8653 954.068 91.7695 953.809L90.8316 954.156ZM89.1235 946.796C89.024 946.539 88.7346 946.41 88.4769 946.51C88.2193 946.609 88.0911 946.899 88.1905 947.156L89.1235 946.796ZM86.2887 942.315C86.3913 942.572 86.6822 942.696 86.9386 942.594C87.195 942.491 87.3197 942.2 87.2172 941.944L86.2887 942.315ZM84.5786 935.515C84.4714 935.261 84.1781 935.142 83.9237 935.249C83.6692 935.356 83.5499 935.649 83.6572 935.904L84.5786 935.515ZM81.7999 931.582C81.9108 931.835 82.2057 931.95 82.4586 931.839C82.7115 931.729 82.8266 931.434 82.7157 931.181L81.7999 931.582ZM79.7739 924.685C79.6568 924.435 79.3591 924.327 79.1091 924.444C78.859 924.561 78.7512 924.859 78.8684 925.109L79.7739 924.685ZM76.6529 920.504C76.7754 920.751 77.0753 920.853 77.3228 920.73C77.5703 920.608 77.6717 920.308 77.5493 920.061L76.6529 920.504ZM74.482 914.1C74.3515 913.857 74.0484 913.765 73.805 913.896C73.5617 914.026 73.4703 914.329 73.6008 914.573L74.482 914.1ZM71.1706 910.2C71.3085 910.439 71.6143 910.521 71.8535 910.383C72.0928 910.245 72.1749 909.939 72.037 909.7L71.1706 910.2ZM68.3021 903.597C68.1511 903.366 67.8413 903.301 67.6101 903.452C67.3788 903.603 67.3137 903.913 67.4646 904.144L68.3021 903.597ZM64.8777 900.368C65.0392 900.592 65.3517 900.643 65.5757 900.481C65.7996 900.32 65.8502 900.007 65.6886 899.783L64.8777 900.368ZM61.0939 894.021C60.91 893.815 60.5939 893.797 60.3879 893.981C60.182 894.165 60.1641 894.481 60.348 894.687L61.0939 894.021ZM57.1453 891.416C57.3484 891.603 57.6647 891.59 57.8519 891.387C58.039 891.184 58.0261 890.868 57.823 890.68L57.1453 891.416ZM52.0018 886.39C51.7596 886.258 51.4557 886.347 51.3231 886.589C51.1904 886.831 51.2792 887.135 51.5214 887.268L52.0018 886.39ZM47.0028 885.53C47.2727 885.588 47.5388 885.417 47.5971 885.147C47.6553 884.877 47.4838 884.611 47.2139 884.553L47.0028 885.53ZM40.1985 884.893C39.936 884.979 39.7929 885.262 39.8787 885.524C39.9646 885.786 40.2469 885.93 40.5094 885.844L40.1985 884.893ZM36.3185 888.041C36.5416 887.878 36.5905 887.566 36.4278 887.343C36.2651 887.12 35.9523 887.071 35.7292 887.233L36.3185 888.041ZM30.687 892.221C30.5159 892.438 30.5529 892.752 30.7696 892.923C30.9864 893.094 31.3008 893.057 31.4719 892.841L30.687 892.221ZM28.6462 896.925C28.7905 896.689 28.7166 896.382 28.4811 896.237C28.2457 896.093 27.9379 896.167 27.7936 896.402L28.6462 896.925ZM24.5229 902.51C24.405 902.76 24.5119 903.058 24.7616 903.176C25.0113 903.293 25.3093 903.187 25.4272 902.937L24.5229 902.51ZM23.365 907.673C23.4681 907.417 23.344 907.126 23.0879 907.023C22.8317 906.92 22.5405 907.044 22.4373 907.3L23.365 907.673ZM20.091 913.683C20.0029 913.944 20.1437 914.228 20.4054 914.316C20.6671 914.404 20.9507 914.263 21.0387 914.002L20.091 913.683ZM19.4881 918.902C19.5669 918.638 19.4162 918.359 19.1515 918.28C18.8869 918.202 18.6085 918.352 18.5297 918.617L19.4881 918.902ZM16.7112 925.198C16.6426 925.466 16.8038 925.738 17.0713 925.807C17.3388 925.876 17.6112 925.714 17.6799 925.447L16.7112 925.198ZM16.4857 930.354C16.5478 930.085 16.38 929.816 16.111 929.754C15.8419 929.692 15.5734 929.86 15.5113 930.129L16.4857 930.354ZM14.0476 936.921C13.9932 937.192 14.1686 937.456 14.4393 937.51C14.71 937.564 14.9736 937.389 15.028 937.118L14.0476 936.921ZM14.0962 941.987C14.1457 941.716 13.9655 941.455 13.6939 941.406C13.4222 941.356 13.1619 941.536 13.1124 941.808L14.0962 941.987ZM11.9241 948.798C11.8809 949.07 12.067 949.327 12.3398 949.37C12.6125 949.413 12.8686 949.227 12.9118 948.954L11.9241 948.798ZM12.1834 953.783C12.2227 953.51 12.0329 953.256 11.7595 953.217C11.4862 953.178 11.2328 953.368 11.1936 953.641L12.1834 953.783ZM10.2635 960.603C10.2295 960.877 10.4241 961.127 10.6982 961.161C10.9722 961.195 11.2219 961 11.2559 960.726L10.2635 960.603ZM10.671 965.705C10.7015 965.431 10.5037 965.184 10.2293 965.153C9.95482 965.123 9.70762 965.32 9.67713 965.595L10.671 965.705ZM8.97128 972.471C8.94532 972.746 9.14714 972.99 9.42206 973.016C9.69698 973.042 9.94089 972.84 9.96686 972.565L8.97128 972.471ZM9.52442 977.554C9.54727 977.279 9.3427 977.037 9.0675 977.015C8.7923 976.992 8.55069 977.196 8.52785 977.472L9.52442 977.554ZM8.00196 984.449C7.98326 984.725 8.19145 984.963 8.46696 984.982C8.74247 985.001 8.98097 984.793 8.99966 984.517L8.00196 984.449ZM8.69037 989.452C8.70624 989.176 8.49561 988.94 8.21993 988.924C7.94424 988.908 7.70789 989.119 7.69203 989.394L8.69037 989.452ZM7.33866 996.397C7.32667 996.673 7.5406 996.907 7.81648 996.919C8.09237 996.931 8.32573 996.717 8.33772 996.441L7.33866 996.397ZM8.14551 1001.43C8.15479 1001.15 7.93859 1000.92 7.66261 1000.91C7.38662 1000.9 7.15536 1001.12 7.14607 1001.39L8.14551 1001.43ZM6.95871 1008.34C6.9531 1008.62 7.17236 1008.85 7.44844 1008.85C7.72453 1008.86 7.95289 1008.64 7.9585 1008.36L6.95871 1008.34ZM7.88077 1013.35C7.88377 1013.07 7.66236 1012.85 7.38624 1012.84C7.11011 1012.84 6.88383 1013.06 6.88083 1013.34L7.88077 1013.35ZM6.85074 1020.34C6.85136 1020.61 7.07572 1020.84 7.35186 1020.83C7.62801 1020.83 7.85136 1020.61 7.85073 1020.33L6.85074 1020.34ZM7.88507 1025.3C7.88187 1025.02 7.65544 1024.8 7.37932 1024.81C7.10319 1024.81 6.88194 1025.04 6.88513 1025.31L7.88507 1025.3ZM7.01157 1032.29C7.01838 1032.57 7.24769 1032.79 7.52375 1032.78C7.79981 1032.77 8.01808 1032.54 8.01127 1032.27L7.01157 1032.29ZM8.15763 1037.25C8.14822 1036.97 7.91686 1036.75 7.64087 1036.76C7.36489 1036.77 7.1488 1037.01 7.15822 1037.28L8.15763 1037.25ZM7.44318 1044.26C7.45629 1044.54 7.69052 1044.75 7.96636 1044.74C8.24219 1044.73 8.45516 1044.49 8.44205 1044.22L7.44318 1044.26ZM8.70234 1049.18C8.68654 1048.91 8.45025 1048.7 8.17456 1048.71C7.89887 1048.73 7.68818 1048.97 7.70397 1049.24L8.70234 1049.18ZM8.15047 1056.19C8.1701 1056.47 8.4093 1056.67 8.68474 1056.65C8.96019 1056.64 9.16757 1056.4 9.14794 1056.12L8.15047 1056.19ZM9.52925 1061.11C9.50678 1060.83 9.26545 1060.63 8.99022 1060.65C8.715 1060.67 8.51009 1060.92 8.53256 1061.19L9.52925 1061.11ZM9.15174 1068.14C9.17829 1068.42 9.42263 1068.62 9.69749 1068.59C9.97236 1068.57 10.1737 1068.32 10.1471 1068.05L9.15174 1068.14ZM10.6489 1072.96C10.6193 1072.69 10.3728 1072.49 10.0982 1072.52C9.82368 1072.55 9.62507 1072.8 9.65462 1073.07L10.6489 1072.96ZM10.4633 1080.06C10.4973 1080.33 10.747 1080.52 11.0211 1080.49C11.2951 1080.46 11.4897 1080.21 11.4557 1079.93L10.4633 1080.06ZM12.0987 1084.87C12.0614 1084.6 11.8093 1084.4 11.5357 1084.44C11.2621 1084.48 11.0706 1084.73 11.1079 1085.01L12.0987 1084.87ZM12.1019 1091.84C12.1441 1092.11 12.3995 1092.3 12.6724 1092.26C12.9453 1092.22 13.1323 1091.96 13.0901 1091.69L12.1019 1091.84ZM13.8952 1096.67C13.8493 1096.4 13.5913 1096.22 13.319 1096.26C13.0467 1096.31 12.8632 1096.57 12.9092 1096.84L13.8952 1096.67ZM14.1419 1103.72C14.1934 1103.99 14.4551 1104.17 14.7264 1104.12C14.9977 1104.07 15.1759 1103.8 15.1243 1103.53L14.1419 1103.72ZM16.0744 1108.33C16.0186 1108.06 15.7542 1107.89 15.4838 1107.95C15.2133 1108 15.0392 1108.27 15.0949 1108.54L16.0744 1108.33ZM16.6075 1115.46C16.6697 1115.73 16.9383 1115.89 17.2074 1115.83C17.4764 1115.77 17.644 1115.5 17.5817 1115.23L16.6075 1115.46ZM18.7451 1120.05C18.6778 1119.79 18.4061 1119.62 18.1383 1119.69C17.8705 1119.76 17.7079 1120.03 17.7752 1120.3L18.7451 1120.05ZM19.5603 1127C19.6353 1127.26 19.9115 1127.42 20.1773 1127.34C20.443 1127.27 20.5977 1126.99 20.5227 1126.73L19.5603 1127ZM21.9517 1131.57C21.8704 1131.31 21.5906 1131.16 21.3267 1131.24C21.0628 1131.32 20.9147 1131.6 20.996 1131.87L21.9517 1131.57ZM23.142 1138.42C23.2328 1138.68 23.5178 1138.82 23.7786 1138.73C24.0394 1138.64 24.1772 1138.35 24.0864 1138.09L23.142 1138.42ZM25.8092 1142.82C25.7106 1142.56 25.4215 1142.43 25.1636 1142.53C24.9057 1142.63 24.7766 1142.92 24.8752 1143.17L25.8092 1142.82ZM27.5313 1149.65C27.6424 1149.91 27.9374 1150.02 28.1902 1149.91C28.443 1149.8 28.5579 1149.51 28.4468 1149.25L27.5313 1149.65ZM30.5017 1153.69C30.3805 1153.44 30.0811 1153.34 29.833 1153.46C29.5848 1153.58 29.4819 1153.88 29.6031 1154.13L30.5017 1153.69ZM32.933 1160.4C33.0712 1160.64 33.377 1160.72 33.6161 1160.59C33.8552 1160.45 33.937 1160.14 33.7989 1159.9L32.933 1160.4ZM36.3268 1164.01C36.175 1163.78 35.865 1163.71 35.6343 1163.86C35.4036 1164.02 35.3396 1164.33 35.4914 1164.56L36.3268 1164.01ZM39.7164 1170.32C39.8917 1170.54 40.2068 1170.57 40.4202 1170.39C40.6336 1170.22 40.6645 1169.9 40.4892 1169.69L39.7164 1170.32ZM43.7243 1173.29C43.5303 1173.09 43.2137 1173.09 43.0172 1173.28C42.8207 1173.48 42.8186 1173.79 43.0126 1173.99L43.7243 1173.29ZM48.3766 1178.63C48.6003 1178.79 48.9129 1178.74 49.0747 1178.52C49.2366 1178.29 49.1865 1177.98 48.9628 1177.82L48.3766 1178.63ZM53.1104 1180.4C52.8657 1180.27 52.5636 1180.36 52.4356 1180.61C52.3076 1180.85 52.4021 1181.15 52.6468 1181.28L53.1104 1180.4ZM59.2203 1183.81C59.4879 1183.88 59.7599 1183.72 59.8278 1183.45C59.8957 1183.18 59.7338 1182.91 59.4661 1182.84L59.2203 1183.81ZM64.2462 1183.62C63.9708 1183.6 63.7309 1183.81 63.7103 1184.08C63.6897 1184.36 63.8963 1184.6 64.1717 1184.62L64.2462 1183.62ZM71.1852 1184.33C71.4582 1184.29 71.646 1184.04 71.6046 1183.76C71.5633 1183.49 71.3084 1183.3 71.0354 1183.34L71.1852 1184.33ZM75.8255 1182.27C75.5606 1182.35 75.4092 1182.62 75.4874 1182.89C75.5655 1183.15 75.8436 1183.31 76.1084 1183.23L75.8255 1182.27ZM82.5988 1180.74C82.8488 1180.62 82.9566 1180.33 82.8394 1180.08C82.7222 1179.83 82.4245 1179.72 82.1745 1179.84L82.5988 1180.74ZM86.5658 1177.53C86.3269 1177.67 86.2454 1177.98 86.3838 1178.22C86.5221 1178.45 86.8281 1178.54 87.067 1178.4L86.5658 1177.53ZM93.338 1174.44C93.5711 1174.29 93.64 1173.99 93.492 1173.75C93.3439 1173.52 93.035 1173.45 92.8019 1173.6L93.338 1174.44ZM97.0174 1170.98C96.7811 1171.12 96.7056 1171.43 96.8486 1171.67C96.9917 1171.9 97.2991 1171.98 97.5353 1171.84L97.0174 1170.98ZM103.41 1168.42C103.651 1168.28 103.738 1167.98 103.603 1167.74C103.469 1167.5 103.165 1167.41 102.923 1167.54L103.41 1168.42ZM107.314 1165.19C107.069 1165.32 106.972 1165.62 107.098 1165.87C107.224 1166.11 107.526 1166.21 107.771 1166.08L107.314 1165.19ZM113.954 1163.13C114.207 1163.02 114.322 1162.72 114.212 1162.47C114.101 1162.22 113.806 1162.1 113.553 1162.21L113.954 1163.13ZM118.004 1160.41C117.745 1160.51 117.612 1160.8 117.708 1161.06C117.803 1161.32 118.091 1161.45 118.35 1161.35L118.004 1160.41ZM124.912 1159.37C125.181 1159.31 125.35 1159.04 125.289 1158.77C125.229 1158.5 124.961 1158.33 124.692 1158.39L124.912 1159.37ZM129.679 1157.64C129.404 1157.66 129.195 1157.89 129.214 1158.17C129.232 1158.45 129.47 1158.65 129.746 1158.64L129.679 1157.64ZM136.248 1159.33C136.51 1159.41 136.793 1159.27 136.881 1159.01C136.969 1158.75 136.828 1158.47 136.566 1158.38L136.248 1159.33ZM140.95 1160.98C140.75 1160.79 140.434 1160.8 140.244 1161C140.053 1161.2 140.062 1161.52 140.262 1161.71L140.95 1160.98ZM143.623 1167.36C143.708 1167.62 143.99 1167.77 144.252 1167.68C144.515 1167.6 144.66 1167.32 144.575 1167.05L143.623 1167.36ZM145.593 1171.96C145.562 1171.68 145.314 1171.49 145.04 1171.52C144.765 1171.55 144.568 1171.8 144.6 1172.07L145.593 1171.96ZM144.775 1178.89C144.762 1179.16 144.975 1179.4 145.251 1179.41C145.527 1179.42 145.761 1179.21 145.774 1178.93L144.775 1178.89ZM145.357 1183.84C145.39 1183.57 145.194 1183.32 144.92 1183.29C144.646 1183.26 144.397 1183.45 144.364 1183.73L145.357 1183.84ZM143.296 1190.49C143.244 1190.76 143.422 1191.02 143.693 1191.08C143.964 1191.13 144.226 1190.95 144.278 1190.68L143.296 1190.49ZM143.257 1195.49C143.319 1195.22 143.151 1194.95 142.882 1194.89C142.613 1194.83 142.345 1195 142.283 1195.26L143.257 1195.49ZM140.588 1201.94C140.515 1202.2 140.671 1202.48 140.938 1202.55C141.204 1202.63 141.479 1202.47 141.552 1202.2L140.588 1201.94ZM140.18 1206.97C140.26 1206.7 140.11 1206.42 139.845 1206.35C139.581 1206.27 139.302 1206.42 139.223 1206.68L140.18 1206.97ZM137.159 1213.22C137.072 1213.48 137.214 1213.76 137.477 1213.85C137.739 1213.93 138.022 1213.79 138.108 1213.53L137.159 1213.22ZM136.518 1218.21C136.609 1217.95 136.472 1217.67 136.211 1217.57C135.95 1217.48 135.665 1217.62 135.574 1217.88L136.518 1218.21ZM133.237 1224.37C133.141 1224.63 133.273 1224.92 133.532 1225.01C133.791 1225.11 134.079 1224.98 134.175 1224.72L133.237 1224.37ZM132.439 1229.31C132.539 1229.05 132.41 1228.76 132.152 1228.66C131.895 1228.56 131.605 1228.69 131.506 1228.95L132.439 1229.31ZM128.978 1235.36C128.875 1235.62 128.999 1235.91 129.255 1236.01C129.512 1236.12 129.803 1235.99 129.906 1235.74L128.978 1235.36ZM128.044 1240.29C128.149 1240.04 128.028 1239.75 127.773 1239.64C127.518 1239.54 127.225 1239.66 127.12 1239.91L128.044 1240.29ZM124.443 1246.26C124.334 1246.52 124.451 1246.81 124.705 1246.92C124.959 1247.03 125.253 1246.91 125.362 1246.66L124.443 1246.26ZM123.405 1251.17C123.516 1250.91 123.401 1250.62 123.148 1250.51C122.895 1250.4 122.6 1250.51 122.489 1250.77L123.405 1251.17ZM119.687 1257.07C119.573 1257.32 119.685 1257.62 119.937 1257.73C120.189 1257.84 120.485 1257.73 120.598 1257.48L119.687 1257.07ZM118.558 1261.96C118.673 1261.71 118.563 1261.42 118.312 1261.3C118.061 1261.19 117.764 1261.3 117.649 1261.55L118.558 1261.96ZM114.757 1267.77C114.64 1268.02 114.747 1268.32 114.997 1268.44C115.247 1268.55 115.545 1268.45 115.662 1268.2L114.757 1267.77ZM113.536 1272.68C113.655 1272.43 113.55 1272.14 113.301 1272.02C113.051 1271.9 112.753 1272 112.634 1272.25L113.536 1272.68ZM109.642 1278.45C109.521 1278.7 109.624 1279 109.872 1279.12C110.121 1279.24 110.42 1279.14 110.541 1278.89L109.642 1278.45ZM108.384 1283.29C108.506 1283.04 108.405 1282.74 108.157 1282.62C107.91 1282.49 107.61 1282.6 107.488 1282.84L108.384 1283.29ZM104.401 1289.03C104.277 1289.28 104.376 1289.58 104.623 1289.7C104.87 1289.83 105.17 1289.73 105.294 1289.48L104.401 1289.03ZM103.058 1293.9C103.183 1293.65 103.085 1293.35 102.839 1293.22C102.593 1293.1 102.292 1293.2 102.167 1293.44L103.058 1293.9ZM99.0117 1299.57C98.8845 1299.82 98.98 1300.12 99.2251 1300.25C99.4702 1300.37 99.772 1300.28 99.8993 1300.03L99.0117 1299.57ZM97.6343 1304.37C97.7628 1304.12 97.6688 1303.82 97.4244 1303.69C97.18 1303.57 96.8777 1303.66 96.7492 1303.9L97.6343 1304.37ZM93.4921 1310.04C93.3616 1310.28 93.4531 1310.59 93.6965 1310.72C93.9399 1310.85 94.2429 1310.75 94.3734 1310.51L93.4921 1310.04ZM92.0551 1314.8C92.1872 1314.56 92.0978 1314.25 91.8554 1314.12C91.6129 1313.99 91.3092 1314.08 91.1771 1314.32L92.0551 1314.8ZM93.714 1316.3C93.9637 1316.18 94.0706 1315.88 93.9526 1315.63C93.8347 1315.38 93.5367 1315.28 93.287 1315.4L93.714 1316.3ZM98.2869 1313.03C98.0372 1313.15 97.9304 1313.45 98.0483 1313.7C98.1662 1313.95 98.4642 1314.06 98.7139 1313.94L98.2869 1313.03ZM105.714 1310.63C105.964 1310.51 106.07 1310.22 105.952 1309.97C105.835 1309.72 105.537 1309.61 105.287 1309.73L105.714 1310.63ZM110.287 1307.37C110.037 1307.49 109.93 1307.78 110.048 1308.03C110.166 1308.28 110.464 1308.39 110.714 1308.27L110.287 1307.37ZM117.714 1304.97C117.963 1304.85 118.07 1304.55 117.952 1304.3C117.834 1304.05 117.536 1303.94 117.287 1304.06L117.714 1304.97ZM122.287 1301.7C122.037 1301.82 121.93 1302.12 122.048 1302.37C122.166 1302.62 122.464 1302.72 122.714 1302.6L122.287 1301.7ZM122.203 1299.28C121.932 1299.23 121.671 1299.41 121.62 1299.68C121.569 1299.95 121.748 1300.21 122.019 1300.26L122.203 1299.28ZM116.463 1299.22C116.735 1299.27 116.996 1299.09 117.047 1298.82C117.098 1298.55 116.919 1298.29 116.648 1298.24L116.463 1299.22ZM108.87 1296.78C108.599 1296.73 108.337 1296.91 108.286 1297.18C108.235 1297.45 108.414 1297.71 108.686 1297.76L108.87 1296.78ZM103.13 1296.72C103.401 1296.77 103.663 1296.59 103.714 1296.32C103.765 1296.05 103.586 1295.79 103.314 1295.74L103.13 1296.72ZM95.5366 1294.28C95.2652 1294.23 95.0039 1294.41 94.953 1294.68C94.9021 1294.95 95.0809 1295.21 95.3523 1295.26L95.5366 1294.28ZM89.7967 1294.22C90.0682 1294.27 90.3294 1294.09 90.3803 1293.82C90.4312 1293.55 90.2524 1293.29 89.981 1293.24L89.7967 1294.22ZM88.4142 1296.17C88.6078 1296.37 88.9243 1296.37 89.1213 1296.18C89.3183 1295.98 89.321 1295.67 89.1274 1295.47L88.4142 1296.17ZM93.0858 1299.5C92.8922 1299.3 92.5757 1299.3 92.3787 1299.49C92.1817 1299.68 92.179 1300 92.3726 1300.2L93.0858 1299.5ZM97.9142 1305.84C98.1078 1306.03 98.4243 1306.04 98.6213 1305.84C98.8183 1305.65 98.821 1305.33 98.6274 1305.14L97.9142 1305.84ZM102.586 1309.16C102.392 1308.97 102.076 1308.96 101.879 1309.16C101.682 1309.35 101.679 1309.67 101.873 1309.86L102.586 1309.16ZM107.414 1315.5C107.608 1315.7 107.924 1315.7 108.121 1315.51C108.318 1315.32 108.321 1315 108.127 1314.8L107.414 1315.5ZM112.086 1318.83C111.892 1318.63 111.576 1318.63 111.379 1318.82C111.182 1319.02 111.179 1319.33 111.373 1319.53L112.086 1318.83ZM114.461 1318.04C114.423 1317.77 114.171 1317.58 113.897 1317.62C113.624 1317.65 113.432 1317.91 113.47 1318.18L114.461 1318.04ZM112.706 1312.62C112.744 1312.9 112.996 1313.09 113.269 1313.05C113.543 1313.01 113.734 1312.76 113.697 1312.49L112.706 1312.62ZM112.627 1304.71C112.59 1304.44 112.337 1304.24 112.064 1304.28C111.79 1304.32 111.599 1304.57 111.637 1304.85L112.627 1304.71ZM110.873 1299.29C110.91 1299.56 111.163 1299.76 111.436 1299.72C111.71 1299.68 111.901 1299.43 111.863 1299.15L110.873 1299.29ZM110.794 1291.38C110.756 1291.1 110.504 1290.91 110.231 1290.95C109.957 1290.99 109.766 1291.24 109.803 1291.51L110.794 1291.38ZM109.039 1285.96C109.077 1286.23 109.329 1286.42 109.603 1286.38C109.876 1286.35 110.068 1286.09 110.03 1285.82L109.039 1285.96ZM89.9731 0.500754C88.7691 0.566972 87.5766 0.643927 86.3957 0.731346L86.4696 1.72862C87.6441 1.64167 88.8302 1.56512 90.028 1.49925L89.9731 0.500754ZM81.4062 1.16926C79.0172 1.41232 76.6787 1.69904 74.3911 2.02693L74.533 3.01681C76.8069 2.69088 79.1318 2.40582 81.5075 2.16413L81.4062 1.16926ZM69.4864 2.80573C67.1099 3.22057 64.7921 3.68082 62.5336 4.18339L62.7508 5.15952C64.9941 4.66033 67.2967 4.20307 69.6583 3.79083L69.4864 2.80573ZM57.6331 5.36321C55.317 5.96418 53.0685 6.61076 50.8881 7.29924L51.1892 8.25284C53.3528 7.56966 55.5846 6.92785 57.8842 6.33116L57.6331 5.36321ZM46.0933 8.91878C43.8229 9.7374 41.634 10.6027 39.5273 11.5099L39.9227 12.4284C42.0106 11.5293 44.1807 10.6714 46.4325 9.8595L46.0933 8.91878ZM34.9611 13.6024C32.7869 14.6618 30.7116 15.7671 28.7361 16.912L29.2375 17.7772C31.1918 16.6446 33.2458 15.5505 35.3991 14.5014L34.9611 13.6024ZM24.4568 19.5542C22.4262 20.8901 20.5196 22.2691 18.7381 23.6827L19.3597 24.466C21.1171 23.0716 22.9997 21.7098 25.0064 20.3896L24.4568 19.5542ZM14.8737 26.9797C13.0752 28.6329 11.4376 30.3218 9.96283 32.0339L10.7205 32.6866C12.1687 31.0053 13.779 29.3442 15.5505 27.7159L14.8737 26.9797ZM6.83896 36.0349C5.41096 38.0679 4.20646 40.1198 3.2288 42.1703L4.13145 42.6007C5.0834 40.6041 6.25903 38.6003 7.65726 36.6097L6.83896 36.0349ZM1.37229 46.9055C0.645573 49.271 0.228283 51.6142 0.126598 53.9024L1.12561 53.9468C1.22325 51.7498 1.62435 49.4902 2.3282 47.1991L1.37229 46.9055ZM0.445528 59.0156C0.859096 61.3791 1.64697 63.6443 2.81345 65.7684L3.68998 65.2871C2.5771 63.2605 1.82544 61.0999 1.43056 58.8432L0.445528 59.0156ZM5.75674 69.9347C7.25971 71.6345 9.06192 73.196 11.1638 74.5916L11.7169 73.7586C9.68218 72.4075 7.94711 70.9022 6.50588 69.2723L5.75674 69.9347ZM15.5996 77.0753C17.6196 78.0255 19.8375 78.8549 22.2542 79.5489L22.5303 78.5878C20.1605 77.9072 17.9931 77.0961 16.0253 76.1704L15.5996 77.0753ZM27.1908 80.7214C29.3948 81.1442 31.7347 81.4689 34.2112 81.6871L34.299 80.691C31.8539 80.4755 29.5477 80.1553 27.3792 79.7393L27.1908 80.7214ZM39.1705 81.9742C41.4185 82.0399 43.7652 82.0255 46.2112 81.9257L46.1705 80.9265C43.7465 81.0254 41.4231 81.0396 39.1997 80.9746L39.1705 81.9742ZM51.2779 81.6074C53.5473 81.4167 55.8939 81.1574 58.318 80.8259L58.1825 79.8351C55.7748 80.1644 53.4455 80.4217 51.1942 80.6109L51.2779 81.6074ZM63.2044 80.0768C65.4626 79.6943 67.7831 79.2523 70.166 78.7483L69.9591 77.7699C67.5889 78.2712 65.2817 78.7107 63.0373 79.0909L63.2044 80.0768ZM75.0291 77.6536C77.2547 77.1231 79.5314 76.5407 81.8594 75.9046L81.5958 74.94C79.278 75.5733 77.0119 76.153 74.7972 76.6809L75.0291 77.6536ZM86.6858 74.5302C87.8287 74.1918 88.9832 73.8409 90.1494 73.4773L89.8518 72.5227C88.69 72.8848 87.5401 73.2343 86.4019 73.5713L86.6858 74.5302ZM90.1494 73.4773C91.2927 73.1209 92.4254 72.7902 93.5474 72.4846L93.2847 71.5198C92.1507 71.8286 91.0064 72.1627 89.8518 72.5227L90.1494 73.4773ZM98.2908 71.3278C100.583 70.8352 102.828 70.4504 105.026 70.1689L104.899 69.177C102.672 69.4622 100.399 69.8518 98.0807 70.3502L98.2908 71.3278ZM109.853 69.7102C112.193 69.5669 114.476 69.5441 116.703 69.636L116.744 68.6368C114.482 68.5435 112.165 68.5667 109.792 68.7121L109.853 69.7102ZM121.486 70.0175C123.804 70.2941 126.056 70.6994 128.243 71.2259L128.477 70.2537C126.252 69.7179 123.961 69.3057 121.604 69.0246L121.486 70.0175ZM132.915 72.5661C135.088 73.2923 137.189 74.1435 139.22 75.1114L139.651 74.2086C137.583 73.2235 135.444 72.3569 133.232 71.6177L132.915 72.5661ZM143.53 77.3994C145.49 78.5502 147.377 79.8154 149.191 81.1862L149.794 80.3883C147.95 78.9948 146.031 77.708 144.037 76.5371L143.53 77.3994ZM152.968 84.2824C154.659 85.7821 156.279 87.379 157.827 89.0648L158.564 88.3883C156.993 86.6784 155.349 85.0574 153.632 83.5343L152.968 84.2824ZM161.002 92.7675C162.419 94.5354 163.767 96.3826 165.047 98.3013L165.879 97.7463C164.584 95.8044 163.218 93.9337 161.783 92.1422L161.002 92.7675ZM167.63 102.424C168.777 104.375 169.859 106.388 170.877 108.455L171.774 108.013C170.746 105.924 169.652 103.89 168.492 101.918L167.63 102.424ZM172.933 112.902C173.833 114.978 174.672 117.101 175.45 119.263L176.391 118.925C175.606 116.743 174.759 114.6 173.851 112.504L172.933 112.902ZM177.014 123.923C177.689 126.087 178.306 128.285 178.865 130.51L179.835 130.266C179.272 128.023 178.649 125.808 177.968 123.625L177.014 123.923ZM179.967 135.285C180.437 137.515 180.85 139.766 181.206 142.034L182.194 141.879C181.836 139.594 181.419 137.326 180.946 135.079L179.967 135.285ZM181.878 146.882C182.151 149.15 182.369 151.429 182.53 153.715L183.527 153.644C183.365 151.343 183.146 149.047 182.871 146.763L181.878 146.882ZM182.789 158.606C182.87 160.894 182.895 163.183 182.864 165.468L183.864 165.481C183.895 163.18 183.87 160.874 183.788 158.571L182.789 158.606ZM182.713 170.364C182.601 172.656 182.433 174.94 182.208 177.21L183.203 177.308C183.43 175.022 183.599 172.722 183.712 170.413L182.713 170.364ZM181.637 182.065C181.326 184.346 180.956 186.607 180.527 188.844L181.509 189.032C181.941 186.778 182.314 184.498 182.628 182.2L181.637 182.065ZM179.513 193.623C178.99 195.866 178.405 198.078 177.759 200.253L178.718 200.538C179.369 198.344 179.959 196.112 180.487 193.85L179.513 193.623ZM176.258 204.921C175.505 207.092 174.687 209.219 173.805 211.293L174.725 211.685C175.617 209.588 176.442 207.441 177.203 205.249L176.258 204.921ZM171.765 215.764C170.752 217.834 169.67 219.843 168.519 221.783L169.379 222.293C170.544 220.329 171.639 218.297 172.663 216.203L171.765 215.764ZM165.905 225.891C164.606 227.796 163.232 229.62 161.784 231.356L162.552 231.996C164.021 230.235 165.414 228.385 166.731 226.454L165.905 225.891ZM158.526 234.976C156.932 236.616 155.261 238.156 153.511 239.587L154.143 240.361C155.924 238.905 157.624 237.339 159.243 235.672L158.526 234.976ZM149.606 242.505C147.734 243.779 145.782 244.936 143.752 245.966L144.204 246.858C146.274 245.808 148.262 244.629 150.169 243.332L149.606 242.505ZM139.294 247.97C137.214 248.79 135.059 249.484 132.829 250.044L133.072 251.014C135.345 250.444 137.541 249.736 139.661 248.901L139.294 247.97ZM128.083 251.012C125.875 251.362 123.599 251.586 121.255 251.678L121.293 252.677C123.676 252.584 125.991 252.356 128.239 252L128.083 251.012ZM116.447 251.68C114.232 251.597 111.96 251.401 109.631 251.085L109.497 252.076C111.857 252.396 114.161 252.595 116.41 252.679L116.447 251.68ZM104.831 250.277C102.665 249.844 100.454 249.31 98.1958 248.672L97.9239 249.634C100.206 250.279 102.443 250.819 104.635 251.257L104.831 250.277ZM93.5232 247.223C92.4179 246.851 91.3022 246.454 90.1759 246.032L89.8252 246.968C90.9616 247.394 92.0878 247.795 93.2038 248.171L93.5232 247.223ZM90.1759 246.032C88.9461 245.571 87.7503 245.148 86.5878 244.762L86.2723 245.711C87.4223 246.093 88.6064 246.512 89.8252 246.968L90.1759 246.032ZM81.8076 243.328C79.313 242.667 76.9934 242.199 74.8412 241.916L74.7108 242.907C76.8145 243.184 79.0918 243.642 81.5514 244.294L81.8076 243.328ZM69.9941 241.586C67.3318 241.595 64.9826 241.956 62.9292 242.648L63.2486 243.596C65.1827 242.944 67.4225 242.595 69.9974 242.586L69.9941 241.586ZM58.3783 245.077C56.5092 246.548 55.0652 248.45 54.0011 250.718L54.9064 251.143C55.9128 248.998 57.2648 247.226 58.9969 245.862L58.3783 245.077ZM52.3833 255.637C51.9198 257.787 51.6723 260.144 51.6176 262.679L52.6174 262.701C52.671 260.215 52.9133 257.924 53.3609 255.848L52.3833 255.637ZM51.7336 267.605C51.8769 269.84 52.1385 272.186 52.5075 274.63L53.4963 274.48C53.131 272.061 52.8727 269.744 52.7315 267.541L51.7336 267.605ZM53.3858 279.646C53.8211 281.85 54.33 284.119 54.9059 286.447L55.8767 286.207C55.3041 283.893 54.7987 281.639 54.3669 279.452L53.3858 279.646ZM56.2084 291.406C56.8116 293.583 57.4659 295.804 58.1663 298.061L59.1214 297.764C58.4238 295.516 57.7724 293.306 57.1721 291.139L56.2084 291.406ZM59.7197 302.902C60.4373 305.071 61.1926 307.268 61.9814 309.489L62.9237 309.155C62.1371 306.94 61.3842 304.749 60.6691 302.588L59.7197 302.902ZM63.7113 314.255C64.5097 316.411 65.3362 318.584 66.1871 320.772L67.1191 320.409C66.27 318.226 65.4454 316.058 64.649 313.908L63.7113 314.255ZM68.0466 325.479C68.9063 327.624 69.7867 329.779 70.6845 331.94L71.608 331.557C70.7117 329.399 69.8329 327.248 68.9748 325.107L68.0466 325.479ZM72.6333 336.578C73.5441 338.722 74.4695 340.869 75.4065 343.016L76.3229 342.615C75.3873 340.472 74.4631 338.328 73.5537 336.187L72.6333 336.578ZM77.4263 347.603C78.3772 349.744 79.3373 351.882 80.3033 354.012L81.214 353.599C80.249 351.471 79.29 349.335 78.3403 347.197L77.4263 347.603ZM82.3826 358.566C83.3643 360.702 84.3497 362.828 85.3356 364.938L86.2417 364.515C85.2566 362.406 84.272 360.282 83.2912 358.148L82.3826 358.566ZM87.4661 369.476C88.471 371.607 89.474 373.718 90.4715 375.807L91.3739 375.376C90.377 373.289 89.3747 371.178 88.3705 369.05L87.4661 369.476ZM92.6452 380.343C93.6682 382.47 94.6825 384.569 95.6843 386.635L96.5842 386.199C95.5827 384.133 94.5688 382.035 93.5464 379.909L92.6452 380.343ZM97.8899 391.175C98.9286 393.309 99.9501 395.402 100.95 397.449L101.848 397.01C100.849 394.963 99.8275 392.87 98.789 390.737L97.8899 391.175ZM103.166 401.985C104.222 404.147 105.247 406.248 106.236 408.281L107.135 407.844C106.146 405.81 105.12 403.708 104.064 401.546L103.166 401.985ZM108.415 412.772C109.491 414.999 110.512 417.127 111.469 419.144L112.372 418.715C111.414 416.695 110.392 414.566 109.315 412.337L108.415 412.772ZM113.553 423.585C114.626 425.901 115.585 428.027 116.412 429.939L117.33 429.542C116.499 427.62 115.536 425.486 114.46 423.164L113.553 423.585ZM118.309 434.561C119.031 436.459 119.508 437.963 119.718 439.042C119.824 439.584 119.856 439.988 119.83 440.269C119.818 440.407 119.793 440.497 119.769 440.551C119.758 440.577 119.747 440.593 119.741 440.601C119.735 440.609 119.731 440.612 119.73 440.613L120.295 441.437C120.66 441.187 120.79 440.762 120.826 440.358C120.864 439.942 120.813 439.431 120.7 438.851C120.473 437.685 119.971 436.117 119.243 434.205L118.309 434.561ZM116.225 438.249C114.943 437.069 113.352 435.444 111.421 433.335L110.684 434.01C112.623 436.13 114.236 437.778 115.547 438.985L116.225 438.249ZM108.011 429.51C106.667 427.969 105.203 426.258 103.613 424.369L102.848 425.013C104.441 426.905 105.909 428.621 107.258 430.168L108.011 429.51ZM100.214 420.29C98.8796 418.675 97.471 416.955 95.9859 415.128L95.2098 415.759C96.6964 417.588 98.1068 419.31 99.4433 420.927L100.214 420.29ZM92.774 411.157C91.9983 410.193 91.204 409.203 90.3909 408.188L89.6102 408.812C90.4239 409.829 91.2187 410.819 91.9951 411.784L92.774 411.157ZM90.3909 408.188C89.6158 407.219 88.8591 406.255 88.1207 405.295L87.3282 405.905C88.0706 406.87 88.8312 407.839 89.6102 408.812L90.3909 408.188ZM85.0663 401.211C83.6922 399.319 82.3893 397.445 81.1553 395.591L80.3228 396.145C81.5645 398.01 82.8752 399.895 84.2571 401.799L85.0663 401.211ZM78.3396 391.204C77.0848 389.174 75.9135 387.169 74.8227 385.192L73.9471 385.675C75.0461 387.667 76.2257 389.686 77.489 391.73L78.3396 391.204ZM72.4603 380.705C71.3778 378.545 70.3928 376.421 69.5008 374.334L68.5812 374.727C69.4814 376.833 70.475 378.976 71.5662 381.153L72.4603 380.705ZM67.6335 369.661C66.7916 367.395 66.0619 365.177 65.4382 363.011L64.4773 363.287C65.1081 365.478 65.8458 367.72 66.6961 370.009L67.6335 369.661ZM64.1829 358.096C63.662 355.754 63.2691 353.479 62.9957 351.277L62.0033 351.4C62.2808 353.635 62.6792 355.941 63.2068 358.314L64.1829 358.096ZM62.5669 346.183C62.4624 343.746 62.5115 341.412 62.7006 339.187L61.7042 339.102C61.5113 341.372 61.4616 343.749 61.5679 346.225L62.5669 346.183ZM63.3657 334.316C63.8235 331.921 64.4568 329.679 65.2442 327.6L64.309 327.246C63.5002 329.382 62.8516 331.679 62.3835 334.128L63.3657 334.316ZM67.359 323.032C68.533 320.925 69.8908 319.046 71.3995 317.407L70.6638 316.73C69.0995 318.429 67.696 320.373 66.4855 322.545L67.359 323.032ZM75.0892 314.093C76.9782 312.703 79.0209 311.617 81.175 310.851L80.8401 309.909C78.592 310.708 76.4628 311.841 74.4967 313.287L75.0892 314.093ZM85.9752 309.705C88.2167 309.418 90.5392 309.449 92.9041 309.821L93.0594 308.833C90.6034 308.447 88.1858 308.413 85.8479 308.713L85.9752 309.705ZM97.6796 311.024C99.7678 311.748 101.87 312.739 103.959 314.011L104.479 313.157C102.332 311.85 100.166 310.828 98.0073 310.079L97.6796 311.024ZM108.007 316.85C109.74 318.231 111.452 319.817 113.128 321.616L113.86 320.934C112.152 319.101 110.404 317.481 108.63 316.068L108.007 316.85ZM116.413 325.484C117.766 327.227 119.087 329.122 120.365 331.175L121.214 330.646C119.918 328.566 118.578 326.642 117.202 324.871L116.413 325.484ZM122.916 335.591C123.971 337.559 124.99 339.647 125.965 341.859L126.88 341.455C125.895 339.221 124.865 337.11 123.798 335.118L122.916 335.591ZM127.891 346.536C128.699 348.638 129.471 350.839 130.201 353.138L131.154 352.836C130.418 350.518 129.64 348.299 128.825 346.177L127.891 346.536ZM131.654 358.041C132.249 360.2 132.81 362.438 133.334 364.757L134.31 364.536C133.782 362.203 133.217 359.95 132.618 357.775L131.654 358.041ZM134.399 369.849C134.822 372.041 135.213 374.299 135.571 376.625L136.559 376.473C136.2 374.135 135.807 371.864 135.381 369.659L134.399 369.849ZM136.275 381.64C136.569 383.947 136.831 386.315 137.06 388.746L138.055 388.652C137.826 386.211 137.563 383.832 137.267 381.514L136.275 381.64ZM137.466 393.635C137.635 395.955 137.774 398.329 137.881 400.756L138.88 400.712C138.772 398.275 138.633 395.892 138.464 393.563L137.466 393.635ZM138.06 405.907C138.117 408.149 138.147 410.435 138.151 412.765L139.151 412.763C139.147 410.425 139.116 408.132 139.06 405.882L138.06 405.907ZM138.118 417.826C138.083 420.216 138.02 422.65 137.929 425.13L138.928 425.166C139.02 422.68 139.082 420.238 139.118 417.84L138.118 417.826ZM137.717 429.97C137.602 432.255 137.462 434.576 137.299 436.935L138.296 437.005C138.46 434.64 138.6 432.312 138.716 430.02L137.717 429.97ZM136.91 442.047C136.716 444.4 136.498 446.789 136.256 449.213L137.251 449.313C137.494 446.883 137.712 444.488 137.907 442.129L136.91 442.047ZM135.744 454.067C135.489 456.354 135.214 458.672 134.917 461.022L135.909 461.147C136.207 458.793 136.483 456.47 136.738 454.178L135.744 454.067ZM134.246 466.104C133.921 468.466 133.575 470.858 133.207 473.281L134.195 473.432C134.564 471.004 134.911 468.606 135.236 466.24L134.246 466.104ZM132.453 478.089C132.088 480.352 131.704 482.64 131.3 484.955L132.286 485.127C132.69 482.808 133.075 480.515 133.44 478.249L132.453 478.089ZM130.406 489.955C129.975 492.308 129.524 494.686 129.053 497.092L130.034 497.284C130.506 494.875 130.958 492.492 131.39 490.136L130.406 489.955ZM128.064 502.035C127.61 504.255 127.14 506.498 126.653 508.762L127.63 508.973C128.118 506.705 128.589 504.459 129.043 502.235L128.064 502.035ZM125.582 513.649C125.07 515.946 124.541 518.264 123.994 520.606L124.968 520.833C125.515 518.489 126.045 516.167 126.558 513.867L125.582 513.649ZM122.795 525.657C122.248 527.924 121.685 530.212 121.106 532.52L122.075 532.764C122.656 530.453 123.219 528.162 123.767 525.892L122.795 525.657ZM119.896 537.276C119.32 539.508 118.73 541.76 118.124 544.031L119.09 544.288C119.697 542.015 120.288 539.761 120.864 537.525L119.896 537.276ZM116.801 548.926C116.172 551.224 115.528 553.541 114.868 555.878L115.83 556.15C116.491 553.81 117.136 551.49 117.765 549.19L116.801 548.926ZM113.429 560.915C112.801 563.089 112.159 565.28 111.504 567.488L112.462 567.773C113.119 565.563 113.761 563.369 114.39 561.192L113.429 560.915ZM110.085 572.222C109.412 574.443 108.727 576.68 108.027 578.934L108.982 579.23C109.682 576.974 110.369 574.735 111.042 572.511L110.085 572.222ZM106.506 583.788C105.786 586.066 105.052 588.36 104.303 590.67L105.255 590.978C106.004 588.666 106.738 586.369 107.459 584.09L106.506 583.788ZM102.678 595.647C101.969 597.8 101.248 599.967 100.514 602.148L101.462 602.467C102.196 600.284 102.918 598.114 103.628 595.959L102.678 595.647ZM98.93 606.825C98.1819 609.018 97.4213 611.225 96.6483 613.446L97.5927 613.774C98.3664 611.551 99.1276 609.343 99.8765 607.148L98.93 606.825ZM94.9726 618.227C94.1816 620.468 93.3779 622.724 92.5616 624.994L93.5026 625.333C94.3196 623.061 95.1239 620.803 95.9156 618.56L94.9726 618.227ZM90.7927 629.881C90.3755 631.026 89.955 632.175 89.5313 633.327L90.4699 633.673C90.8939 632.519 91.3147 631.369 91.7323 630.223L90.7927 629.881ZM89.5313 633.327C89.1134 634.464 88.6986 635.599 88.2868 636.731L89.2266 637.073C89.638 635.941 90.0524 634.808 90.4699 633.673L89.5313 633.327ZM86.5401 641.573C85.7336 643.827 84.9389 646.074 84.1561 648.312L85.1 648.642C85.8821 646.406 86.6759 644.162 87.4817 641.91L86.5401 641.573ZM82.4965 653.097C81.7305 655.324 80.9761 657.544 80.2333 659.755L81.1813 660.073C81.9233 657.864 82.6769 655.647 83.4422 653.422L82.4965 653.097ZM78.6593 664.482C77.933 666.682 77.2182 668.875 76.5148 671.059L77.4667 671.366C78.1694 669.184 78.8834 666.993 79.6089 664.796L78.6593 664.482ZM74.9465 675.976C74.2216 678.27 73.5093 680.556 72.8094 682.833L73.7652 683.127C74.4644 680.852 75.1759 678.569 75.9001 676.277L74.9465 675.976ZM71.3286 687.698C70.6464 689.962 69.9765 692.217 69.3188 694.463L70.2785 694.744C70.9355 692.501 71.6046 690.248 72.2861 687.986L71.3286 687.698ZM67.9281 699.263C67.2877 701.497 66.6595 703.721 66.0432 705.937L67.0066 706.205C67.6222 703.992 68.2497 701.77 68.8894 699.539L67.9281 699.263ZM64.6953 710.837C64.0624 713.165 63.4426 715.483 62.836 717.791L63.8031 718.045C64.4091 715.74 65.0281 713.425 65.6603 711.1L64.6953 710.837ZM61.5558 722.721C60.9677 725.014 60.3925 727.298 59.8301 729.571L60.8008 729.811C61.3625 727.541 61.9371 725.26 62.5245 722.969L61.5558 722.721ZM58.6443 734.426C58.1 736.685 57.5683 738.933 57.0491 741.172L58.0232 741.398C58.5418 739.162 59.0728 736.916 59.6164 734.661L58.6443 734.426ZM55.9119 746.145C55.3819 748.498 54.8658 750.839 54.3632 753.169L55.3407 753.38C55.8426 751.053 56.3582 748.715 56.8875 746.365L55.9119 746.145ZM53.3071 758.143C52.8238 760.456 52.3541 762.758 51.8976 765.048L52.8783 765.243C53.3342 762.956 53.8033 760.658 54.2859 758.348L53.3071 758.143ZM50.9397 769.937C50.4989 772.227 50.0715 774.505 49.6572 776.77L50.6408 776.95C51.0546 774.688 51.4815 772.413 51.9216 770.126L50.9397 769.937ZM48.745 781.86C48.3296 784.225 47.9285 786.578 47.5415 788.917L48.5281 789.08C48.9146 786.744 49.3151 784.395 49.7299 782.033L48.745 781.86ZM46.7337 793.91C46.3667 796.23 46.0136 798.538 45.6742 800.832L46.6635 800.978C47.0024 798.687 47.355 796.383 47.7214 794.066L46.7337 793.91ZM44.9678 805.727C44.6335 808.104 44.314 810.465 44.009 812.813L45.0006 812.942C45.3052 810.598 45.6243 808.239 45.958 805.867L44.9678 805.727ZM43.3674 817.901C43.0786 820.265 42.8045 822.613 42.5448 824.947L43.5387 825.057C43.7979 822.727 44.0716 820.382 44.36 818.022L43.3674 817.901ZM42.0103 829.924C41.7711 832.236 41.5461 834.533 41.335 836.814L42.3308 836.906C42.5415 834.628 42.7661 832.335 43.005 830.027L42.0103 829.924ZM40.8824 841.935C40.68 844.337 40.4932 846.721 40.3215 849.089L41.3188 849.161C41.4903 846.798 41.6768 844.417 41.8788 842.019L40.8824 841.935ZM39.9766 854.135C39.8264 856.477 39.6911 858.802 39.5704 861.11L40.5691 861.162C40.6896 858.858 40.8246 856.537 40.9746 854.199L39.9766 854.135ZM39.3338 866.029C39.2271 868.462 39.1367 870.875 39.0621 873.269L40.0617 873.3C40.1361 870.911 40.2264 868.502 40.3329 866.073L39.3338 866.029ZM38.9264 878.366C38.8743 880.731 38.8377 883.076 38.8162 885.4L39.8162 885.409C39.8376 883.089 39.8742 880.749 39.9262 878.389L38.9264 878.366ZM38.7932 890.35C38.7931 892.751 38.8093 895.129 38.8411 897.485L39.841 897.472C39.8092 895.12 39.7931 892.746 39.7932 890.35L38.7932 890.35ZM38.9359 902.612C38.9917 904.987 39.0636 907.34 39.151 909.669L40.1503 909.631C40.063 907.307 39.9913 904.959 39.9356 902.588L38.9359 902.612ZM39.362 914.624C39.4759 917.014 39.6062 919.378 39.7524 921.717L40.7505 921.654C40.6046 919.32 40.4745 916.961 40.3608 914.576L39.362 914.624ZM40.101 926.84C40.2754 929.212 40.4663 931.556 40.673 933.873L41.669 933.784C41.4628 931.472 41.2724 929.133 41.0983 926.767L40.101 926.84ZM41.1398 938.796C41.3811 941.198 41.6396 943.569 41.9143 945.91L42.9075 945.794C42.6334 943.458 42.3756 941.092 42.1348 938.696L41.1398 938.796ZM42.5415 950.986C42.8461 953.332 43.1671 955.646 43.5038 957.927L44.4931 957.781C44.1573 955.506 43.837 953.198 43.5332 950.858L42.5415 950.986ZM44.2563 962.813C44.645 965.233 45.0514 967.616 45.4744 969.96L46.4585 969.783C46.0366 967.445 45.6313 965.069 45.2437 962.654L44.2563 962.813ZM46.4061 974.925C46.8525 977.215 47.3148 979.466 47.7921 981.679L48.7696 981.468C48.2937 979.262 47.8327 977.017 47.3876 974.734L46.4061 974.925ZM48.9311 986.767C49.4761 989.113 50.0379 991.414 50.6152 993.669L51.584 993.42C51.0085 991.173 50.4485 988.88 49.9052 986.54L48.9311 986.767ZM51.8757 998.429C52.5235 1000.8 53.1883 1003.11 53.8686 1005.37L54.8261 1005.08C54.1483 1002.83 53.4858 1000.52 52.8402 998.165L51.8757 998.429ZM55.3734 1010.19C56.1012 1012.45 56.8443 1014.65 57.6009 1016.79L58.5437 1016.46C57.7903 1014.33 57.0502 1012.14 56.3252 1009.89L55.3734 1010.19ZM59.3872 1021.67C60.2313 1023.9 61.0898 1026.05 61.9601 1028.14L62.8829 1027.75C62.0169 1025.68 61.1626 1023.53 60.3222 1021.32L59.3872 1021.67ZM64.0066 1032.86C65.0037 1035.08 66.0135 1037.21 67.0327 1039.25L67.927 1038.8C66.9142 1036.78 65.9103 1034.66 64.9187 1032.45L64.0066 1032.86ZM69.3733 1043.74C70.5507 1045.9 71.737 1047.95 72.9274 1049.88L73.7783 1049.35C72.5981 1047.44 71.421 1045.41 70.252 1043.26L69.3733 1043.74ZM75.712 1054.16C77.1013 1056.19 78.4912 1058.05 79.874 1059.75L80.6492 1059.11C79.2853 1057.44 77.9118 1055.6 76.5366 1053.6L75.712 1054.16ZM83.3635 1063.7C85.1705 1065.57 86.9559 1067.15 88.7018 1068.44L89.2955 1067.64C87.6018 1066.39 85.8582 1064.84 84.0834 1063L83.3635 1063.7ZM93.0609 1071.08C95.5451 1072.24 97.9267 1072.74 100.135 1072.53L100.039 1071.54C98.0509 1071.73 95.8498 1071.28 93.4846 1070.18L93.0609 1071.08ZM104.996 1070.66C106.743 1069.38 108.238 1067.47 109.441 1064.95L108.538 1064.52C107.387 1066.93 105.988 1068.7 104.405 1069.86L104.996 1070.66ZM111.181 1060.14C111.737 1058.09 112.168 1055.78 112.462 1053.22L111.469 1053.11C111.179 1055.63 110.756 1057.89 110.215 1059.88L111.181 1060.14ZM112.851 1048.11C112.942 1045.88 112.948 1043.49 112.861 1040.95L111.862 1040.99C111.948 1043.51 111.942 1045.87 111.851 1048.07L112.851 1048.11ZM112.589 1035.99C112.42 1033.73 112.187 1031.36 111.885 1028.89L110.892 1029.01C111.192 1031.47 111.424 1033.82 111.591 1036.06L112.589 1035.99ZM111.196 1023.84C110.864 1021.63 110.481 1019.35 110.046 1016.99L109.063 1017.17C109.496 1019.52 109.876 1021.79 110.207 1023.99L111.196 1023.84ZM109.034 1011.81C108.584 1009.63 108.092 1007.39 107.557 1005.09L106.583 1005.32C107.116 1007.61 107.606 1009.84 108.054 1012.01L109.034 1011.81ZM106.378 1000.2C105.797 997.88 105.175 995.499 104.51 993.059L103.545 993.323C104.209 995.755 104.829 998.13 105.407 1000.45L106.378 1000.2ZM103.21 988.414C102.583 986.226 101.923 983.994 101.228 981.718L100.271 982.009C100.964 984.281 101.623 986.507 102.249 988.689L103.21 988.414ZM99.6865 976.771C98.981 974.552 98.2442 972.294 97.4752 969.994L96.5269 970.312C97.2943 972.606 98.0296 974.86 98.7335 977.074L99.6865 976.771ZM95.9012 965.362C95.1467 963.176 94.364 960.954 93.5525 958.698L92.6115 959.037C93.4215 961.289 94.2028 963.506 94.9559 965.689L95.9012 965.362ZM91.7695 953.809C91.3432 952.656 90.9095 951.494 90.4685 950.324L89.5327 950.676C89.973 951.845 90.4059 953.005 90.8316 954.156L91.7695 953.809ZM90.4685 950.324C90.0187 949.13 89.5703 947.954 89.1235 946.796L88.1905 947.156C88.6364 948.311 89.0838 949.485 89.5327 950.676L90.4685 950.324ZM87.2172 941.944C86.3318 939.73 85.4522 937.588 84.5786 935.515L83.6572 935.904C84.5283 937.971 85.4055 940.107 86.2887 942.315L87.2172 941.944ZM82.7157 931.181C81.7273 928.926 80.7467 926.761 79.7739 924.685L78.8684 925.109C79.8374 927.177 80.8146 929.335 81.7999 931.582L82.7157 931.181ZM77.5493 920.061C76.5177 917.974 75.4952 915.988 74.482 914.1L73.6008 914.573C74.6085 916.451 75.6259 918.427 76.6529 920.504L77.5493 920.061ZM72.037 909.7C70.7772 907.515 69.5322 905.482 68.3021 903.597L67.4646 904.144C68.6838 906.012 69.9192 908.029 71.1706 910.2L72.037 909.7ZM65.6886 899.783C64.1328 897.626 62.6011 895.709 61.0939 894.021L60.348 894.687C61.8291 896.345 63.3392 898.236 64.8777 900.368L65.6886 899.783ZM57.823 890.68C55.8419 888.855 53.9013 887.431 52.0018 886.39L51.5214 887.268C53.3364 888.261 55.2118 889.634 57.1453 891.416L57.823 890.68ZM47.2139 884.553C44.7842 884.028 42.4415 884.16 40.1985 884.893L40.5094 885.844C42.5822 885.166 44.7447 885.042 47.0028 885.53L47.2139 884.553ZM35.7292 887.233C33.9663 888.519 32.2857 890.196 30.687 892.221L31.4719 892.841C33.0272 890.871 34.6442 889.262 36.3185 888.041L35.7292 887.233ZM27.7936 896.402C26.6591 898.254 25.5687 900.295 24.5229 902.51L25.4272 902.937C26.4599 900.75 27.5334 898.741 28.6462 896.925L27.7936 896.402ZM22.4373 907.3C21.625 909.318 20.8428 911.448 20.091 913.683L21.0387 914.002C21.785 911.784 22.5606 909.672 23.365 907.673L22.4373 907.3ZM18.5297 918.617C17.8992 920.735 17.2929 922.93 16.7112 925.198L17.6799 925.447C18.2586 923.19 18.8615 921.007 19.4881 918.902L18.5297 918.617ZM15.5113 930.129C15.0018 932.335 14.5138 934.601 14.0476 936.921L15.028 937.118C15.4925 934.807 15.9785 932.55 16.4857 930.354L15.5113 930.129ZM13.1124 941.808C12.6963 944.092 12.3001 946.424 11.9241 948.798L12.9118 948.954C13.2866 946.587 13.6815 944.264 14.0962 941.987L13.1124 941.808ZM11.1936 953.641C10.8655 955.927 10.5554 958.249 10.2635 960.603L11.2559 960.726C11.547 958.378 11.8563 956.063 12.1834 953.783L11.1936 953.641ZM9.67713 965.595C9.42541 967.861 9.19007 970.154 8.97128 972.471L9.96686 972.565C10.1851 970.253 10.4199 967.966 10.671 965.705L9.67713 965.595ZM8.52785 977.472C8.33644 979.777 8.16109 982.104 8.00196 984.449L8.99966 984.517C9.15846 982.177 9.33344 979.855 9.52442 977.554L8.52785 977.472ZM7.69203 989.394C7.55854 991.714 7.4407 994.049 7.33866 996.397L8.33772 996.441C8.43956 994.097 8.55716 991.766 8.69037 989.452L7.69203 989.394ZM7.14607 1001.39C7.06846 1003.7 7.00596 1006.02 6.95871 1008.34L7.9585 1008.36C8.00567 1006.04 8.06805 1003.73 8.14551 1001.43L7.14607 1001.39ZM6.88083 1013.34C6.85554 1015.66 6.84546 1018 6.85074 1020.34L7.85073 1020.33C7.84546 1018 7.85552 1015.67 7.88077 1013.35L6.88083 1013.34ZM6.88513 1025.31C6.91203 1027.64 6.95413 1029.96 7.01157 1032.29L8.01127 1032.27C7.95393 1029.94 7.91191 1027.62 7.88507 1025.3L6.88513 1025.31ZM7.15822 1037.28C7.2377 1039.61 7.33264 1041.94 7.44318 1044.26L8.44205 1044.22C8.33172 1041.9 8.23696 1039.57 8.15763 1037.25L7.15822 1037.28ZM7.70397 1049.24C7.83702 1051.56 7.98581 1053.88 8.15047 1056.19L9.14794 1056.12C8.98361 1053.81 8.83512 1051.5 8.70234 1049.18L7.70397 1049.24ZM8.53256 1061.19C8.72254 1063.52 8.92888 1065.84 9.15174 1068.14L10.1471 1068.05C9.92473 1065.75 9.71883 1063.43 9.52925 1061.11L8.53256 1061.19ZM9.65462 1073.07C9.90675 1075.41 10.1763 1077.74 10.4633 1080.06L11.4557 1079.93C11.1693 1077.62 10.9004 1075.3 10.6489 1072.96L9.65462 1073.07ZM11.1079 1085.01C11.4214 1087.3 11.7527 1089.58 12.1019 1091.84L13.0901 1091.69C12.7418 1089.44 12.4114 1087.16 12.0987 1084.87L11.1079 1085.01ZM12.9092 1096.84C13.3004 1099.16 13.7113 1101.45 14.1419 1103.72L15.1243 1103.53C14.6951 1101.27 14.2854 1098.98 13.8952 1096.67L12.9092 1096.84ZM15.0949 1108.54C15.5771 1110.88 16.0812 1113.18 16.6075 1115.46L17.5817 1115.23C17.0573 1112.97 16.5549 1110.67 16.0744 1108.33L15.0949 1108.54ZM17.7752 1120.3C18.3468 1122.57 18.9417 1124.81 19.5603 1127L20.5227 1126.73C19.9068 1124.54 19.3144 1122.32 18.7451 1120.05L17.7752 1120.3ZM20.996 1131.87C21.6848 1134.1 22.4 1136.29 23.142 1138.42L24.0864 1138.09C23.3487 1135.97 22.6371 1133.8 21.9517 1131.57L20.996 1131.87ZM24.8752 1143.17C25.7284 1145.4 26.6136 1147.57 27.5313 1149.65L28.4468 1149.25C27.5361 1147.18 26.657 1145.03 25.8092 1142.82L24.8752 1143.17ZM29.6031 1154.13C30.6726 1156.32 31.7823 1158.41 32.933 1160.4L33.7989 1159.9C32.6607 1157.93 31.5618 1155.86 30.5017 1153.69L29.6031 1154.13ZM35.4914 1164.56C36.8472 1166.62 38.2552 1168.54 39.7164 1170.32L40.4892 1169.69C39.0525 1167.94 37.6651 1166.04 36.3268 1164.01L35.4914 1164.56ZM43.0126 1173.99C44.7323 1175.73 46.5199 1177.28 48.3766 1178.63L48.9628 1177.82C47.1551 1176.51 45.4091 1175 43.7243 1173.29L43.0126 1173.99ZM52.6468 1181.28C54.7576 1182.39 56.9485 1183.24 59.2203 1183.81L59.4661 1182.84C57.2736 1182.29 55.1556 1181.47 53.1104 1180.4L52.6468 1181.28ZM64.1717 1184.62C66.4398 1184.79 68.7776 1184.7 71.1852 1184.33L71.0354 1183.34C68.6989 1183.7 66.4364 1183.78 64.2462 1183.62L64.1717 1184.62ZM76.1084 1183.23C78.2224 1182.6 80.3857 1181.78 82.5988 1180.74L82.1745 1179.84C80.0033 1180.85 77.8871 1181.66 75.8255 1182.27L76.1084 1183.23ZM87.067 1178.4C88.1252 1177.78 89.1943 1177.13 90.2744 1176.42L89.7267 1175.58C88.6612 1176.28 87.6076 1176.93 86.5658 1177.53L87.067 1178.4ZM90.2744 1176.42C91.313 1175.74 92.3341 1175.08 93.338 1174.44L92.8019 1173.6C91.794 1174.24 90.769 1174.9 89.7267 1175.58L90.2744 1176.42ZM97.5353 1171.84C99.5698 1170.61 101.527 1169.47 103.41 1168.42L102.923 1167.54C101.029 1168.6 99.0614 1169.74 97.0174 1170.98L97.5353 1171.84ZM107.771 1166.08C109.942 1164.97 112.002 1163.98 113.954 1163.13L113.553 1162.21C111.58 1163.08 109.502 1164.07 107.314 1165.19L107.771 1166.08ZM118.35 1161.35C120.72 1160.48 122.904 1159.82 124.912 1159.37L124.692 1158.39C122.634 1158.86 120.408 1159.53 118.004 1160.41L118.35 1161.35ZM129.746 1158.64C132.279 1158.47 134.433 1158.72 136.248 1159.33L136.566 1158.38C134.602 1157.72 132.314 1157.46 129.679 1157.64L129.746 1158.64ZM140.262 1161.71C141.764 1163.14 142.873 1165.03 143.623 1167.36L144.575 1167.05C143.785 1164.6 142.599 1162.55 140.95 1160.98L140.262 1161.71ZM144.6 1172.07C144.838 1174.15 144.89 1176.43 144.775 1178.89L145.774 1178.93C145.891 1176.43 145.838 1174.1 145.593 1171.96L144.6 1172.07ZM144.364 1183.73C144.107 1185.88 143.747 1188.14 143.296 1190.49L144.278 1190.68C144.733 1188.31 145.096 1186.03 145.357 1183.84L144.364 1183.73ZM142.283 1195.26C141.781 1197.43 141.214 1199.66 140.588 1201.94L141.552 1202.2C142.182 1199.91 142.752 1197.67 143.257 1195.49L142.283 1195.26ZM139.223 1206.68C138.578 1208.83 137.888 1211.01 137.159 1213.22L138.108 1213.53C138.841 1211.31 139.533 1209.12 140.18 1206.97L139.223 1206.68ZM135.574 1217.88C134.826 1220.03 134.046 1222.19 133.237 1224.37L134.175 1224.72C134.986 1222.53 135.768 1220.36 136.518 1218.21L135.574 1217.88ZM131.506 1228.95C130.685 1231.08 129.841 1233.22 128.978 1235.36L129.906 1235.74C130.771 1233.59 131.617 1231.44 132.439 1229.31L131.506 1228.95ZM127.12 1239.91C126.241 1242.03 125.348 1244.15 124.443 1246.26L125.362 1246.66C126.268 1244.54 127.163 1242.42 128.044 1240.29L127.12 1239.91ZM122.489 1250.77C121.562 1252.88 120.626 1254.98 119.687 1257.07L120.598 1257.48C121.539 1255.39 122.476 1253.29 123.405 1251.17L122.489 1250.77ZM117.649 1261.55C116.684 1263.65 115.719 1265.73 114.757 1267.77L115.662 1268.2C116.625 1266.15 117.592 1264.07 118.558 1261.96L117.649 1261.55ZM112.634 1272.25C111.626 1274.36 110.627 1276.43 109.642 1278.45L110.541 1278.89C111.527 1276.87 112.528 1274.8 113.536 1272.68L112.634 1272.25ZM107.488 1282.84C106.435 1284.97 105.404 1287.04 104.401 1289.03L105.294 1289.48C106.298 1287.49 107.33 1285.42 108.384 1283.29L107.488 1282.84ZM102.167 1293.44C101.066 1295.6 100.01 1297.65 99.0117 1299.57L99.8993 1300.03C100.899 1298.11 101.955 1296.06 103.058 1293.9L102.167 1293.44ZM96.7492 1303.9C95.5347 1306.21 94.4399 1308.27 93.4921 1310.04L94.3734 1310.51C95.3224 1308.74 96.4185 1306.68 97.6343 1304.37L96.7492 1303.9ZM91.1771 1314.32C90.6587 1315.27 90.2552 1316.01 89.9815 1316.5C89.8446 1316.75 89.7401 1316.94 89.6699 1317.07C89.6348 1317.13 89.6083 1317.18 89.5906 1317.21C89.5817 1317.22 89.575 1317.24 89.5706 1317.24C89.5684 1317.25 89.5667 1317.25 89.5656 1317.25C89.5651 1317.25 89.5647 1317.26 89.5644 1317.26C89.5643 1317.26 89.5642 1317.26 89.5641 1317.26C89.5641 1317.26 89.564 1317.26 89.564 1317.26C89.564 1317.26 89.564 1317.26 89.564 1317.26C89.564 1317.26 89.564 1317.26 90.0006 1317.5C90.4371 1317.74 90.4371 1317.74 90.4372 1317.74C90.4372 1317.74 90.4372 1317.74 90.4372 1317.74C90.4372 1317.74 90.4372 1317.74 90.4373 1317.74C90.4373 1317.74 90.4375 1317.74 90.4376 1317.74C90.4379 1317.74 90.4383 1317.74 90.4389 1317.74C90.4401 1317.74 90.4418 1317.74 90.444 1317.73C90.4486 1317.72 90.4553 1317.71 90.4643 1317.7C90.4822 1317.66 90.5089 1317.61 90.5442 1317.55C90.6148 1317.42 90.7197 1317.23 90.8569 1316.99C91.1315 1316.49 91.5358 1315.75 92.0551 1314.8L91.1771 1314.32ZM90.2141 1317.95L93.714 1316.3L93.287 1315.4L89.7871 1317.05L90.2141 1317.95ZM98.7139 1313.94L105.714 1310.63L105.287 1309.73L98.2869 1313.03L98.7139 1313.94ZM110.714 1308.27L117.714 1304.97L117.287 1304.06L110.287 1307.37L110.714 1308.27ZM122.714 1302.6L126.214 1300.95L125.786 1300.05L122.287 1301.7L122.714 1302.6ZM126.092 1300.01L122.203 1299.28L122.019 1300.26L125.908 1300.99L126.092 1300.01ZM116.648 1298.24L108.87 1296.78L108.686 1297.76L116.463 1299.22L116.648 1298.24ZM103.314 1295.74L95.5366 1294.28L95.3523 1295.26L103.13 1296.72L103.314 1295.74ZM89.981 1293.24L86.0921 1292.51L85.9079 1293.49L89.7967 1294.22L89.981 1293.24ZM85.6434 1293.35L88.4142 1296.17L89.1274 1295.47L86.3566 1292.65L85.6434 1293.35ZM92.3726 1300.2L97.9142 1305.84L98.6274 1305.14L93.0858 1299.5L92.3726 1300.2ZM101.873 1309.86L107.414 1315.5L108.127 1314.8L102.586 1309.16L101.873 1309.86ZM111.373 1319.53L114.143 1322.35L114.857 1321.65L112.086 1318.83L111.373 1319.53ZM114.995 1321.93L114.461 1318.04L113.47 1318.18L114.005 1322.07L114.995 1321.93ZM113.697 1312.49L112.627 1304.71L111.637 1304.85L112.706 1312.62L113.697 1312.49ZM111.863 1299.15L110.794 1291.38L109.803 1291.51L110.873 1299.29L111.863 1299.15ZM110.03 1285.82L109.495 1281.93L108.505 1282.07L109.039 1285.96L110.03 1285.82Z" fill="black"/>
</svg>
