<svg width="184" height="1323" viewBox="0 0 184 1323" fill="none" xmlns="http://www.w3.org/2000/svg">
<path d="M90.0006 1317.5L89.564 1317.26C89.4581 1317.45 89.4868 1317.68 89.6352 1317.84C89.7836 1318 90.0175 1318.04 90.2141 1317.95L90.0006 1317.5ZM126 1300.5L126.214 1300.95C126.41 1300.86 126.524 1300.65 126.496 1300.44C126.468 1300.22 126.305 1300.05 126.092 1300.01L126 1300.5ZM86 1293L86.0921 1292.51C85.8775 1292.47 85.6615 1292.57 85.5588 1292.76C85.456 1292.96 85.4903 1293.19 85.6434 1293.35L86 1293ZM114.5 1322L114.143 1322.35C114.294 1322.5 114.527 1322.54 114.72 1322.45C114.914 1322.35 115.025 1322.15 114.995 1321.93L114.5 1322ZM109.495 1281.93C109.458 1281.66 109.205 1281.47 108.932 1281.5C108.658 1281.54 108.467 1281.79 108.505 1282.07L109.495 1281.93ZM89.9731 0.500754C61.1966 2.08332 39.0351 9.79992 23.917 19.9123C8.81362 30.0149 0.685694 42.5519 0.1323 53.7808C-0.144839 59.4042 1.48159 64.6817 5.06518 69.1169C8.64515 73.5476 14.1558 77.1108 21.6085 79.3588C36.5035 83.8518 59.229 83.1165 90.1494 73.4773L89.8518 72.5227C59.0221 82.1335 36.5205 82.8125 21.8973 78.4014C14.5908 76.1975 9.26951 72.7291 5.84301 68.4884C2.42012 64.2521 0.865539 59.2182 1.13109 53.83C1.66307 43.0356 9.51533 30.7486 24.473 20.7435C39.4158 10.7484 61.3961 3.07386 90.028 1.49925L89.9731 0.500754ZM90.1494 73.4773C105.509 68.6892 118.948 68.5349 130.469 71.81C141.991 75.0853 151.629 81.7998 159.371 90.8026C174.866 108.82 182.751 135.988 182.876 162.94C183 189.894 175.363 216.521 159.943 233.468C152.24 241.935 142.595 247.987 130.994 250.471C119.39 252.956 105.793 251.88 90.1759 246.032L89.8252 246.968C105.584 252.87 119.377 253.981 131.203 251.449C143.031 248.916 152.855 242.745 160.683 234.141C176.326 216.948 184.001 190.044 183.876 162.935C183.75 135.824 175.823 108.399 160.13 90.1505C152.278 81.0205 142.479 74.1842 130.743 70.8482C119.007 67.512 105.367 67.6858 89.8518 72.5227L90.1494 73.4773ZM90.1759 246.032C74.4688 240.149 64.1826 240.332 58.1793 245.236C52.1846 250.133 50.7086 259.541 52.0807 271.436C54.832 295.288 69.1398 330.008 83.8769 361.803C91.2508 377.713 98.743 392.912 104.967 405.676C111.197 418.452 116.145 428.767 118.45 434.936C119.026 436.477 119.43 437.743 119.65 438.715C119.759 439.202 119.82 439.602 119.835 439.919C119.85 440.244 119.816 440.439 119.773 440.543C119.74 440.622 119.72 440.617 119.711 440.619C119.664 440.63 119.531 440.633 119.267 440.526C118.742 440.314 117.957 439.778 116.873 438.831C112.555 435.062 104.197 425.438 90.3909 408.188L89.6102 408.812C103.399 426.041 111.816 435.744 116.215 439.585C117.311 440.541 118.202 441.174 118.892 441.453C119.236 441.592 119.596 441.671 119.932 441.595C120.307 441.51 120.56 441.255 120.696 440.927C120.822 440.625 120.852 440.258 120.834 439.871C120.815 439.475 120.742 439.014 120.625 438.495C120.391 437.458 119.969 436.144 119.387 434.586C117.061 428.361 112.087 417.995 105.866 405.238C99.6393 392.468 92.1528 377.281 84.7842 361.383C70.0363 329.564 55.8041 294.988 53.0741 271.321C51.7057 259.458 53.2537 250.551 58.812 246.011C64.3617 241.477 74.1574 241.101 89.8252 246.968L90.1759 246.032ZM90.3909 408.188C62.8511 373.778 58.6533 344.979 65.2515 327.58C68.5495 318.884 74.5398 313.03 81.6814 310.678C88.8205 308.325 97.1794 309.449 105.264 314.844C121.451 325.646 136.523 353.59 138.028 404.754C139.533 455.893 127.474 530.126 89.5313 633.327L90.4699 633.673C128.438 530.402 140.537 456.035 139.028 404.724C137.519 353.438 122.407 325.082 105.819 314.012C97.5156 308.471 88.8394 307.266 81.3685 309.728C73.9001 312.188 67.7055 318.29 64.3165 327.226C57.5407 345.092 61.9601 374.265 89.6102 408.812L90.3909 408.188ZM89.5313 633.327C13.5878 839.888 37.2912 982.279 68.2173 1041.57C75.9431 1056.38 84.1535 1066.07 91.4317 1070.23C95.0778 1072.32 98.5396 1073.05 101.602 1072.28C104.674 1071.5 107.238 1069.24 109.137 1065.56C112.918 1058.24 114.156 1045.15 111.52 1026.08C108.88 1007 102.341 981.84 90.4685 950.324L89.5327 950.676C101.389 982.147 107.902 1007.23 110.529 1026.22C113.16 1045.24 111.88 1058.07 108.249 1065.1C106.442 1068.6 104.077 1070.62 101.357 1071.31C98.6282 1072 95.4366 1071.38 91.9287 1069.37C84.8991 1065.34 76.7992 1055.86 69.1039 1041.1C38.3458 982.139 14.5915 840.056 90.4699 633.673L89.5313 633.327ZM90.4685 950.324C78.6013 918.823 67.7247 899.902 57.9839 890.83C53.106 886.286 48.4605 884.164 44.0779 884.236C39.6886 884.309 35.6812 886.581 32.0794 890.569C24.8977 898.522 19.1563 913.485 14.9744 932.512C10.7869 951.564 8.14567 974.778 7.22036 999.313C5.37017 1048.37 10.3776 1102.8 23.6591 1139.89C30.2957 1158.42 39.0299 1172.71 50.093 1179.8C55.637 1183.35 61.7612 1185.08 68.4745 1184.63C75.1809 1184.18 82.442 1181.55 90.2744 1176.42L89.7267 1175.58C81.9967 1180.64 74.8991 1183.19 68.4073 1183.63C61.9223 1184.07 56.0088 1182.4 50.6322 1178.96C39.8539 1172.05 31.2152 1158.02 24.6006 1139.55C11.3798 1102.63 6.37179 1048.35 8.21965 999.351C9.14336 974.858 11.7796 951.706 15.9511 932.727C20.1282 913.721 25.8275 898.985 32.8215 891.24C36.3076 887.379 40.0717 885.303 44.0944 885.236C48.1238 885.169 52.5307 887.117 57.3023 891.561C66.8604 900.464 77.6711 919.19 89.5327 950.676L90.4685 950.324ZM90.2744 1176.42C105.822 1166.24 117.429 1160.85 125.844 1159.17C130.046 1158.33 133.42 1158.42 136.08 1159.27C138.728 1160.12 140.7 1161.73 142.098 1163.99C144.919 1168.55 145.43 1175.82 144.217 1184.89C143.007 1193.93 140.101 1204.65 136.215 1216.03C128.444 1238.78 116.784 1264.08 107.06 1283.71C102.2 1293.52 97.825 1301.91 94.6656 1307.84C93.086 1310.81 91.8103 1313.16 90.9296 1314.78C90.4892 1315.58 90.1477 1316.2 89.9163 1316.62C89.8006 1316.83 89.7124 1316.99 89.6532 1317.1C89.6236 1317.15 89.6013 1317.19 89.5864 1317.22C89.5789 1317.23 89.5733 1317.24 89.5695 1317.25C89.5677 1317.25 89.5663 1317.25 89.5654 1317.25C89.5644 1317.26 89.564 1317.26 90.0006 1317.5C90.4371 1317.74 90.4376 1317.74 90.4386 1317.74C90.4396 1317.74 90.441 1317.74 90.4429 1317.73C90.4468 1317.73 90.4525 1317.72 90.46 1317.7C90.4751 1317.68 90.4977 1317.64 90.5274 1317.58C90.587 1317.47 90.6755 1317.31 90.7916 1317.1C91.0237 1316.68 91.366 1316.06 91.8072 1315.26C92.6894 1313.64 93.9669 1311.28 95.5484 1308.31C98.7113 1302.37 103.091 1293.97 107.956 1284.15C117.686 1264.51 129.369 1239.16 137.161 1216.35C141.056 1204.94 143.986 1194.16 145.208 1185.02C146.426 1175.92 145.964 1168.34 142.949 1163.46C141.43 1161 139.268 1159.24 136.384 1158.32C133.512 1157.4 129.955 1157.33 125.648 1158.19C117.041 1159.91 105.304 1165.38 89.7267 1175.58L90.2744 1176.42ZM90.2141 1317.95L126.214 1300.95L125.786 1300.05L89.7871 1317.05L90.2141 1317.95ZM126.092 1300.01L86.0921 1292.51L85.9079 1293.49L125.908 1300.99L126.092 1300.01ZM85.6434 1293.35L114.143 1322.35L114.857 1321.65L86.3566 1292.65L85.6434 1293.35ZM114.995 1321.93L109.495 1281.93L108.505 1282.07L114.005 1322.07L114.995 1321.93Z" fill="black"/>
</svg>
